<svg width="46" height="46" viewBox="0 0 46 46" fill="none" xmlns="http://www.w3.org/2000/svg">
<path d="M0.5 22.8545C3.19519 21.99 6.80734 23.0707 8.53317 25.1731C7.50815 27.7602 4.48875 29.9708 1.63309 29.9708C0.876606 27.5998 0.5 25.3336 0.5 22.8545ZM3.5194 11.6415C6.32266 12.1818 8.85738 14.9294 9.28966 17.6279C7.18722 19.3537 3.467 19.786 0.932278 18.3287C1.47263 15.9021 2.28151 13.7996 3.5194 11.6415ZM3.467 34.1232C5.35331 32.0208 9.02112 31.1562 11.6082 32.1289C12.0405 34.8797 10.4752 38.3281 7.9961 39.733C6.16219 38.0596 4.70817 36.2814 3.467 34.1265V34.1232ZM11.7687 3.39218C13.8712 5.27848 14.7357 8.9463 13.8188 11.481C11.0679 11.9133 7.67189 10.3479 6.21786 7.92127C7.88803 6.08736 9.66954 4.63334 11.772 3.39218H11.7687ZM15.2204 22.1537C12.9542 24.6328 9.1292 24.2562 7.40336 21.3448C9.66954 18.8658 13.5502 19.2424 15.2204 22.1537ZM15.8655 26.1981C15.1647 29.4861 11.605 30.9958 8.64124 29.3813C9.39773 26.1457 12.9542 24.528 15.8655 26.1981ZM16.6744 18.3254C13.4946 19.3505 10.3671 17.0319 10.3114 13.6359C13.4913 12.7189 16.6744 14.9851 16.6744 18.3254ZM11.7687 42.4282C12.3615 39.6774 15.1123 37.0902 17.8075 36.658C19.5334 38.8128 19.91 42.533 18.5083 45.0154C16.0817 44.475 13.9268 43.6661 11.7687 42.4282ZM18.4559 29.3813C19.481 32.5611 17.2148 35.6886 13.8188 35.7443C12.8494 32.5644 15.1123 29.3813 18.4559 29.3813ZM19.8576 15.7383C16.5696 15.0375 15.0043 11.4777 16.6777 8.56641C19.9132 9.26723 21.531 12.827 19.8576 15.7383ZM23.1455 0.425171C24.0068 3.12036 22.9294 6.73251 20.8269 8.45835C18.2398 7.489 16.0293 4.41392 16.0293 1.55827C18.4003 0.805054 20.6664 0.425171 23.1455 0.425171ZM23.0931 16.4391C26.7052 16.4391 29.6166 19.3505 29.6166 22.9626C29.6166 26.5747 26.7052 29.4861 23.0931 29.4861C19.481 29.4861 16.5696 26.5747 16.5696 22.9626C16.5696 19.3505 19.481 16.4391 23.0931 16.4391ZM22.2842 30.8353C24.7633 33.0982 24.3343 36.9265 21.4229 38.708C18.9963 36.3894 19.3729 32.5087 22.2842 30.8353ZM23.8987 15.0899C21.4197 12.8237 21.8487 8.99869 24.76 7.27286C27.1866 9.53904 26.81 13.4197 23.8987 15.0899ZM23.0374 45.5C22.1761 42.8048 23.2536 39.1927 25.356 37.4668C27.8907 38.4362 30.1536 41.4556 30.1536 44.3669C27.7827 45.1201 25.5165 45.5 23.0374 45.5ZM26.3254 30.1869C29.6133 30.8877 31.1787 34.3918 29.5052 37.3588C26.2697 36.658 24.6519 33.0982 26.3254 30.1869ZM34.4142 3.50024C33.8215 6.2511 31.0706 8.83823 28.3754 9.27051C26.6496 7.11239 26.273 3.39217 27.6746 0.913123C30.1013 1.45347 32.2561 2.26235 34.4142 3.50024ZM27.7303 16.5472C26.7052 13.3673 28.9714 10.2399 32.3674 10.1842C33.3368 13.3641 31.0739 16.5472 27.7303 16.5472ZM29.5085 27.5998C32.6884 26.5747 35.8158 28.8933 35.8715 32.2369C32.6916 33.2063 29.5085 30.9434 29.5085 27.5998ZM30.3174 19.7271C31.0182 16.4391 34.578 14.9294 37.5417 16.5472C36.7852 19.7827 33.2287 21.4005 30.3174 19.7271ZM30.9625 23.7715C33.2287 21.2924 37.0537 21.7214 38.7796 24.5804C36.5134 27.0594 32.6327 26.6828 30.9625 23.7715ZM34.3061 42.4806C32.2037 40.5943 31.3391 36.9265 32.3118 34.3918C35.0626 33.9595 38.4586 35.5249 39.9127 37.9515C38.2425 39.7854 36.461 41.2395 34.3061 42.4806ZM42.6111 11.7496C40.7248 13.852 37.057 14.7166 34.5223 13.7439C34.09 11.0487 35.5997 7.59706 38.082 6.14304C39.9159 7.8132 41.37 9.59471 42.6111 11.7496ZM42.5555 34.287C39.8046 33.6942 37.2175 30.9434 36.7852 28.2482C38.9433 26.5223 42.6635 26.1457 45.1426 27.5474C44.6022 29.974 43.7933 32.1321 42.5555 34.287ZM45.6305 23.0183C42.9353 23.8828 39.3232 22.8021 37.5974 20.6997C38.6224 18.1126 41.6418 15.9544 44.4974 15.9021C45.2539 18.273 45.6305 20.5392 45.6305 23.0183Z" fill="#44929F"/>
</svg>
