<svg width="239" height="239" viewBox="0 0 239 239" fill="none" xmlns="http://www.w3.org/2000/svg">
<path d="M238.786 238.841C106.908 238.841 0 131.917 0 0.0185547H238.786V238.841Z" fill="#73932F"/>
<path d="M238.749 189.338C134.195 189.338 49.4404 104.569 49.4404 0H238.749V189.338Z" fill="#E5EFCE"/>
<path d="M74.5221 126.596L71.7044 128.765L74.9114 132.937L72.5942 134.735L69.3871 130.564L65.6054 133.474L69.9989 139.185L67.6817 140.983L61.2676 132.64L74.8373 122.202L81.1031 130.341L78.7673 132.121L74.5221 126.596Z" fill="#E5EFCE"/>
<path d="M82.2895 131.899L84.5696 134.439L78.9898 145.73L90.8354 141.41L93.1156 143.95L75.7271 150.235L74.1699 148.511L82.2895 131.917V131.899Z" fill="#E5EFCE"/>
<path d="M100.03 150.217C103.886 153.832 103.849 159.19 100.512 162.75C97.1756 166.31 91.8182 166.681 87.9809 163.065C84.125 159.45 84.1621 154.073 87.4989 150.532C90.8357 146.991 96.1746 146.601 100.03 150.217ZM90.0015 160.915C92.3558 163.121 95.9151 162.843 98.1211 160.488C100.327 158.134 100.383 154.574 98.0284 152.349C95.6741 150.124 92.1148 150.421 89.9088 152.775C87.7028 155.13 87.6472 158.69 90.0015 160.915Z" fill="#E5EFCE"/>
<path d="M108.576 158.171L111.153 160.229L102.273 171.316L107.909 175.821L106.074 178.12L97.8613 171.538L108.576 158.171Z" fill="#E5EFCE"/>
<path d="M116.584 164.697L119.383 166.644L116.547 178.918L127.077 171.983L129.876 173.93L114.415 184.053L112.506 182.718L116.584 164.697Z" fill="#E5EFCE"/>
<path d="M133.25 179.288L131.451 182.348L135.975 185.018L134.473 187.558L129.95 184.888L127.521 189.004L133.75 192.675L132.249 195.196L123.184 189.838L131.896 175.08L140.757 180.308L139.256 182.848L133.25 179.307V179.288Z" fill="#E5EFCE"/>
<path d="M12.5312 28.8123L26.0824 12.8302L42.0805 26.3834" stroke="white" stroke-width="2" stroke-miterlimit="10"/>
</svg>
