<svg width="241" height="240" viewBox="0 0 241 240" fill="none" xmlns="http://www.w3.org/2000/svg">
<path d="M240.361 0.00830078C240.361 132.278 133.157 239.498 0.908203 239.498V0.00830078H240.361Z" fill="#7379AD"/>
<path d="M190.328 0.2677C190.328 105.06 105.388 190.013 0.611816 190.013V0.2677H190.328Z" fill="#ECEDF4"/>
<path d="M106.203 177.239L109.021 175.514L117.975 190.124L115.157 191.849L106.203 177.239Z" fill="#EEEDE9"/>
<path d="M112.58 173.401L114.471 172.047L128.708 175.626L122.257 166.522L124.945 164.612L134.844 178.574L132.953 179.927L118.716 176.349L125.167 185.452L122.479 187.362L112.58 173.382V173.401Z" fill="#EEEDE9"/>
<path d="M128.003 162.239L129.765 160.719L144.28 162.981L137.013 154.508L139.515 152.357L150.675 165.354L148.914 166.874L134.399 164.612L141.666 173.086L139.163 175.236L128.003 162.239Z" fill="#EEEDE9"/>
<path d="M147.561 143.958C151.231 140.157 156.607 140.269 160.092 143.661C163.596 147.036 163.893 152.413 160.222 156.214C156.552 160.014 151.176 159.903 147.672 156.51C144.168 153.117 143.872 147.759 147.542 143.958H147.561ZM158.127 154.174C160.371 151.856 160.13 148.297 157.812 146.053C155.495 143.81 151.917 143.699 149.674 146.016C147.431 148.334 147.654 151.894 149.989 154.156C152.307 156.399 155.884 156.51 158.127 154.193V154.174Z" fill="#EEEDE9"/>
<path d="M154.216 137.358L156.366 134.725L168.379 138.489L162.28 127.457L164.43 124.824L173.328 141.01L171.864 142.809L154.216 137.358Z" fill="#EEEDE9"/>
<path d="M177.796 135.522L167.916 119.707L169.25 117.797L187.51 121.561L185.545 124.398L181.504 123.563L177.574 129.218L179.761 132.704L177.796 135.541V135.522ZM175.868 126.493L178.352 122.914L172.939 121.802L175.85 126.493H175.868Z" fill="#EEEDE9"/>
<path d="M179.39 101.648L181.911 103.15L179.594 107.044L191.774 114.33L190.087 117.167L177.907 109.88L175.59 113.774L173.069 112.272L179.409 101.667L179.39 101.648Z" fill="#EEEDE9"/>
<path d="M184.803 97.6064L187.955 99.2194L190.346 94.5286L192.96 95.8635L190.569 100.554L194.814 102.724L198.095 96.29L200.709 97.6249L195.926 106.988L180.669 99.1823L185.341 90.0232L187.955 91.3581L184.785 97.5693L184.803 97.6064Z" fill="#EEEDE9"/>
<path d="M27.5656 228.448L12.1792 215.395L25.2298 200.025" stroke="white" stroke-width="2" stroke-miterlimit="10"/>
</svg>
