<svg width="241" height="240" viewBox="0 0 241 240" fill="none" xmlns="http://www.w3.org/2000/svg">
<path d="M240.129 0.229492C240.129 132.499 132.925 239.72 0.676147 239.72V0.229492H240.129Z" fill="#7379AD"/>
<path d="M190.096 0.489014C190.096 105.281 105.155 190.234 0.379517 190.234V0.489014H190.096Z" fill="#ECEDF4"/>
<path d="M105.971 177.46L108.789 175.736L117.742 190.346L114.925 192.07L105.971 177.46Z" fill="#EEEDE9"/>
<path d="M112.348 173.622L114.239 172.269L128.476 175.847L122.025 166.743L124.713 164.834L134.612 178.795L132.721 180.148L118.484 176.57L124.935 185.673L122.247 187.583L112.348 173.603V173.622Z" fill="#EEEDE9"/>
<path d="M127.771 162.461L129.533 160.94L144.048 163.202L136.781 154.729L139.283 152.578L150.443 165.575L148.682 167.096L134.167 164.834L141.434 173.307L138.931 175.458L127.771 162.461Z" fill="#EEEDE9"/>
<path d="M147.329 144.179C150.999 140.379 156.375 140.49 159.86 143.883C163.364 147.257 163.661 152.634 159.99 156.435C156.32 160.236 150.944 160.124 147.44 156.731C143.936 153.339 143.64 147.98 147.31 144.179H147.329ZM157.895 154.395C160.138 152.078 159.897 148.518 157.58 146.275C155.263 144.031 151.685 143.92 149.442 146.237C147.199 148.555 147.422 152.115 149.757 154.377C152.075 156.62 155.652 156.731 157.895 154.414V154.395Z" fill="#EEEDE9"/>
<path d="M153.984 137.579L156.134 134.946L168.147 138.71L162.048 127.678L164.198 125.045L173.096 141.231L171.632 143.03L153.984 137.579Z" fill="#EEEDE9"/>
<path d="M177.564 135.743L167.683 119.928L169.018 118.019L187.278 121.782L185.313 124.619L181.272 123.785L177.342 129.44L179.529 132.925L177.564 135.762V135.743ZM175.636 126.714L178.12 123.136L172.707 122.023L175.618 126.714H175.636Z" fill="#EEEDE9"/>
<path d="M179.158 101.87L181.679 103.371L179.362 107.265L191.541 114.551L189.855 117.388L177.675 110.102L175.358 113.995L172.837 112.493L179.177 101.888L179.158 101.87Z" fill="#EEEDE9"/>
<path d="M184.571 97.8277L187.723 99.4407L190.114 94.7499L192.728 96.0848L190.336 100.776L194.582 102.945L197.863 96.5113L200.477 97.8462L195.694 107.209L180.437 99.4036L185.109 90.2445L187.723 91.5794L184.553 97.7906L184.571 97.8277Z" fill="#EEEDE9"/>
<path d="M27.3335 228.669L11.9471 215.617L24.9978 200.246" stroke="white" stroke-width="2" stroke-miterlimit="10"/>
</svg>
