<svg width="240" height="240" viewBox="0 0 240 240" fill="none" xmlns="http://www.w3.org/2000/svg">
<path d="M239.102 239.479C107.223 239.479 0.315796 132.554 0.315796 0.655884H239.102V239.479Z" fill="#73932F"/>
<path d="M239.064 189.975C134.511 189.975 49.7561 105.207 49.7561 0.637329H239.064V189.975Z" fill="#E5EFCE"/>
<path d="M74.8377 127.233L72.0199 129.402L75.227 133.574L72.9097 135.373L69.7027 131.201L65.921 134.112L70.3144 139.822L67.9972 141.621L61.5831 133.277L75.1528 122.839L81.4186 130.978L79.0828 132.758L74.8377 127.233Z" fill="#E5EFCE"/>
<path d="M82.605 132.536L84.8852 135.076L79.3053 146.367L91.151 142.047L93.4311 144.587L76.0427 150.873L74.4855 149.148L82.605 132.554V132.536Z" fill="#E5EFCE"/>
<path d="M100.346 150.854C104.201 154.469 104.164 159.828 100.828 163.387C97.4907 166.947 92.1333 167.318 88.2959 163.703C84.4401 160.087 84.4771 154.71 87.8139 151.169C91.1508 147.628 96.4897 147.239 100.346 150.854ZM90.3166 161.552C92.6709 163.758 96.2301 163.48 98.4361 161.126C100.642 158.771 100.698 155.211 98.3434 152.986C95.9891 150.761 92.4299 151.058 90.2239 153.413C88.0179 155.767 87.9623 159.327 90.3166 161.552Z" fill="#E5EFCE"/>
<path d="M108.892 158.808L111.468 160.866L102.589 171.953L108.224 176.459L106.389 178.758L98.1768 172.176L108.892 158.808Z" fill="#E5EFCE"/>
<path d="M116.9 165.334L119.699 167.281L116.863 179.555L127.392 172.621L130.191 174.568L114.731 184.691L112.822 183.356L116.9 165.334Z" fill="#E5EFCE"/>
<path d="M133.566 179.926L131.767 182.985L136.291 185.655L134.789 188.195L130.266 185.525L127.837 189.641L134.066 193.312L132.565 195.834L123.5 190.475L132.212 175.717L141.073 180.946L139.572 183.486L133.566 179.944V179.926Z" fill="#E5EFCE"/>
<path d="M12.8473 29.4496L26.3984 13.4675L42.3966 27.0208" stroke="white" stroke-width="2" stroke-miterlimit="10"/>
</svg>
