<?xml version="1.0" encoding="UTF-8"?>
<svg width="1200pt" height="1200pt" version="1.1" viewBox="0 0 1200 1200" xmlns="http://www.w3.org/2000/svg">
 <path d="m1054.7 165.14h-91.312v-39.141c0-39-31.688-70.688-70.688-70.688s-70.688 31.688-70.688 70.688v39.141h-444v-39.141c0-39-31.688-70.688-70.688-70.688s-70.688 31.688-70.688 70.688v39.141h-91.312c-57.703 0-104.62 46.922-104.62 104.62v770.39c0 57.703 46.922 104.62 104.62 104.62h909.47c57.703 0 104.62-46.922 104.62-104.62v-770.39c-0.09375-57.703-47.016-104.62-104.72-104.62zm-205.45-39.141c0-24 19.453-43.453 43.453-43.453s43.453 19.453 43.453 43.453v105.47c0 24-19.453 43.453-43.453 43.453s-43.453-19.453-43.453-43.453zm-585.37 0c0-24 19.453-43.453 43.453-43.453s43.453 19.453 43.453 43.453v105.47c0 24-19.453 43.453-43.453 43.453s-43.453-19.453-43.453-43.453zm-118.55 66.375h91.312v39.141c0 39 31.688 70.688 70.688 70.688s70.688-31.688 70.688-70.688v-39.141h444v39.141c0 39 31.688 70.688 70.688 70.688s70.688-31.688 70.688-70.688v-39.141h91.312c42.609 0 77.297 34.688 77.297 77.297v104.39h-1064.1v-104.39c0-42.609 34.688-77.297 77.391-77.297zm909.37 925.08h-909.37c-42.609 0-77.297-34.688-77.297-77.297l0.046874-638.76h1064.1v638.76c-0.046874 42.609-34.734 77.297-77.438 77.297zm-543.37-224.9h-77.391c-26.297 0-47.766 21.375-47.766 47.766v77.391c0 26.297 21.375 47.766 47.766 47.766h77.391c26.297 0 47.766-21.469 47.766-47.766v-77.391c-0.14063-26.25-21.469-47.766-47.766-47.766zm20.391 125.16c0 11.297-9.1406 20.531-20.531 20.531h-77.391c-11.297 0-20.531-9.1406-20.531-20.531v-77.391c0-11.297 9.1406-20.531 20.531-20.531h77.391c11.297 0 20.531 9.1406 20.531 20.531zm234.37-125.16h-77.391c-26.297 0-47.766 21.375-47.766 47.766v77.391c0 26.297 21.375 47.766 47.766 47.766h77.391c26.297 0 47.766-21.469 47.766-47.766v-77.391c0-26.25-21.375-47.766-47.766-47.766zm20.531 125.16c0 11.297-9.1406 20.531-20.531 20.531h-77.391c-11.297 0-20.531-9.1406-20.531-20.531v-77.391c0-11.297 9.1406-20.531 20.531-20.531h77.391c11.297 0 20.531 9.1406 20.531 20.531zm234.32-125.16h-77.391c-26.297 0-47.766 21.375-47.766 47.766v77.391c0 26.297 21.375 47.766 47.766 47.766h77.391c26.297 0 47.766-21.469 47.766-47.766v-77.391c0-26.25-21.469-47.766-47.766-47.766zm20.531 125.16c0 11.297-9.1406 20.531-20.531 20.531h-77.391c-11.297 0-20.531-9.1406-20.531-20.531v-77.391c0-11.297 9.1406-20.531 20.531-20.531h77.391c11.297 0 20.531 9.1406 20.531 20.531zm-785.02-344.76h-77.391c-26.297 0-47.766 21.375-47.766 47.766v77.391c0 26.297 21.375 47.766 47.766 47.766h77.391c26.297 0 47.766-21.375 47.766-47.766v-77.391c0-26.391-21.516-47.766-47.766-47.766zm20.391 125.21c0 11.297-9.1406 20.531-20.531 20.531h-77.391c-11.297 0-20.531-9.1406-20.531-20.531v-77.391c0-11.297 9.1406-20.531 20.531-20.531h77.391c11.297 0 20.531 9.1406 20.531 20.531zm234.47-125.21h-77.391c-26.297 0-47.766 21.375-47.766 47.766v77.391c0 26.297 21.375 47.766 47.766 47.766h77.391c26.297 0 47.766-21.375 47.766-47.766v-77.391c-0.14062-26.391-21.469-47.766-47.766-47.766zm20.391 125.21c0 11.297-9.1406 20.531-20.531 20.531h-77.391c-11.297 0-20.531-9.1406-20.531-20.531v-77.391c0-11.297 9.1406-20.531 20.531-20.531h77.391c11.297 0 20.531 9.1406 20.531 20.531zm-20.391-344.76h-77.391c-26.297 0-47.766 21.375-47.766 47.766v77.391c0 26.297 21.375 47.766 47.766 47.766h77.391c26.297 0 47.766-21.375 47.766-47.766v-77.391c-0.14062-26.438-21.469-47.766-47.766-47.766zm20.391 125.02c0 11.297-9.1406 20.531-20.531 20.531h-77.391c-11.297 0-20.531-9.1406-20.531-20.531v-77.391c0-11.297 9.1406-20.531 20.531-20.531h77.391c11.297 0 20.531 9.1406 20.531 20.531zm156.98 47.766h77.391c26.297 0 47.766-21.375 47.766-47.766v-77.391c0-26.297-21.375-47.766-47.766-47.766h-77.391c-26.297 0-47.766 21.375-47.766 47.766v77.391c0.14062 26.391 21.469 47.766 47.766 47.766zm-20.391-125.16c0-11.297 9.1406-20.531 20.531-20.531h77.391c11.297 0 20.531 9.1406 20.531 20.531v77.391c0 11.297-9.1406 20.531-20.531 20.531h-77.391c-11.297 0-20.531-9.1406-20.531-20.531zm352.64-47.625h-77.391c-26.297 0-47.766 21.375-47.766 47.766v77.391c0 26.297 21.375 47.766 47.766 47.766h77.391c26.297 0 47.766-21.375 47.766-47.766v-77.391c0-26.438-21.469-47.766-47.766-47.766zm20.531 125.02c0 11.297-9.1406 20.531-20.531 20.531h-77.391c-11.297 0-20.531-9.1406-20.531-20.531v-77.391c0-11.297 9.1406-20.531 20.531-20.531h77.391c11.297 0 20.531 9.1406 20.531 20.531zm-785.02 314.16h-77.391c-26.297 0-47.766 21.375-47.766 47.766v77.391c0 26.297 21.375 47.766 47.766 47.766h77.391c26.297 0 47.766-21.469 47.766-47.766v-77.391c0-26.25-21.516-47.766-47.766-47.766zm20.391 125.16c0 11.297-9.1406 20.531-20.531 20.531h-77.391c-11.297 0-20.531-9.1406-20.531-20.531v-77.391c0-11.297 9.1406-20.531 20.531-20.531h77.391c11.297 0 20.531 9.1406 20.531 20.531zm535.45-307.92c4.6875 5.8594 3.7031 14.531-2.1562 19.219l-103.08 82.078c-2.5312 2.0625-5.5312 3-8.5312 3-3.8438 0-7.6875-1.6875-10.453-4.7812l-45.234-53.531c-4.9219-5.7656-4.2188-14.391 1.5469-19.219 5.7656-4.9219 14.391-4.2188 19.219 1.5469l36.703 43.312 92.766-73.922c5.8594-4.5469 14.531-3.5625 19.219 2.2969zm208.64-36.844h-77.391c-26.297 0-47.766 21.375-47.766 47.766v77.391c0 26.297 21.375 47.766 47.766 47.766h77.391c26.297 0 47.766-21.375 47.766-47.766v-77.391c0-26.391-21.469-47.766-47.766-47.766zm20.531 125.21c0 11.297-9.1406 20.531-20.531 20.531h-77.391c-11.297 0-20.531-9.1406-20.531-20.531v-77.391c0-11.297 9.1406-20.531 20.531-20.531h77.391c11.297 0 20.531 9.1406 20.531 20.531z" fill="#fff"/>
</svg>
