<svg width="197" height="198" viewBox="0 0 197 198" fill="none" xmlns="http://www.w3.org/2000/svg">
<path d="M98.5181 197.348C152.739 197.348 196.694 153.386 196.694 99.1565C196.694 44.9268 152.739 0.965027 98.5181 0.965027C44.2968 0.965027 0.341797 44.9268 0.341797 99.1565C0.341797 153.386 44.2968 197.348 98.5181 197.348Z" fill="#2C2D3B"/>
<path d="M34.4916 68.6339C34.4916 73.6028 38.2919 77.3851 43.2044 77.3851C46.5227 77.3851 48.9326 75.772 50.4341 73.8438L53.8266 76.8659C51.565 79.7397 47.7647 81.7607 43.0932 81.7607C35.1404 81.7607 29.5605 75.9574 29.5605 68.6153C29.5605 61.2732 35.0663 55.47 43.019 55.47C46.8193 55.47 50.0634 56.8976 52.3621 59.1225L49.1921 62.4783C47.6535 60.9395 45.5031 59.8456 42.9819 59.8456C38.125 59.8456 34.4731 63.7577 34.4731 68.5968L34.4916 68.6339Z" fill="#EEEDE9"/>
<path d="M62.4091 70.0986V81.4084H57.478V55.8594H66.784C69.4164 55.8594 71.0848 56.5825 72.3639 57.7505C73.7542 59.0669 74.6255 60.921 74.6255 62.9605C74.6255 64.9999 73.7542 66.8725 72.3639 68.1704C71.678 68.8193 70.8253 69.3385 69.8057 69.6722L79.3712 81.3899H73.2723L64.1887 70.0801H62.4091V70.0986ZM66.5059 65.723C67.9334 65.723 68.5451 65.4264 68.99 64.9629C69.4349 64.4808 69.713 63.7577 69.713 63.0346C69.713 62.2745 69.4164 61.5328 68.99 61.0693C68.5636 60.6058 67.9334 60.2721 66.5059 60.2721H62.4091V65.7416H66.5059V65.723Z" fill="#EEEDE9"/>
<path d="M86.8608 60.235V65.5191H94.7023V69.8947H86.8608V77.0143H97.6313V81.3899H81.9482V55.8408H97.279V60.2164H86.8793L86.8608 60.235Z" fill="#EEEDE9"/>
<path d="M100.171 81.4084L111.127 55.8594H114.593L125.549 81.4084H120.396L117.986 75.7535H107.734L105.324 81.4084H100.171ZM109.588 71.3779H116.076L112.832 63.8319L109.588 71.3779Z" fill="#EEEDE9"/>
<path d="M142.864 55.8594V60.235H136.116V81.4084H131.185V60.235H124.437V55.8594H142.864Z" fill="#EEEDE9"/>
<path d="M151.632 60.235V65.5191H159.473V69.8947H151.632V77.0143H162.402V81.3899H146.719V55.8408H162.05V60.2164H151.65L151.632 60.235Z" fill="#EEEDE9"/>
<path d="M37.235 105.493L46.5409 90.1968H50.0075V115.746H45.0765V101.507L38.9404 111.537H35.5109L29.3749 101.507V115.746H24.4438V90.1968H27.9104L37.2164 105.493H37.235Z" fill="#EEEDE9"/>
<path d="M58.9428 113.502C56.8295 111.611 55.6616 108.904 55.6616 104.992V90.2153H60.5927V105.363C60.5927 107.699 61.2044 109.127 62.2796 110.109C63.3734 111.166 64.912 111.76 66.6175 111.76C68.3229 111.76 69.8616 111.166 70.9553 110.109C72.012 109.127 72.6423 107.699 72.6423 105.363V90.2153H77.5733V104.992C77.5733 108.904 76.4055 111.593 74.2921 113.502C72.3271 115.264 69.5094 116.135 66.636 116.135C63.7626 116.135 60.9449 115.264 58.9799 113.502H58.9428Z" fill="#EEEDE9"/>
<path d="M99.6331 90.2153V94.5909H92.8854V115.764H87.9543V94.5909H81.2065V90.2153H99.6331Z" fill="#EEEDE9"/>
<path d="M106.566 113.502C104.453 111.611 103.285 108.904 103.285 104.992V90.2153H108.216V105.363C108.216 107.699 108.828 109.127 109.903 110.109C110.997 111.166 112.536 111.76 114.241 111.76C115.946 111.76 117.485 111.166 118.579 110.109C119.636 109.127 120.266 107.699 120.266 105.363V90.2153H125.197V104.992C125.197 108.904 124.029 111.593 121.916 113.502C119.951 115.264 117.133 116.135 114.26 116.135C111.386 116.135 108.568 115.264 106.603 113.502H106.566Z" fill="#EEEDE9"/>
<path d="M126.625 115.764L137.58 90.2153H141.047L152.003 115.764H146.849L144.439 110.109H134.188L131.778 115.764H126.625ZM136.042 105.715H142.53L139.286 98.1693L136.042 105.715Z" fill="#EEEDE9"/>
<path d="M154.913 90.2153H159.844V111.389H170.615V115.764H154.932V90.2153H154.913Z" fill="#EEEDE9"/>
<path d="M39.5894 124.553H44.6687L51.6389 141.999L58.6462 124.553H63.7256L53.4 150.102H49.9335L39.6079 124.553H39.5894Z" fill="#EEEDE9"/>
<path d="M61.8901 150.102L72.846 124.553H76.3126L87.2499 150.102H82.0964L79.6864 144.447H69.435L67.0251 150.102H61.8716H61.8901ZM71.3073 140.071H77.7956L74.5515 132.525L71.3073 140.071Z" fill="#EEEDE9"/>
<path d="M90.1602 124.553H95.0912V145.726H105.862V150.102H90.1787V124.553H90.1602Z" fill="#EEEDE9"/>
<path d="M111.683 147.84C109.57 145.949 108.402 143.242 108.402 139.33V124.553H113.333V139.7C113.333 142.036 113.945 143.464 115.02 144.447C116.114 145.504 117.652 146.097 119.358 146.097C121.063 146.097 122.602 145.504 123.696 144.447C124.752 143.464 125.382 142.036 125.382 139.7V124.553H130.314V139.33C130.314 143.242 129.146 145.93 127.032 147.84C125.067 149.601 122.25 150.472 119.376 150.472C116.503 150.472 113.685 149.601 111.72 147.84H111.683Z" fill="#EEEDE9"/>
<path d="M140.88 128.928V134.212H148.721V138.588H140.88V145.708H151.65V150.083H135.967V124.534H151.298V128.91H140.898L140.88 128.928Z" fill="#EEEDE9"/>
</svg>
