<?xml version="1.0" encoding="UTF-8"?>
<svg width="1200pt" height="1200pt" version="1.1" viewBox="0 0 1200 1200" xmlns="http://www.w3.org/2000/svg">
 <path d="m1077.5 83.625h-954.94c-45.141 0-81.844 36.703-81.844 81.844v658.45c0 45.141 36.703 81.844 81.844 81.844h583.22c0.84375 4.6875 2.2969 9.2344 4.0781 13.453l-71.625 101.53c-6 8.5312-6.1406 19.547-0.46875 28.219 5.625 8.625 15.938 12.844 26.062 10.688l51.938-10.922 16.547 50.391c3.2344 9.8438 12 16.547 22.312 17.156h1.4531c9.7031 0 18.469-5.5312 22.688-14.531l56.859-123.14c9.2344 5.7656 19.922 8.8594 31.547 8.8594s22.312-3.1406 31.547-8.8594l56.859 123.14c4.0781 8.8594 12.938 14.531 22.688 14.531h1.4531c10.312-0.60938 19.078-7.3125 22.312-17.156l16.547-50.391 51.938 10.922c10.078 2.1562 20.391-2.0625 26.062-10.688 5.625-8.625 5.5312-19.688-0.46875-28.219l-71.625-101.53c1.9219-4.3125 3.2344-8.7656 4.0781-13.453h48.844c45.141 0 81.844-36.703 81.844-81.844v-658.45c0.09375-45.094-36.609-81.844-81.75-81.844zm-321.1 1001.5-15.375-46.922c-3.9375-12.141-16.453-19.312-28.922-16.688l-48.234 10.078 63.609-90.234c0.60938 0.46875 1.0781 0.9375 1.6875 1.3125 15.938 11.531 34.922 14.531 53.625 8.3906 11.391-3.7031 23.766-0.84375 32.156 7.3125zm110.77-124.69c-10.781 0-19.781-4.6875-26.156-13.453-11.391-15.844-29.391-24.703-48.141-24.703-6.2344 0-12.469 0.9375-18.703 3-10.312 3.375-20.297 1.7812-29.062-4.5469-8.7656-6.375-13.312-15.375-13.312-26.297 0.14062-26.062-16.453-48.844-41.297-56.766-10.312-3.2344-17.531-10.453-20.859-20.766-3.375-10.312-1.6875-20.297 4.6875-29.062 15.375-21 15.375-49.219 0-70.219-6.375-8.7656-8.0625-18.703-4.6875-29.062 3.375-10.312 10.547-17.391 20.859-20.766 24.844-7.9219 41.391-30.703 41.297-56.766 0-10.781 4.5469-19.922 13.312-26.297s18.844-7.9219 29.062-4.5469c24.703 8.1562 51.609-0.60938 66.703-21.703 6.375-8.7656 15.375-13.453 26.156-13.453s19.781 4.6875 26.156 13.453c15.234 21.141 42 29.859 66.703 21.703 10.312-3.375 20.297-1.7812 29.062 4.5469 8.7656 6.375 13.312 15.375 13.312 26.156-0.14062 26.062 16.453 48.844 41.297 56.766 10.312 3.2344 17.531 10.453 20.859 20.766 3.375 10.312 1.6875 20.297-4.6875 29.062-15.375 21-15.375 49.219 0 70.219 6.375 8.7656 8.0625 18.703 4.6875 29.062-3.375 10.312-10.547 17.391-20.859 20.766-24.844 7.9219-41.391 30.703-41.297 56.766 0 10.781-4.5469 19.922-13.312 26.297s-18.844 7.9219-29.062 4.5469c-24.703-8.1562-51.609 0.60938-66.703 21.703-6.0938 8.9062-15.094 13.594-26.016 13.594zm-214.69-226.55c8.2969 11.391 8.2969 26.625 0 37.922-3.6094 4.9219-6.2344 10.219-8.2969 15.609h-387.61c-4.4531 0-8.0625-2.8594-8.8594-7.3125-8.3906-41.156-40.453-73.219-81.609-81.609-4.3125-0.84375-7.3125-4.4531-7.3125-8.8594v-390.14c0-4.4531 2.8594-8.0625 7.3125-8.8594 41.156-8.3906 73.219-40.453 81.609-81.609 0.84375-4.3125 4.4531-7.3125 8.8594-7.3125h686.63c4.4531 0 8.0625 2.8594 8.8594 7.3125 8.3906 41.156 40.453 73.219 81.609 81.609 4.3125 0.84375 7.3125 4.4531 7.3125 8.8594v336.37c-7.0781-6-11.391-14.766-11.391-24.469 0.14062-19.688-8.625-36.844-24.469-48.375-15.938-11.531-34.922-14.531-53.625-8.3906-13.312 4.4531-27.844-0.375-36.141-11.766-11.531-15.938-28.688-24.703-48.375-24.703s-36.844 8.7656-48.375 24.703c-8.2969 11.391-22.688 16.078-36.141 11.766-18.703-6.1406-37.688-3.1406-53.625 8.3906s-24.609 28.781-24.469 48.375c0.14062 14.062-8.8594 26.391-22.312 30.703-18.703 6-32.391 19.547-38.391 38.297-5.8594 18.562-2.8594 37.641 8.8125 53.484zm369.84 287.76c-12.469-2.625-24.938 4.5469-28.922 16.688l-15.375 46.922-58.547-126.71c8.3906-8.1562 20.766-11.062 32.156-7.3125 18.703 6.1406 37.688 3.2344 53.625-8.3906 0.60938-0.46875 1.0781-0.9375 1.6875-1.3125l63.609 90.234zm109.78-197.76c0 30.141-24.469 54.609-54.609 54.609h-43.453c3.8438-6.8438 10.219-12.141 18-14.625 18.703-6 32.391-19.547 38.391-38.297 6.1406-18.703 3-37.688-8.625-53.625-8.2969-11.391-8.2969-26.625 0-37.922 11.625-15.844 14.625-34.922 8.625-53.625-4.0781-12.703-11.766-22.922-22.078-30.141l0.046875-350.76c0-17.531-12-32.156-29.062-35.625-30.375-6.2344-54.141-29.859-60.234-60.234-3.4688-17.156-18.141-29.062-35.625-29.062h-686.76c-17.531 0-32.156 12-35.625 29.062-6.2344 30.375-29.859 54.141-60.234 60.234-17.156 3.4688-29.062 18.141-29.062 35.625v390.24c0 17.531 12 32.156 29.062 35.625 30.375 6.2344 54.141 29.859 60.234 60.234 3.4688 17.156 18.141 29.062 35.625 29.062h384.84c0.46875 3.6094 1.2188 7.0781 2.3906 10.688 6.1406 18.703 19.688 32.297 38.391 38.297 7.9219 2.5312 14.156 7.9219 18 14.625h-577.78c-30.141 0-54.609-24.469-54.609-54.609v-658.22c0-30.141 24.469-54.609 54.609-54.609h954.94c30.141 0 54.609 24.469 54.609 54.609zm-124.92-71.062c0-77.156-62.766-139.92-139.92-139.92s-140.02 62.766-140.02 139.92 62.766 139.92 139.92 139.92 140.02-62.719 140.02-139.92zm-140.02 112.69c-62.156 0-112.69-50.531-112.69-112.69s50.531-112.69 112.69-112.69 112.69 50.531 112.69 112.69c0.09375 62.203-50.531 112.69-112.69 112.69zm-458.53-595.55c0-7.5469 6.1406-13.688 13.688-13.688h355.45c7.5469 0 13.688 6.1406 13.688 13.688s-6.1406 13.688-13.688 13.688h-355.45c-7.5938 0-13.688-6.1406-13.688-13.688zm552.24 208.92h-721.69c-7.5469 0-13.688-6.1406-13.688-13.688s6.1406-13.688 13.688-13.688h721.69c7.5469 0 13.688 6.1406 13.688 13.688s-6.1406 13.688-13.688 13.688zm-327.37 84c0 7.5469-6.1406 13.688-13.688 13.688h-380.63c-7.5469 0-13.688-6.1406-13.688-13.688s6.1406-13.688 13.688-13.688h380.63c7.5938 0 13.688 6.1406 13.688 13.688zm-408-195.24c0-7.5469 6.1406-13.688 13.688-13.688h721.69c7.5469 0 13.688 6.1406 13.688 13.688 0 7.5469-6.1406 13.688-13.688 13.688h-721.69c-7.5469-0.14063-13.688-6.2344-13.688-13.688zm268.31 362.26c0 7.5469-6.1406 13.688-13.688 13.688h-6.9375c-21 0.14062-49.688 0.375-65.859-8.1562-9-4.7812-12.375-11.297-13.688-16.453-8.3906 0.70312-14.391 2.1562-18.469 3.2344-6.6094 1.6875-16.453 4.0781-23.156-4.5469-3.8438-4.9219-3.9375-10.688-3.8438-16.312 0-2.3906 0.23438-5.1562 0.375-8.7656 0.23438-4.0781 0.46875-9 0.60938-15 0.23437-7.2188-2.0625-8.1562-2.8594-8.3906-4.7812-1.7812-15.469 0.70312-23.062 7.3125-12 10.312-15.609 28.688-10.078 51.844 1.7812 7.3125-2.7656 14.625-10.078 16.453-1.0781 0.23438-2.1562 0.375-3.1406 0.375-6.1406 0-11.766-4.2188-13.312-10.453-10.781-45.234 7.2188-68.766 18.844-78.844 12.141-10.453 33-18.609 50.391-12.141 6.4688 2.3906 21.375 10.547 20.531 34.781-0.23437 6.2344-0.46875 11.391-0.70312 15.609v0.14062c5.8594-1.2188 13.781-2.3906 24-2.7656 2.3906-0.14062 9.6094-0.23438 15.141 5.0625 5.2969 5.0625 5.2969 11.391 5.2969 14.531v0.375c10.078 5.3906 37.922 5.1562 52.922 5.0625h7.2188c7.4531-0.1875 13.547 5.9531 13.547 13.359z" fill="#fff"/>
</svg>
