<svg width="78" height="39" viewBox="0 0 78 39" fill="none" xmlns="http://www.w3.org/2000/svg">
<rect x="0.5" y="0.625" width="77" height="37" fill="#7379AD"/>
<rect x="0.5" y="0.625" width="77" height="37" stroke="#2C2D3B"/>
<path d="M19.42 16.475H23.56V18.185H19.42V22.415H25V24.125H17.62V11.525H24.82V13.235H19.42V16.475ZM26.7107 15.665H28.3667V16.475C28.7087 16.097 29.6987 15.485 30.8507 15.485C32.0927 15.485 33.1367 16.043 33.8387 16.889C34.6127 16.115 35.5307 15.485 37.0607 15.485C38.2667 15.485 39.3647 16.025 40.0667 16.907C40.5887 17.555 40.8407 18.383 40.8407 19.805V24.125H39.1307V19.535C39.1307 18.671 38.9507 18.203 38.6447 17.843C38.2667 17.393 37.6907 17.105 37.0607 17.105C35.8367 17.105 35.0447 17.735 34.4867 18.311C34.5767 18.725 34.6307 19.211 34.6307 19.805V24.125H32.9207V19.535C32.9207 18.671 32.7407 18.203 32.4347 17.843C32.0567 17.393 31.4447 17.105 30.7967 17.105C29.7527 17.105 28.9067 17.735 28.4207 18.311V24.125H26.7107V15.665ZM49.3603 24.125V23.351C48.6763 23.963 47.7583 24.305 46.7503 24.305C45.9943 24.305 45.2023 24.089 44.6263 23.747C43.3483 22.991 42.4663 21.587 42.4663 19.895C42.4663 18.203 43.3663 16.781 44.6443 16.025C45.2203 15.683 45.9223 15.485 46.7143 15.485C47.6683 15.485 48.5863 15.773 49.3603 16.439V15.665H51.0163V24.125H49.3603ZM49.3063 21.479V18.311C48.7843 17.627 47.9203 17.105 46.8943 17.105C45.2563 17.105 44.1763 18.419 44.1763 19.895C44.1763 21.407 45.3463 22.685 46.9843 22.685C47.8483 22.685 48.7303 22.253 49.3063 21.479ZM53.5448 24.125V15.665H55.2548V24.125H53.5448ZM53.2748 12.659C53.2748 12.029 53.7608 11.525 54.3908 11.525C55.0208 11.525 55.5248 12.029 55.5248 12.659C55.5248 13.289 55.0208 13.775 54.3908 13.775C53.7608 13.775 53.2748 13.289 53.2748 12.659ZM57.7684 24.125V11.345H59.4784V24.125H57.7684Z" fill="white"/>
</svg>
