<svg width="249" height="158" viewBox="0 0 249 158" fill="none" xmlns="http://www.w3.org/2000/svg">
<g clip-path="url(#clip0_782_47581)">
<path d="M81.6002 97.6505V101.283H87.0137V104.287H81.6002V109.167H89.0273V112.17H78.2002V94.647H88.7742V97.6505H81.6002Z" fill="white"/>
<path d="M93.1813 103.411C93.1813 106.815 95.7989 109.418 99.1989 109.418C101.489 109.418 103.151 108.314 104.187 106.993L106.528 109.069C104.969 111.049 102.351 112.422 99.1241 112.422C93.6357 112.422 89.7812 108.44 89.7812 103.411C89.7812 98.3827 93.584 94.4009 99.0723 94.4009C101.69 94.4009 103.934 95.3792 105.516 96.9067L103.324 99.2122C102.265 98.1595 100.781 97.4101 99.0435 97.4101C95.6953 97.4101 93.1755 100.088 93.1755 103.417L93.1813 103.411Z" fill="white"/>
<path d="M116.216 94.395C121.652 94.395 125.403 98.4283 125.403 103.406C125.403 108.383 121.652 112.416 116.216 112.416C110.779 112.416 107.028 108.383 107.028 103.406C107.028 98.4283 110.779 94.395 116.216 94.395ZM116.216 109.418C119.541 109.418 122.009 106.712 122.009 103.411C122.009 100.11 119.541 97.4042 116.216 97.4042C112.891 97.4042 110.423 100.11 110.423 103.411C110.423 106.712 112.891 109.418 116.216 109.418Z" fill="white"/>
<path d="M127.543 94.647H129.936L139.757 106.066V94.647H143.157V112.17H140.763L130.943 100.751V112.17H127.543V94.647Z" fill="white"/>
<path d="M154.478 94.395C159.915 94.395 163.666 98.4283 163.666 103.406C163.666 108.383 159.915 112.416 154.478 112.416C149.042 112.416 145.291 108.383 145.291 103.406C145.291 98.4283 149.042 94.395 154.478 94.395ZM154.478 109.418C157.804 109.418 160.272 106.712 160.272 103.411C160.272 100.11 157.804 97.4042 154.478 97.4042C151.153 97.4042 148.685 100.11 148.685 103.411C148.685 106.712 151.153 109.418 154.478 109.418Z" fill="white"/>
<path d="M174.614 105.139L181.035 94.647H183.428V112.17H180.028V102.405L175.8 109.287H173.435L169.207 102.405V112.17H165.807V94.647H168.2L174.62 105.139H174.614Z" fill="white"/>
<path d="M186.822 94.647H190.222V112.17H186.822V94.647Z" fill="white"/>
<path d="M195.762 103.411C195.762 106.815 198.38 109.418 201.78 109.418C204.07 109.418 205.732 108.314 206.768 106.993L209.109 109.069C207.55 111.049 204.933 112.422 201.705 112.422C196.217 112.422 192.362 108.44 192.362 103.411C192.362 98.3827 196.165 94.4009 201.653 94.4009C204.271 94.4009 206.515 95.3792 208.097 96.9067L205.905 99.2122C204.846 98.1595 203.362 97.4101 201.625 97.4101C198.276 97.4101 195.757 100.088 195.757 103.417L195.762 103.411Z" fill="white"/>
<path d="M211.818 107.49C212.825 108.594 214.361 109.418 215.972 109.418C217.479 109.418 218.538 108.491 218.538 107.216C218.538 104.962 215.264 104.687 212.9 103.308C211.514 102.507 210.409 101.306 210.409 99.3265C210.409 96.1971 213.303 94.395 216.225 94.395C218.014 94.395 219.677 94.8184 221.334 96.0484L219.573 98.5542C218.866 97.902 217.686 97.4042 216.53 97.4042C215.247 97.4042 213.809 97.9534 213.809 99.3093C213.809 102.141 221.938 101.26 221.938 107.17C221.938 110.276 219.142 112.427 215.972 112.427C213.608 112.427 211.416 111.449 209.604 109.802L211.818 107.496V107.49Z" fill="white"/>
<path d="M86.1338 117.176C91.5703 117.176 95.3213 121.209 95.3213 126.186C95.3213 131.164 91.5703 135.197 86.1338 135.197C80.6972 135.197 76.9463 131.164 76.9463 126.186C76.9463 121.209 80.6972 117.176 86.1338 117.176ZM86.1338 132.199C89.459 132.199 91.927 129.493 91.927 126.192C91.927 122.891 89.459 120.185 86.1338 120.185C82.8086 120.185 80.3405 122.891 80.3405 126.192C80.3405 129.493 82.8086 132.199 86.1338 132.199Z" fill="white"/>
<path d="M100.855 120.431V124.064H106.269V127.067H100.855V134.956H97.4551V117.433H108.029V120.437H100.855V120.431Z" fill="white"/>
<path d="M124.397 127.92L130.817 117.428H133.21V134.951H129.81V125.185L125.582 132.068H123.217L118.989 125.185V134.951H115.589V117.428H117.982L124.402 127.92H124.397Z" fill="white"/>
<path d="M138.238 133.401C136.777 132.096 135.972 130.248 135.972 127.565V117.428H139.372V127.817C139.372 129.419 139.797 130.397 140.528 131.072C141.282 131.799 142.34 132.199 143.525 132.199C144.71 132.199 145.763 131.799 146.523 131.072C147.253 130.397 147.679 129.419 147.679 127.817V117.428H151.079V127.565C151.079 130.243 150.274 132.096 148.812 133.401C147.455 134.602 145.516 135.203 143.525 135.203C141.535 135.203 139.596 134.602 138.238 133.401Z" fill="white"/>
<path d="M165.68 117.428V120.431H161.02V134.951H157.62V120.431H152.96V117.428H165.674H165.68Z" fill="white"/>
<path d="M169.833 133.401C168.372 132.096 167.566 130.248 167.566 127.565V117.428H170.966V127.817C170.966 129.419 171.392 130.397 172.123 131.072C172.876 131.799 173.935 132.199 175.12 132.199C176.305 132.199 177.358 131.799 178.117 131.072C178.848 130.397 179.274 129.419 179.274 127.817V117.428H182.674V127.565C182.674 130.243 181.868 132.096 180.407 133.401C179.049 134.602 177.111 135.203 175.12 135.203C173.13 135.203 171.191 134.602 169.833 133.401Z" fill="white"/>
<path d="M183.048 134.951L190.602 117.428H192.995L200.548 134.951H196.999L195.336 131.072H188.26L186.597 134.951H183.048ZM189.543 128.069H194.025L191.787 122.886L189.549 128.069H189.543Z" fill="white"/>
<path d="M201.929 117.428H205.329V131.948H212.756V134.951H201.929V117.428Z" fill="white"/>
<path d="M214.764 117.428H218.164V134.951H214.764V117.428Z" fill="white"/>
<path d="M232.892 117.428V120.431H228.232V134.951H224.832V120.431H220.172V117.428H232.886H232.892Z" fill="white"/>
<path d="M242.959 127.016V134.951H239.559V127.016L233.519 117.428H237.396L241.274 123.589L245.128 117.428H249.006L242.965 127.016H242.959Z" fill="white"/>
<path d="M76.1865 157.732L83.7402 140.208H86.1334L93.6871 157.732H90.1375L88.4749 153.853H81.3987L79.7361 157.732H76.1865ZM82.6816 150.849H87.1632L84.9253 145.666L82.6816 150.849Z" fill="white"/>
<path d="M95.0674 140.208H98.4674V154.728H105.894V157.732H95.0674V140.208Z" fill="white"/>
<path d="M107.902 140.208H111.302V154.728H118.729V157.732H107.902V140.208Z" fill="white"/>
<path d="M120.743 140.208H124.143V157.732H120.743V140.208Z" fill="white"/>
<path d="M125.524 157.732L133.078 140.208H135.471L143.025 157.732H139.475L137.813 153.853H130.737L129.074 157.732H125.524ZM132.02 150.849H136.501L134.263 145.666L132.02 150.849Z" fill="white"/>
<path d="M144.405 140.208H146.799L156.619 151.628V140.208H160.019V157.732H157.626L147.805 146.313V157.732H144.405V140.208Z" fill="white"/>
<path d="M165.553 148.967C165.553 152.371 168.171 154.974 171.571 154.974C173.861 154.974 175.523 153.87 176.559 152.548L178.9 154.625C177.341 156.605 174.724 157.978 171.496 157.978C166.008 157.978 162.153 153.996 162.153 148.967C162.153 143.938 165.956 139.957 171.444 139.957C174.062 139.957 176.306 140.935 177.888 142.462L175.696 144.768C174.637 143.715 173.153 142.966 171.416 142.966C168.067 142.966 165.548 145.643 165.548 148.973L165.553 148.967Z" fill="white"/>
<path d="M184.181 143.212V146.845H189.595V149.848H184.181V154.728H191.608V157.732H180.781V140.208H191.355V143.212H184.181Z" fill="white"/>
<path d="M98.6861 55.693C98.1683 56.0535 97.5873 56.3338 96.9142 56.3967C94.8488 56.5855 93.0194 55.0752 92.8295 53.0214C92.6512 51.1048 93.9916 49.4458 95.8499 49.0739C94.6705 47.2318 93.2783 45.5384 91.6042 44.1138C91.2187 45.5956 89.9703 46.7569 88.348 46.9057C86.2827 47.0945 84.4532 45.5841 84.2634 43.5303C84.1541 42.3404 84.6603 41.2763 85.4715 40.5154C83.5788 39.7602 81.6055 39.1652 79.4769 38.9536C79.2583 38.9307 79.0569 38.9707 78.8383 38.9536C78.8786 39.1195 78.9706 39.2625 78.9821 39.4398C79.172 41.4937 77.6532 43.3072 75.5879 43.496C73.5226 43.6848 71.6989 42.1745 71.509 40.1206C71.4918 39.9604 71.5551 39.8117 71.5608 39.6515C69.3632 40.235 67.3266 41.1676 65.4454 42.3632C66.038 42.9582 66.4694 43.7134 66.5557 44.6116C66.7456 46.6654 65.2268 48.4847 63.1615 48.6734C61.8613 48.7936 60.705 48.1929 59.9456 47.2489C58.6339 48.9023 57.6041 50.773 56.8045 52.7811C58.398 53.09 59.6867 54.3543 59.842 56.0478C60.0319 58.1016 58.5131 59.9151 56.4478 60.1039C56.0393 60.1439 55.6539 60.0639 55.2742 59.978C55.1936 62.0261 55.395 64.0113 55.8552 65.9221C56.2924 65.6876 56.7757 65.5331 57.2992 65.4816C59.3645 65.2928 61.1882 66.8031 61.3781 68.857C61.5391 70.6304 60.4001 72.1579 58.7662 72.6843C59.9456 74.5035 61.3263 76.1912 62.9946 77.5928C63.5067 76.34 64.6457 75.3903 66.0955 75.2587C68.1608 75.0699 69.9845 76.5802 70.1744 78.6341C70.2664 79.6238 69.9442 80.5449 69.3747 81.2714C71.1811 81.9636 73.0623 82.5129 75.0759 82.7131C75.2715 82.7303 75.4556 82.6959 75.6454 82.7131C75.6167 82.5701 75.5361 82.4557 75.5246 82.3069C75.3348 80.2531 76.8535 78.4338 78.9189 78.245C80.9842 78.0562 82.8079 79.5666 82.9977 81.6204C83.0092 81.7577 82.9574 81.8778 82.9574 82.0094C85.0515 81.4545 87.0133 80.5906 88.8255 79.475C88.0718 78.8629 87.5541 77.9704 87.462 76.9292C87.2722 74.8754 88.791 73.0619 90.8563 72.8731C92.3463 72.7358 93.6925 73.5024 94.4059 74.7038C95.7808 73.0275 96.8394 71.1053 97.6735 69.0515C95.7866 69.0114 94.1815 67.6327 94.0031 65.7219C93.8133 63.6681 95.3321 61.8545 97.3974 61.6657C98.0763 61.6028 98.6976 61.7801 99.2786 62.0433C99.3994 59.8522 99.1808 57.724 98.6861 55.6816V55.693ZM91.0749 59.6405C91.0806 59.7092 91.0864 59.7835 91.0921 59.8522C91.1209 60.2641 90.862 60.6588 90.4536 60.7561C89.2339 61.0593 88.2272 62.0204 87.928 63.3248C87.6346 64.6177 88.1179 65.9049 89.0729 66.7059C89.395 66.9748 89.4583 67.4439 89.2454 67.81C89.1879 67.9016 89.1361 67.9931 89.0786 68.0846C88.86 68.4393 88.417 68.611 88.0316 68.4565C86.8695 68.0045 85.5003 68.1933 84.4992 69.0686C83.504 69.9382 83.13 71.254 83.4234 72.4554C83.5212 72.8616 83.2911 73.2735 82.9114 73.4394C82.8021 73.4852 82.6928 73.531 82.5835 73.5767C82.2038 73.7312 81.7608 73.5996 81.5422 73.2621C80.8691 72.2266 79.6552 71.5858 78.3321 71.706C77.0146 71.8261 75.9388 72.6671 75.4671 73.8056C75.3117 74.1832 74.8975 74.3891 74.4948 74.3033C74.374 74.2804 74.259 74.2518 74.1439 74.2232C73.7354 74.126 73.442 73.7655 73.4593 73.3536C73.5226 72.1236 72.9185 70.9051 71.7794 70.2357C70.6403 69.5606 69.2769 69.6178 68.2183 70.2586C67.8617 70.476 67.4014 70.3844 67.1253 70.0755C67.0505 69.9954 66.9757 69.9096 66.9009 69.8238C66.6305 69.5091 66.596 69.04 66.8606 68.7197C67.6373 67.7643 67.8674 66.4198 67.3439 65.2127C66.8204 63.9999 65.6755 63.239 64.4329 63.1475C64.0187 63.1188 63.6965 62.7813 63.6505 62.3751C63.639 62.3007 63.6332 62.2264 63.6275 62.152L63.616 62.0147C63.5757 61.6028 63.8346 61.2195 64.2373 61.1165C65.4454 60.8019 66.4349 59.8522 66.7283 58.5592C67.0217 57.2606 66.5385 55.9734 65.5777 55.1724C65.2556 54.9036 65.1923 54.4344 65.4051 54.074C65.4569 53.9825 65.5144 53.891 65.5662 53.7994C65.7848 53.439 66.2278 53.2674 66.6248 53.4218C67.7869 53.8795 69.1618 53.6907 70.1686 52.8154C71.1811 51.9344 71.5493 50.59 71.2271 49.3771C71.1236 48.9709 71.348 48.5533 71.7334 48.3817C71.8312 48.3416 71.9233 48.2959 72.0211 48.2558C72.4123 48.0899 72.8782 48.2158 73.1026 48.5762C73.77 49.6403 75.0011 50.2982 76.3415 50.1781C77.682 50.0579 78.7808 49.1769 79.2353 48.0098C79.3906 47.6151 79.8221 47.4091 80.2363 47.4949C80.3341 47.5178 80.4377 47.5407 80.5354 47.5636C80.9497 47.6608 81.2488 48.0327 81.22 48.4561C81.128 49.7089 81.7321 50.9675 82.8942 51.6541C84.0505 52.3406 85.4542 52.2719 86.5185 51.5911C86.8752 51.3623 87.347 51.4481 87.6346 51.7628C87.7036 51.8371 87.7727 51.9172 87.836 51.9916C88.1121 52.312 88.1351 52.7868 87.859 53.1129C87.0421 54.074 86.7889 55.4413 87.3239 56.6771C87.8532 57.9071 89.0268 58.6679 90.281 58.7423C90.7009 58.7652 91.0289 59.1027 91.0691 59.5146L91.0806 59.6405H91.0749Z" fill="#7379AD"/>
<path d="M10.1602 101.724C11.4718 103.509 13.5947 104.676 15.9879 104.687C18.3811 104.699 20.5097 103.549 21.8387 101.775C20.527 99.9903 18.4042 98.8232 16.0109 98.8175C13.6119 98.806 11.4891 99.9559 10.1602 101.729V101.724Z" fill="#5BACB8"/>
<path d="M19.7844 113.04C21.867 111.855 23.1326 109.807 23.3915 107.61C21.355 106.718 18.933 106.764 16.8561 107.942C14.7736 109.126 13.5079 111.174 13.249 113.371C15.2856 114.264 17.7018 114.218 19.7844 113.04Z" fill="#5BACB8"/>
<path d="M47.1169 90.7224C45.0343 91.9067 43.7686 93.9548 43.5098 96.1516C45.5463 97.0441 47.9683 96.9983 50.0451 95.8198C52.1277 94.6356 53.3934 92.5875 53.6523 90.3906C51.6157 89.4982 49.1995 89.5439 47.1169 90.7224Z" fill="#5BACB8"/>
<path d="M13.3467 90.0989C13.5883 92.3014 14.8367 94.361 16.9078 95.5624C18.9788 96.7638 21.3951 96.8267 23.4431 95.9514C23.2015 93.7488 21.9531 91.6893 19.8821 90.4879C17.811 89.2865 15.3947 89.2236 13.3467 90.0989Z" fill="#5BACB8"/>
<path d="M42.8308 104.464C44.2633 99.2982 41.2143 93.9549 36.0193 92.5303C30.8244 91.1058 25.4511 94.1379 24.0186 99.3039C22.5861 104.47 25.6352 109.813 30.8302 111.238C36.0251 112.662 41.3984 109.63 42.8308 104.464Z" fill="#5BACB8"/>
<path d="M27.2686 118.395C28.4768 116.335 28.5401 113.932 27.6599 111.896C25.4507 112.136 23.3739 113.377 22.1658 115.437C20.9576 117.496 20.8944 119.899 21.7746 121.936C23.9837 121.695 26.0605 120.454 27.2686 118.395Z" fill="#5BACB8"/>
<path d="M66.4818 105.196C62.1901 104.018 57.8178 105.048 54.5674 107.588C56.0516 111.426 59.2791 114.539 63.5708 115.711C63.6111 115.723 63.6571 115.729 63.6973 115.74C64.4395 114.132 65.0666 112.45 65.5498 110.688C66.0561 108.869 66.3897 107.044 66.5738 105.231C66.5451 105.219 66.5105 105.208 66.4818 105.202V105.196Z" fill="#5BACB8"/>
<path d="M12.4897 107.279C9.27954 104.693 4.91879 103.606 0.609815 104.716C0.396955 104.773 0.201354 104.847 0 104.91C0.339425 108.56 1.28291 112.101 2.76142 115.391C2.96853 115.351 3.16989 115.322 3.37699 115.271C7.68597 114.155 10.9594 111.095 12.4954 107.279H12.4897Z" fill="#5BACB8"/>
<path d="M45.0576 101.873C46.3693 103.657 48.4921 104.825 50.8854 104.836C53.2786 104.847 55.4072 103.697 56.7361 101.924C55.4245 100.139 53.3016 98.972 50.9084 98.9605C48.5152 98.9491 46.3866 100.099 45.0576 101.873Z" fill="#5BACB8"/>
<path d="M0.655713 98.4569C4.94743 99.6354 9.32544 98.6056 12.5701 96.0655C11.0858 92.2268 7.85843 89.1146 3.56672 87.9418C3.37111 87.8903 3.16976 87.8617 2.97416 87.8159C2.20326 89.4636 1.55893 91.1913 1.05267 92.9991C0.569419 94.7497 0.235746 96.506 0.0458984 98.2509C0.247252 98.3196 0.442853 98.3997 0.64996 98.4569H0.655713Z" fill="#5BACB8"/>
<path d="M20.0492 71.7974C21.171 76.0824 24.2489 79.3376 28.0861 80.8651C30.6864 77.6728 31.7852 73.3363 30.6634 69.0513C30.6289 68.9255 30.5829 68.8111 30.5484 68.6909C26.8607 68.9941 23.2881 69.9095 19.9629 71.3569C19.9974 71.5056 20.0147 71.6544 20.0549 71.8031L20.0492 71.7974Z" fill="#5BACB8"/>
<path d="M21.9536 81.6147C21.0562 83.64 21.1022 86.0485 22.2873 88.1137C23.4782 90.1847 25.5377 91.4433 27.7469 91.7008C28.6443 89.6756 28.5983 87.267 27.4132 85.2018C26.2223 83.1308 24.1628 81.8722 21.9536 81.6147Z" fill="#5BACB8"/>
<path d="M30.6925 84.538C30.681 86.9179 31.8373 89.0347 33.6207 90.3562C35.4157 89.0518 36.5893 86.9408 36.6008 84.5609C36.6123 82.181 35.4559 80.0642 33.6725 78.7427C31.8776 80.0471 30.704 82.1581 30.6982 84.538H30.6925Z" fill="#5BACB8"/>
<path d="M6.75947 82.5469C9.88333 85.6991 14.1923 86.9863 18.2827 86.4028C18.927 82.3409 17.6959 78.0445 14.572 74.8922C14.4512 74.7721 14.3189 74.6691 14.1923 74.5547C11.2123 76.6142 8.5659 79.1601 6.37402 82.1178C6.50059 82.2608 6.61565 82.4095 6.75372 82.5526L6.75947 82.5469Z" fill="#5BACB8"/>
<path d="M36.9574 69.0969C35.7722 73.3647 36.8078 77.7126 39.3621 80.945C43.2223 79.469 46.352 76.2595 47.5313 71.9917C47.5543 71.9173 47.5601 71.8429 47.5831 71.7628C45.8745 70.9619 44.0795 70.2868 42.1983 69.7719C40.4897 69.3028 38.7695 68.9767 37.0609 68.7822C37.0264 68.8852 36.9861 68.9825 36.9574 69.0854V69.0969Z" fill="#5BACB8"/>
<path d="M52.9621 75.1669C49.7922 78.2734 48.4978 82.5583 49.0846 86.6259C53.1692 87.2667 57.4897 86.0424 60.6595 82.9359C60.6941 82.9016 60.7171 82.8673 60.7516 82.8387C58.669 79.8638 56.0974 77.2207 53.1059 75.041C53.0599 75.0868 53.0081 75.1268 52.9563 75.1726L52.9621 75.1669Z" fill="#5BACB8"/>
<path d="M14.1812 128.486C17.3511 125.38 18.6455 121.095 18.0587 117.027C13.9741 116.387 9.65365 117.611 6.48376 120.717C6.33994 120.86 6.21913 121.009 6.08105 121.158C8.18664 124.093 10.7697 126.701 13.767 128.847C13.9051 128.727 14.0489 128.618 14.1812 128.486Z" fill="#5BACB8"/>
<path d="M30.1804 134.556C31.3656 130.288 30.33 125.94 27.7757 122.708C23.9155 124.184 20.7858 127.393 19.6065 131.661C19.5605 131.821 19.5374 131.987 19.5029 132.148C21.0677 132.851 22.7073 133.446 24.4102 133.91C26.2857 134.425 28.1727 134.762 30.0481 134.945C30.0884 134.814 30.1402 134.693 30.1804 134.556Z" fill="#5BACB8"/>
<path d="M60.3776 121.112C57.2537 117.96 52.9448 116.673 48.8544 117.256C48.2101 121.318 49.4412 125.614 52.5651 128.767C52.6169 128.818 52.6744 128.864 52.7319 128.915C55.6947 126.816 58.3296 124.23 60.4869 121.238C60.4466 121.198 60.4179 121.152 60.3776 121.112Z" fill="#5BACB8"/>
<path d="M47.0941 131.856C45.9723 127.571 42.8887 124.316 39.0572 122.788C36.4569 125.98 35.3638 130.317 36.4799 134.602C36.5086 134.722 36.5547 134.831 36.5892 134.945C40.2711 134.585 43.8379 133.618 47.1459 132.119C47.1229 132.033 47.1171 131.942 47.0941 131.856Z" fill="#5BACB8"/>
<path d="M63.7659 88.3823C59.4569 89.4978 56.1835 92.5643 54.6475 96.3744C57.8576 98.9603 62.2184 100.047 66.5273 98.9374C66.5619 98.926 66.5906 98.9145 66.6251 98.9088C66.2972 95.236 65.3595 91.6718 63.8752 88.3594C63.8407 88.3708 63.8004 88.3708 63.7659 88.3823Z" fill="#5BACB8"/>
<path d="M39.6438 118.326C40.8346 120.397 42.8942 121.655 45.1033 121.913C46.0008 119.887 45.9548 117.479 44.7697 115.414C43.5788 113.343 41.5192 112.084 39.3101 111.827C38.4126 113.852 38.4587 116.26 39.6438 118.326Z" fill="#5BACB8"/>
<path d="M33.4655 125.031C35.2604 123.727 36.434 121.616 36.4455 119.236C36.457 116.856 35.3007 114.739 33.5172 113.417C31.7223 114.722 30.5487 116.833 30.5372 119.213C30.5257 121.593 31.682 123.709 33.4655 125.031Z" fill="#5BACB8"/>
<path d="M39.7468 85.4475C38.5387 87.5071 38.4754 89.9099 39.3556 91.9465C41.5705 91.7062 43.6416 90.4648 44.8497 88.4052C46.0578 86.3457 46.1211 83.9429 45.2409 81.9062C43.026 82.1465 40.9549 83.388 39.7468 85.4475Z" fill="#5BACB8"/>
<path d="M53.5946 113.469C53.353 111.266 52.1046 109.207 50.0393 108.005C47.9682 106.804 45.552 106.741 43.5039 107.616C43.7455 109.819 44.9939 111.879 47.065 113.08C49.1361 114.281 51.5523 114.344 53.6004 113.469H53.5946Z" fill="#5BACB8"/>
<path d="M42.8887 21.7279C44.1255 22.054 45.3394 22.5231 46.4843 23.1067C46.4843 23.1067 43.7458 27.6663 43.182 28.5873C42.6125 29.5256 41.7438 29.8631 40.7716 29.6057C39.7993 29.3425 39.2183 28.6217 39.1952 27.5233C39.1722 26.4248 39.0859 21.1387 39.0859 21.1387C40.3688 21.1959 41.6575 21.4018 42.8944 21.7279H42.8887Z" fill="#EE6A5E"/>
<path d="M33.6895 55.9103C34.9264 56.2421 36.215 56.4424 37.4979 56.4996C37.4979 56.4996 37.4116 51.1905 37.3886 50.115C37.3656 49.0223 36.7846 48.2957 35.8123 48.0326C34.8401 47.7751 33.9714 48.1184 33.4018 49.0509C32.8323 49.9834 30.0996 54.5316 30.0996 54.5316C31.2445 55.1208 32.4583 55.5842 33.6952 55.9103H33.6895Z" fill="#EE6A5E"/>
<path d="M33.6777 21.7278C34.9146 21.396 36.1975 21.1957 37.4862 21.1328C37.4862 21.1328 37.4057 26.4419 37.3827 27.5174C37.3596 28.6101 36.7786 29.3367 35.8063 29.5998C34.8341 29.8573 33.9654 29.5197 33.3958 28.5815C32.8321 27.6604 30.0879 23.1065 30.0879 23.1065C31.2327 22.5173 32.4466 22.0539 33.6835 21.7221L33.6777 21.7278Z" fill="#EE6A5E"/>
<path d="M42.9004 55.9047C44.1373 55.5729 45.3511 55.1095 46.496 54.5202C46.496 54.5202 43.7518 49.9663 43.188 49.0453C42.6242 48.1242 41.7498 47.7695 40.7775 48.0269C39.8053 48.2901 39.2242 49.0167 39.2012 50.1094C39.1782 51.1849 39.0977 56.4939 39.0977 56.4939C40.3806 56.431 41.6692 56.2308 42.9061 55.899L42.9004 55.9047Z" fill="#EE6A5E"/>
<path d="M25.7043 26.3104C26.6075 25.4122 27.6201 24.5941 28.7016 23.9019C28.7016 23.9019 31.302 28.5415 31.8197 29.4855C32.349 30.4466 32.2109 31.362 31.5033 32.0714C30.79 32.7808 29.8695 32.9181 28.903 32.3917C27.9537 31.8769 23.2881 29.291 23.2881 29.291C23.9842 28.2155 24.8011 27.2086 25.7043 26.3047V26.3104Z" fill="#EE6A5E"/>
<path d="M50.8739 51.3221C51.7771 50.4239 52.5998 49.417 53.2901 48.3358C53.2901 48.3358 48.6245 45.7556 47.6752 45.235C46.726 44.7144 45.7882 44.846 45.0749 45.5554C44.3615 46.2648 44.2292 47.1802 44.7585 48.1413C45.2762 49.0852 47.8766 53.7249 47.8766 53.7249C48.9581 53.0327 49.9707 52.2203 50.8739 51.3164V51.3221Z" fill="#EE6A5E"/>
<path d="M21.1023 34.245C21.4302 33.015 21.902 31.8079 22.4888 30.6694C22.4888 30.6694 27.0739 33.3926 28.0001 33.9533C28.9436 34.5196 29.283 35.3835 29.0242 36.3503C28.7595 37.3172 28.0346 37.895 26.9301 37.9179C25.8485 37.9408 20.5098 38.0266 20.5098 38.0266C20.5673 36.7508 20.7744 35.4693 21.1023 34.2393V34.245Z" fill="#EE6A5E"/>
<path d="M55.4759 43.3932C55.8095 42.1632 56.0109 40.8817 56.0684 39.606C56.0684 39.606 50.7297 39.6918 49.6481 39.7147C48.5493 39.7375 47.8187 40.3154 47.554 41.2822C47.2951 42.249 47.6403 43.1129 48.5781 43.6793C49.5158 44.2456 54.0894 46.9631 54.0894 46.9631C54.682 45.8246 55.1479 44.6175 55.4759 43.3875V43.3932Z" fill="#EE6A5E"/>
<path d="M21.1022 43.4045C20.7685 42.1745 20.5672 40.8987 20.5039 39.6172C20.5039 39.6172 25.8427 39.6973 26.9242 39.7202C28.0058 39.743 28.7537 40.3209 29.0183 41.2877C29.2772 42.2545 28.9378 43.1184 27.9943 43.6848C27.068 44.2454 22.4887 46.9743 22.4887 46.9743C21.8961 45.8359 21.4301 44.6287 21.0965 43.3987L21.1022 43.4045Z" fill="#EE6A5E"/>
<path d="M55.4697 34.2338C55.1361 33.0038 54.6701 31.7967 54.0775 30.6582C54.0775 30.6582 49.4982 33.3871 48.5719 33.9477C47.6457 34.5084 47.289 35.378 47.5479 36.3448C47.8125 37.3117 48.5432 37.8895 49.642 37.9124C50.7408 37.9353 56.0623 38.0153 56.0623 38.0153C55.999 36.7396 55.7977 35.4581 55.464 34.2281L55.4697 34.2338Z" fill="#EE6A5E"/>
<path d="M25.7101 51.3339C24.8069 50.4357 23.9842 49.4288 23.2881 48.3533C23.2881 48.3533 27.9537 45.7674 28.903 45.2525C29.8695 44.7262 30.79 44.8635 31.5033 45.5672C32.2167 46.2766 32.349 47.1919 31.8255 48.153C31.302 49.1142 28.7074 53.7367 28.7074 53.7367C27.6258 53.0445 26.6133 52.2321 25.7043 51.3339H25.7101Z" fill="#EE6A5E"/>
<path d="M50.8619 26.3047C49.9587 25.4065 48.9462 24.5884 47.8588 23.9019C47.8588 23.9019 45.2643 28.5415 44.7407 29.4855C44.2115 30.4466 44.3495 31.362 45.0629 32.0714C45.7763 32.7808 46.6967 32.9123 47.6632 32.386C48.6125 31.8711 53.2781 29.2853 53.2781 29.2853C52.582 28.2097 51.7651 27.2028 50.8561 26.3047H50.8619Z" fill="#EE6A5E"/>
<path d="M38.251 45.9503C42.2449 45.9503 45.4825 42.7307 45.4825 38.7591C45.4825 34.7875 42.2449 31.5679 38.251 31.5679C34.2572 31.5679 31.0195 34.7875 31.0195 38.7591C31.0195 42.7307 34.2572 45.9503 38.251 45.9503Z" fill="#EE6A5E"/>
<path d="M70.7212 11.1267C71.8718 7.19069 72.1019 3.54644 71.5554 1.34388C70.6349 1.29239 69.4095 1.80155 68.4258 2.88853C69.2887 5.37143 69.795 8.15181 70.0884 10.8178C70.307 10.9093 70.5141 11.0123 70.7212 11.1267Z" fill="#A2C852"/>
<path d="M68.8462 10.4573C68.5758 6.36681 67.5345 2.86559 66.2689 0.983398C65.3887 1.24656 64.4107 2.14475 63.8584 3.49489C65.521 5.53727 66.9592 7.9744 68.1501 10.3829C68.386 10.3944 68.6219 10.4172 68.8462 10.4573Z" fill="#A2C852"/>
<path d="M64.4102 11.5501C64.5943 11.4071 64.7899 11.2812 64.9912 11.1611C62.1435 8.20335 59.0829 6.18385 56.891 5.54883C56.3848 6.31544 56.2179 7.62553 56.6724 9.01572C59.267 9.51345 61.9421 10.4688 64.4102 11.5501Z" fill="#A2C852"/>
<path d="M66.8612 10.4742C65.2043 6.7213 63.0182 3.78646 61.1773 2.44775C60.4409 2.99696 59.8311 4.16976 59.7793 5.6286C62.0402 6.97875 64.2321 8.78657 66.1766 10.6402C66.401 10.5715 66.6253 10.5143 66.8612 10.4742Z" fill="#A2C852"/>
<path d="M63.0643 13.003C63.1909 12.8085 63.329 12.6197 63.4785 12.4366C59.7851 10.6231 56.2125 9.77068 53.9344 9.91942C53.7215 10.8119 54.0149 12.0991 54.9181 13.249C57.5242 12.8371 60.3719 12.8199 63.0643 12.9973V13.003Z" fill="#A2C852"/>
<path d="M72.2576 12.3908C74.6968 9.08405 76.1581 5.73729 76.4054 3.48324C75.5598 3.12282 74.2308 3.18575 72.9364 3.87227C72.8904 6.49818 72.4129 9.28428 71.7686 11.893C71.9411 12.0532 72.1022 12.2191 72.2576 12.3965V12.3908Z" fill="#A2C852"/>
<path d="M73.5692 15.3485C73.598 15.5773 73.6153 15.8119 73.6153 16.0464C77.6193 15.0739 80.9043 13.4434 82.5496 11.8759C82.1354 11.0578 81.0768 10.2568 79.6386 9.95361C77.907 11.9388 75.7381 13.7638 73.5635 15.3485H73.5692Z" fill="#A2C852"/>
<path d="M83.1189 17.1105C83.0096 16.2009 82.2963 15.091 81.0479 14.313C78.7409 15.5888 76.0715 16.567 73.4827 17.3165C73.4309 17.5453 73.3677 17.7684 73.2871 17.9858C77.3832 18.4321 81.0306 18.0202 83.1189 17.1048V17.1105Z" fill="#A2C852"/>
<path d="M73.2642 14.0957C76.6872 11.8188 79.2185 9.16999 80.2253 7.13905C79.5522 6.50974 78.2866 6.12072 76.8311 6.32095C75.8876 8.77524 74.4781 11.2295 72.9766 13.4607C73.0859 13.6667 73.1779 13.8783 73.2642 14.1014V14.0957Z" fill="#A2C852"/>
<path d="M62.5119 18.0604C59.0889 20.3373 56.5576 22.9861 55.5508 25.0171C56.2239 25.6464 57.4895 26.0354 58.945 25.8352C59.8885 23.3809 61.298 20.9266 62.7995 18.6954C62.6902 18.4895 62.5982 18.2778 62.5119 18.0547V18.0604Z" fill="#A2C852"/>
<path d="M68.915 21.682C70.5719 25.435 72.758 28.3698 74.599 29.7085C75.3354 29.1593 75.9452 27.9865 75.9969 26.5277C73.736 25.1775 71.5441 23.3697 69.5996 21.5161C69.3753 21.5848 69.1509 21.642 68.915 21.682Z" fill="#A2C852"/>
<path d="M71.3662 20.6064C71.1821 20.7495 70.9865 20.8753 70.7852 20.9955C73.6329 23.9532 76.6935 25.9727 78.8853 26.6077C79.3916 25.8411 79.5584 24.531 79.1039 23.1408C76.5094 22.6431 73.8342 21.6877 71.3662 20.6064Z" fill="#A2C852"/>
<path d="M72.7121 19.1474C72.5855 19.3419 72.4474 19.5307 72.2979 19.7137C75.9913 21.5273 79.5638 22.3797 81.842 22.231C82.0549 21.3385 81.7615 20.0513 80.8583 18.9014C78.2522 19.3133 75.4045 19.3304 72.7121 19.1531V19.1474Z" fill="#A2C852"/>
<path d="M54.7283 17.8371C57.0352 16.5613 59.7046 15.583 62.2934 14.8336C62.3452 14.6047 62.4085 14.3816 62.4891 14.1642C58.3929 13.718 54.7456 14.1299 52.6572 15.0453C52.7665 15.9549 53.4799 17.0647 54.7283 17.8428V17.8371Z" fill="#A2C852"/>
<path d="M66.9248 21.6934C67.1952 25.7838 68.2365 29.2851 69.5021 31.1672C70.3823 30.9041 71.3603 30.0059 71.9126 28.6558C70.25 26.6134 68.8118 24.1763 67.6209 21.7677C67.385 21.7563 67.1492 21.7334 66.9248 21.6934Z" fill="#A2C852"/>
<path d="M62.2069 16.8073C62.1782 16.5785 62.1609 16.3439 62.1609 16.1094C58.1569 17.0819 54.8719 18.7124 53.2266 20.2799C53.6408 21.098 54.6993 21.899 56.1376 22.2022C57.8692 20.217 60.0381 18.392 62.2127 16.8073H62.2069Z" fill="#A2C852"/>
<path d="M65.0551 21.0298C63.9045 24.9658 63.6744 28.61 64.2209 30.8126C65.1414 30.8641 66.3668 30.3549 67.3506 29.268C66.4876 26.7851 65.9814 24.0047 65.688 21.3387C65.4693 21.2472 65.2622 21.1442 65.0551 21.0298Z" fill="#A2C852"/>
<path d="M63.519 19.7655C61.0797 23.0722 59.6185 26.419 59.3711 28.673C60.2168 29.0334 61.5457 28.9705 62.8401 28.284C62.8862 25.6581 63.3637 22.872 64.008 20.2632C63.8354 20.103 63.6743 19.9371 63.519 19.7598V19.7655Z" fill="#A2C852"/>
</g>
<defs>
<clipPath id="clip0_782_47581">
<rect width="249" height="157" fill="white" transform="translate(0 0.983398)"/>
</clipPath>
</defs>
</svg>
