<svg width="41" height="41" viewBox="0 0 41 41" fill="none" xmlns="http://www.w3.org/2000/svg">
<path d="M37.9896 11.1937C37.8291 11.2461 37.7211 11.2461 37.5573 11.3018C35.7791 11.8945 34.8621 13.7808 35.3992 15.5623C35.992 17.3962 37.8783 18.3656 39.6598 17.7728C39.7678 17.7204 39.9283 17.6648 40.0364 17.6124C40.1968 18.5293 40.2525 19.4987 40.2525 20.4713C40.2525 21.4439 40.2001 22.4133 40.0364 23.3826C39.9283 23.327 39.7678 23.2746 39.6598 23.2222C37.8259 22.6294 35.992 23.5988 35.3992 25.3803C34.8065 27.1585 35.7234 29.1005 37.5573 29.6932C37.6654 29.7489 37.8259 29.7489 37.9339 29.8013C37.017 31.4715 35.8839 33.0368 34.5903 34.3828C34.5379 34.2747 34.4299 34.1667 34.3742 34.0586C33.2411 32.4932 31.1386 32.1723 29.6289 33.3021C28.1192 34.3795 27.7426 36.5376 28.8725 38.0473C28.9249 38.1554 29.0329 38.2635 29.141 38.3716C27.4152 39.1804 25.5813 39.8289 23.6949 40.1498V39.7175C23.6949 37.7755 22.1328 36.3215 20.2989 36.3215C18.465 36.3215 16.9029 37.7788 16.9029 39.7175V40.1498C15.0166 39.8256 13.1827 39.1804 11.4569 38.3716C11.565 38.2635 11.673 38.1554 11.7254 38.0473C12.8028 36.4852 12.4262 34.4352 10.9689 33.3021C9.40356 32.169 7.30111 32.4932 6.22369 34.0586C6.17129 34.1667 6.06323 34.2747 6.00755 34.3828C4.65832 33.0336 3.5285 31.4715 2.61154 29.7456C2.77201 29.69 2.88008 29.69 3.04382 29.6376C4.87773 29.0448 5.79469 27.1585 5.20194 25.377C4.6092 23.5988 2.77529 22.5737 0.941377 23.1665C0.833308 23.2189 0.67284 23.2746 0.564771 23.327C0.404304 22.41 0.348633 21.4407 0.348633 20.468C0.348633 19.4954 0.401029 18.526 0.564771 17.5567C0.67284 17.6091 0.833308 17.6648 0.941377 17.7172C2.71961 18.3099 4.66159 17.3406 5.20194 15.559C5.79469 13.7808 4.82534 11.8388 3.04382 11.2985C2.93576 11.2428 2.77529 11.2428 2.61154 11.1904C3.5285 9.46457 4.66159 7.90247 6.00755 6.55324C6.05995 6.66131 6.16802 6.76938 6.22369 6.87745C7.35678 8.44282 9.51163 8.71136 10.9689 7.63394C12.531 6.55652 12.8552 4.45407 11.7254 2.8887C11.6697 2.78063 11.565 2.67256 11.4569 2.56449C13.1827 1.75561 15.0166 1.10719 16.9029 0.786255V1.21853C16.9029 3.10484 18.4126 4.61454 20.2989 4.61454C22.1852 4.61454 23.6949 3.10484 23.6949 1.21853V0.786255C25.5813 1.11046 27.4152 1.75561 29.141 2.56449C29.0329 2.67256 28.9805 2.78063 28.8725 2.8887C27.7394 4.45407 28.1192 6.55652 29.6289 7.63394C31.1386 8.76703 33.2411 8.44282 34.3742 6.87745C34.4299 6.76938 34.5347 6.66131 34.5903 6.55324C35.9396 7.90247 37.0694 9.46457 37.9863 11.1904L37.9896 11.1937ZM20.3055 30.119C22.8402 30.119 22.6241 32.7618 24.1338 32.3295C25.5354 31.8972 23.9176 29.7424 25.9677 28.2851C28.0177 26.7754 29.4718 29.0383 30.3887 27.8004C31.3057 26.5592 28.6629 25.8584 29.4718 23.4317C30.2282 21.0575 32.8154 21.922 32.7597 20.4647C32.7073 18.847 30.225 19.872 29.4718 17.4977C28.6629 15.0711 31.25 14.4259 30.3887 13.1848C29.4718 11.9436 28.0177 14.1541 25.9677 12.6444C23.9176 11.1871 25.5354 9.03229 24.1338 8.60002C22.6241 8.16774 22.8402 10.8105 20.3055 10.8105C17.7708 10.8105 17.9345 8.16774 16.4772 8.60002C14.9675 9.08469 16.6933 11.1871 14.6433 12.6444C12.5932 14.1541 11.0312 11.9436 10.2223 13.1291C9.36098 14.4227 11.9481 15.0711 11.1392 17.4977C10.386 19.8687 7.85128 18.8994 7.85128 20.4091C7.85128 21.9188 10.386 20.9494 11.1392 23.3204C11.9481 25.7471 9.36098 26.3922 10.2223 27.689C11.0312 28.8745 12.5965 26.664 14.6433 28.1737C16.6933 29.631 14.9675 31.8415 16.4772 32.3262C17.9345 32.7585 17.7708 30.1157 20.3055 30.1157V30.119Z" fill="#73932F"/>
</svg>
