<?xml version="1.0" encoding="UTF-8"?>
<svg width="1200pt" height="1200pt" version="1.1" viewBox="0 0 1200 1200" xmlns="http://www.w3.org/2000/svg">
 <path d="m1030.8 249.61h-861.56c-7.5469 0-13.688 6.1406-13.688 13.688v601.92c0 7.5469 6.1406 13.688 13.688 13.688h861.61c7.5469 0 13.688-6.1406 13.688-13.688l-0.046875-601.92c0-7.5938-6.0938-13.688-13.688-13.688zm-13.641 601.78h-834.28v-574.55h834.37v574.55zm137.16 69.375c-5.8594-9.2344-15.938-14.625-26.859-14.625h-28.453l-0.046875-640.6c0-38.859-31.547-70.453-70.453-70.453l-857.02 0.046875c-38.859 0-70.453 31.547-70.453 70.453l0.046875 640.4h-28.453c-10.922 0-21 5.5312-26.859 14.625-5.8594 9.2344-6.6094 20.625-2.0625 30.609 16.078 34.688 41.391 53.766 71.297 53.766h969.94c29.859 0 55.219-19.078 71.297-53.766 4.6406-9.9375 3.9375-21.375-1.9219-30.469zm-1026-655.22c0-23.859 19.312-43.219 43.219-43.219h857.06c23.859 0 43.219 19.312 43.219 43.219l-0.09375 640.45h-943.4zm570.71 667.82c-2.625 4.7812-6.1406 8.5312-9.4688 8.5312l-179.06-0.046876c-3.2344 0-6.8438-3.7031-9.4688-8.5312zm432.61 6.3281c-8.0625 17.297-22.688 37.922-46.547 37.922h-970.13c-23.859 0-38.531-20.625-46.547-37.922-0.9375-2.0625-0.23438-3.6094 0.23438-4.4531s1.6875-2.0625 3.8438-2.0625h399.24c4.9219 17.766 18.609 35.859 38.625 35.859h179.06c19.922 0 33.703-18 38.625-35.859h399.24c2.1562 0 3.375 1.3125 3.8438 2.0625 0.75 0.89062 1.3594 2.5312 0.51562 4.4531zm-846.47-396.47 113.86 43.922v99.141c0 13.781 7.3125 25.922 19.547 32.297 52.547 27.375 115.31 41.859 181.45 41.859 66.141 0 128.86-14.531 181.45-41.859 12.234-6.375 19.547-18.469 19.547-32.297v-99l54.375-21v87.844h-4.4531c-13.781 0-24.938 11.156-24.938 24.938v33.609c0 23.766 19.312 43.078 43.078 43.078 23.766 0 43.078-19.312 43.078-43.078v-33.609c0-13.781-11.156-24.938-24.938-24.938h-4.4531l-0.046874-98.531 32.297-12.469c12.375-4.7812 20.391-16.453 20.391-29.625 0-13.312-8.0625-24.938-20.391-29.625l-285.37-110.16c-19.547-7.5469-39.375-7.5469-58.922 0l-285.37 110.16c-12.375 4.7812-20.391 16.453-20.391 29.625-0.23438 13.266 7.8281 24.938 20.203 29.719zm599.63 169.45c0 8.7656-7.0781 15.844-15.844 15.844s-15.844-7.0781-15.844-15.844v-31.312h31.547v31.312zm-111.14-26.531c0 3.6094-1.6875 6.375-4.9219 8.0625-48.703 25.312-107.06 38.766-168.84 38.766-61.781 0-120.14-13.453-168.84-38.766-3.2344-1.6875-4.9219-4.4531-4.9219-8.0625v-88.547l144.24 55.688c9.7031 3.7031 19.547 5.625 29.531 5.625 9.8438 0 19.688-1.9219 29.531-5.625l144.24-55.688zm-478.69-176.86 285.37-110.16c6.6094-2.5312 13.078-3.8438 19.688-3.8438 6.4688 0 13.078 1.3125 19.688 3.8438l285.37 110.16c2.3906 0.9375 2.8594 2.7656 2.8594 4.2188s-0.46875 3.375-2.8594 4.2188l-47.625 18.375-255.47-36.141c-7.4531-1.0781-14.391 4.0781-15.375 11.625-1.0781 7.4531 4.0781 14.391 11.625 15.375l207.14 29.297-185.53 71.625c-13.219 5.1562-26.062 5.0625-39.234 0l-285.37-110.16c-2.3906-0.9375-2.8594-2.7656-2.8594-4.2188-0.28125-1.4531 0.1875-3.2812 2.5781-4.2188z" fill="#fff"/>
</svg>
