<svg width="100" height="39" viewBox="0 0 100 39" fill="none" xmlns="http://www.w3.org/2000/svg">
<rect x="0.5" y="0.625" width="99" height="37" fill="#44929F"/>
<rect x="0.5" y="0.625" width="99" height="37" stroke="#2C2D3B"/>
<path d="M19.42 11.525V22.415H25V24.125H17.62V11.525H19.42ZM26.3416 24.125V15.665H28.0516V24.125H26.3416ZM26.0716 12.659C26.0716 12.029 26.5576 11.525 27.1876 11.525C27.8176 11.525 28.3216 12.029 28.3216 12.659C28.3216 13.289 27.8176 13.775 27.1876 13.775C26.5576 13.775 26.0716 13.289 26.0716 12.659ZM32.2212 15.665V16.475C32.6712 16.043 33.5352 15.485 34.7592 15.485C36.0012 15.485 37.1172 16.061 37.8372 16.979C38.3772 17.663 38.6652 18.527 38.6652 19.985V24.125H36.9552V19.895C36.9552 18.815 36.7572 18.311 36.4512 17.933C36.0552 17.429 35.4072 17.105 34.7052 17.105C33.5892 17.105 32.7792 17.699 32.2752 18.311V24.125H30.5652V15.665H32.2212ZM44.4316 19.481L49.2016 24.125H46.9156L42.7216 19.985V24.125H41.0116V11.345H42.7216V18.905L46.2496 15.665H48.6616L44.4316 19.481ZM57.2751 20.255H50.7591C50.8491 21.677 52.0191 22.811 53.4951 22.811C54.7551 22.811 55.4391 22.199 55.9251 21.659L57.0411 22.721C56.4111 23.531 55.2051 24.305 53.4771 24.305C51.0111 24.305 49.1031 22.433 49.1031 19.895C49.1031 17.357 50.8311 15.485 53.2251 15.485C55.5831 15.485 57.2931 17.393 57.2931 19.895C57.2931 19.967 57.2931 20.093 57.2751 20.255ZM53.2791 16.979C52.1811 16.979 51.1911 17.717 50.9031 18.815H55.5111C55.2591 17.735 54.2871 16.979 53.2791 16.979ZM65.2657 24.125V23.351C64.5817 23.963 63.6637 24.305 62.6557 24.305C61.8997 24.305 61.1077 24.089 60.5317 23.747C59.2537 22.991 58.3717 21.587 58.3717 19.895C58.3717 18.203 59.2717 16.781 60.5497 16.025C61.1257 15.683 61.8277 15.485 62.6197 15.485C63.5377 15.485 64.4557 15.773 65.2117 16.403V11.345H66.9217V24.125H65.2657ZM65.2117 21.479V18.311C64.6897 17.627 63.8257 17.105 62.7997 17.105C61.1617 17.105 60.0817 18.419 60.0817 19.895C60.0817 21.407 61.2517 22.685 62.8897 22.685C63.7537 22.685 64.6357 22.253 65.2117 21.479ZM69.5402 24.125V11.525H71.3402V24.125H69.5402ZM75.6111 15.665V16.475C76.0611 16.043 76.9251 15.485 78.1491 15.485C79.3911 15.485 80.5071 16.061 81.2271 16.979C81.7671 17.663 82.0551 18.527 82.0551 19.985V24.125H80.3451V19.895C80.3451 18.815 80.1471 18.311 79.8411 17.933C79.4451 17.429 78.7971 17.105 78.0951 17.105C76.9791 17.105 76.1691 17.699 75.6651 18.311V24.125H73.9551V15.665H75.6111Z" fill="white"/>
</svg>
