<svg width="33" height="32" viewBox="0 0 33 32" fill="none" xmlns="http://www.w3.org/2000/svg">
<path d="M7.14775 19.6194L1.86217 21.9936C1.48556 21.0243 1.10568 19.8912 0.892814 18.65C0.676675 17.5169 0.676675 16.3838 0.732347 15.254L6.50261 15.7944C7.47196 15.9024 7.95991 16.4952 8.17278 17.4678C8.33324 18.3848 8.12038 19.1936 7.14775 19.6227V19.6194ZM6.6074 14.3895L0.837142 13.9048C0.945211 12.8274 1.21375 11.6419 1.64603 10.5612C2.07831 9.42808 2.56298 8.35066 3.15573 7.43371L7.95336 10.7216C8.76225 11.3144 8.87032 12.1233 8.54611 13.0402C8.2219 13.9572 7.62915 14.4975 6.60413 14.3895H6.6074ZM10.2719 23.8243L6.92834 28.5695C6.06706 27.8687 5.2025 27.1122 4.44929 26.1985C3.6404 25.2292 2.99198 24.2565 2.50731 23.3396L7.73722 20.8605C8.65418 20.4283 9.40739 20.6444 10.0558 21.4533C10.7042 22.2065 10.809 23.0154 10.2719 23.8243ZM8.70985 9.64422L3.96461 6.24822C4.66543 5.43933 5.47431 4.57805 6.39127 3.76917C7.25255 2.96028 8.27757 2.36754 9.2502 1.88286L11.6769 7.11277C12.1091 8.02973 11.893 8.78294 11.0841 9.43136C10.3309 10.0798 9.52201 10.1846 8.71312 9.6475L8.70985 9.64422ZM15.0172 25.9267L14.4768 31.697C13.4518 31.5889 12.2663 31.2647 11.1332 30.8881C10.0001 30.4558 8.97511 29.9711 8.06143 29.326L11.3494 24.5808C11.9421 23.7719 12.751 23.6638 13.668 23.988C14.5849 24.3122 15.1253 24.905 15.0172 25.93V25.9267ZM16.5826 22.4783C20.1947 22.4783 23.106 19.567 23.106 15.9548C23.106 12.3427 20.1947 9.43136 16.5826 9.43136C12.9704 9.43136 10.0591 12.3427 10.0591 15.9548C10.0591 19.567 12.9704 22.4783 16.5826 22.4783ZM12.9147 6.51675L10.4881 1.28684C11.5131 0.85456 12.6462 0.530351 13.8317 0.317487C14.9648 0.15702 16.1503 0.0489502 17.2834 0.0489502L16.743 5.87161C16.635 6.84096 16.0422 7.32891 15.0729 7.54178C14.1559 7.70224 13.347 7.43371 12.9147 6.51675ZM20.2471 25.3896L22.6738 30.5672C21.6487 31.0518 20.5713 31.376 19.3301 31.5922C18.1971 31.7526 17.0116 31.8607 15.9341 31.8607L16.4188 26.0381C16.4712 25.0687 17.1196 24.5808 18.089 24.3679C19.0059 24.2074 19.8148 24.476 20.2471 25.3929V25.3896ZM18.1447 5.97641L18.685 0.206142C19.71 0.314212 20.8955 0.638421 22.0286 1.01503C23.1617 1.44731 24.1867 1.93198 25.1004 2.57712L21.8125 7.32236C21.2197 8.13125 20.4108 8.23932 19.4939 7.91511C18.5769 7.5909 18.0366 6.99815 18.1447 5.97313V5.97641ZM24.4553 22.2622L29.2005 25.6582C28.4997 26.4671 27.6908 27.3283 26.7738 28.1372C25.9126 28.9461 24.8875 29.5389 23.9149 30.0235L21.4883 24.7936C21.056 23.8767 21.2721 23.1234 22.081 22.475C22.8375 21.8266 23.6464 21.7218 24.4553 22.2589V22.2622ZM22.8899 8.07885L26.2335 3.33361C27.0948 4.03443 27.9037 4.79091 28.7125 5.76027C29.469 6.67722 30.1699 7.64657 30.6545 8.56353L25.4246 11.0426C24.5077 11.4749 23.7544 11.2587 23.106 10.4498C22.4576 9.69662 22.3495 8.88774 22.8899 8.07885ZM26.5577 17.5169L32.328 18.0573C32.2199 19.0823 31.8957 20.2678 31.5191 21.4009C31.0868 22.534 30.6021 23.559 29.957 24.4727L25.2118 21.1847C24.4029 20.592 24.2948 19.7831 24.619 18.8662C24.9432 17.9492 25.536 17.4089 26.561 17.5169H26.5577ZM26.0174 12.287L31.3029 9.91603C31.6796 10.8854 32.0562 12.0185 32.2723 13.2596C32.4884 14.3927 32.4884 15.5258 32.4328 16.6556L26.6625 16.1153C25.6932 16.0072 25.2052 15.4145 24.9923 14.4419C24.8319 13.5249 25.0447 12.716 26.0174 12.287Z" fill="#EC5447"/>
</svg>
