<svg version="1.1" id="Layer_1" xmlns="http://www.w3.org/2000/svg" xmlns:xlink="http://www.w3.org/1999/xlink" x="0px" y="0px"
	 viewBox="0 0 509.1 351.1" style="enable-background:new 0 0 509.1 351.1;" xml:space="preserve">
<style type="text/css">
	.st0{fill:none;stroke:#FFFFFF;stroke-width:0.953;stroke-miterlimit:10;}
	.st1{fill:#FFFFFF;}
	.st2{fill:#EC5447;stroke:#FFFFFF;stroke-miterlimit:10;}
	.st3{font-family:'Brown';}
	.st4{font-size:21.6105px;}
	.st5{fill:none;stroke:#FFFFFF;stroke-width:0.8042;stroke-miterlimit:10;}
</style>
<g>
	<path class="st0" d="M352.4,183.1c0,54.5-44.2,98.6-98.6,98.6s-98.6-44.2-98.6-98.6s44.2-98.6,98.6-98.6S352.4,128.6,352.4,183.1z"
		/>
	<path class="st1" d="M219.9,1.1c1.2,0,2.4,0.5,3.2,1.3l-0.8,0.8c-0.5-0.6-1.4-1-2.3-1c-1.8,0-3.1,1.4-3.1,3.3s1.4,3.3,3.2,3.3
		c1.2,0,2-0.6,2.5-1.2l0.9,0.8c-0.7,1-2,1.6-3.4,1.6c-2.6,0-4.5-1.9-4.5-4.5C215.6,3,217.4,1.1,219.9,1.1L219.9,1.1z"/>
	<path class="st1" d="M228.6,1.1c2.4,0,4.3,1.9,4.3,4.5c0,2.5-1.9,4.5-4.3,4.5c-2.4,0-4.3-1.9-4.3-4.5C224.3,3,226.2,1.1,228.6,1.1z
		 M228.6,8.8c1.8,0,3.1-1.4,3.1-3.3s-1.3-3.3-3.1-3.3c-1.8,0-3.1,1.4-3.1,3.3S226.8,8.8,228.6,8.8z"/>
	<path class="st1" d="M239.4,8h-0.9L236,4v5.8h-1.2V1.2h0.9l3.3,5.3l3.3-5.3h0.9v8.7h-1.2V4L239.4,8L239.4,8z"/>
	<path class="st1" d="M250.3,8h-0.9l-2.5-4v5.8h-1.2V1.2h0.9l3.3,5.3l3.3-5.3h0.9v8.7h-1.2V4L250.3,8L250.3,8z"/>
	<path class="st1" d="M260.7,4.6v1.2h-2.8v2.9h3.8v1.2h-5.1V1.2h4.9v1.2h-3.7v2.2L260.7,4.6L260.7,4.6z"/>
	<path class="st1" d="M264.9,5.8v4.1h-1.2V1.2h3c0.8,0,1.3,0.2,1.7,0.5c0.5,0.4,0.9,1.1,0.9,1.8s-0.3,1.4-0.9,1.8
		c-0.3,0.2-0.6,0.4-1,0.5l3.1,4.1h-1.5l-3.1-4.1H264.9L264.9,5.8z M266.6,4.6c0.6,0,0.8-0.1,1-0.3c0.2-0.2,0.3-0.5,0.3-0.8
		s-0.1-0.6-0.3-0.8c-0.2-0.2-0.5-0.3-1-0.3h-1.7v2.2L266.6,4.6L266.6,4.6z"/>
	<path class="st1" d="M275.2,1.1c1.2,0,2.4,0.5,3.2,1.3l-0.8,0.8c-0.5-0.6-1.4-1-2.3-1c-1.8,0-3.1,1.4-3.1,3.3s1.4,3.3,3.2,3.3
		c1.2,0,2-0.6,2.5-1.2l0.9,0.8c-0.7,1-2,1.6-3.4,1.6c-2.6,0-4.5-1.9-4.5-4.5C270.9,3,272.7,1.1,275.2,1.1L275.2,1.1z"/>
	<path class="st1" d="M280.4,1.2h1.2v8.7h-1.2V1.2z"/>
	<path class="st1" d="M288.9,7.6h-3.7l-0.9,2.2h-1.3l3.6-8.7h0.9l3.6,8.7h-1.3L288.9,7.6L288.9,7.6z M285.8,6.5h2.7l-1.3-3.2
		L285.8,6.5z"/>
	<path class="st1" d="M293.8,8.7h3.8v1.2h-5.1V1.2h1.2V8.7z"/>
	<path class="st1" d="M217.7,23.4v-8.7h2.9c0.8,0,1.4,0.2,1.8,0.6c0.4,0.4,0.7,1,0.7,1.6c0,0.6-0.3,1.2-0.7,1.5
		c0.8,0.4,1.4,1.3,1.4,2.3c0,0.8-0.4,1.5-1,2c-0.4,0.4-1,0.6-1.9,0.6L217.7,23.4L217.7,23.4z M220.5,18.1c0.7,0,1-0.1,1.2-0.4
		c0.2-0.2,0.3-0.5,0.3-0.8c0-0.3-0.1-0.6-0.3-0.8c-0.2-0.2-0.5-0.4-1.2-0.4H219v2.2L220.5,18.1L220.5,18.1z M220.9,22.2
		c0.8,0,1.2-0.2,1.4-0.4c0.2-0.3,0.4-0.6,0.4-1c0-0.4-0.2-0.7-0.4-1c-0.3-0.3-0.6-0.4-1.4-0.4H219v2.9H220.9z"/>
	<path class="st1" d="M226.5,22.4c-0.6-0.6-0.9-1.4-0.9-2.6v-5.1h1.2v5.1c0,0.8,0.2,1.3,0.5,1.7c0.4,0.5,1.1,0.8,1.8,0.8
		c0.7,0,1.4-0.3,1.8-0.8c0.3-0.4,0.5-0.9,0.5-1.7v-5.1h1.2v5.1c0,1.2-0.3,2-0.9,2.6c-0.7,0.7-1.6,1.1-2.7,1.1
		C228.1,23.5,227.1,23.1,226.5,22.4z"/>
	<path class="st1" d="M235.1,21.2c0.5,0.6,1.2,1.1,2.1,1.1c0.8,0,1.5-0.5,1.5-1.3c0-1.3-1.8-1.5-3-2.2c-0.6-0.4-1.1-1-1.1-1.9
		c0-1.3,1.1-2.3,2.6-2.3c1.1,0,1.9,0.5,2.3,0.9l-0.7,0.9c-0.5-0.4-1-0.6-1.5-0.6c-0.7,0-1.4,0.4-1.4,1.2c0,1.1,1.8,1.3,3,2.1
		c0.6,0.4,1.1,1,1.1,2c0,1.5-1.2,2.5-2.7,2.5c-1.2,0-2.3-0.5-3-1.4L235.1,21.2L235.1,21.2z"/>
	<path class="st1" d="M241.9,14.7h1.2v8.7h-1.2V14.7z"/>
	<path class="st1" d="M246.9,17v6.4h-1.2v-8.7h0.9l5.2,6.4v-6.4h1.2v8.7H252L246.9,17z"/>
	<path class="st1" d="M259.5,18.1v1.2h-2.8v2.9h3.8v1.2h-5.1v-8.7h4.9v1.2h-3.7v2.2L259.5,18.1L259.5,18.1z"/>
	<path class="st1" d="M262.5,21.2c0.5,0.6,1.2,1.1,2.1,1.1c0.8,0,1.5-0.5,1.5-1.3c0-1.3-1.8-1.5-3-2.2c-0.6-0.4-1.1-1-1.1-1.9
		c0-1.3,1.1-2.3,2.6-2.3c1.1,0,1.9,0.5,2.3,0.9l-0.7,0.9c-0.5-0.4-1-0.6-1.5-0.6c-0.7,0-1.4,0.4-1.4,1.2c0,1.1,1.8,1.3,3,2.1
		c0.6,0.4,1.1,1,1.1,2c0,1.5-1.2,2.5-2.7,2.5c-1.2,0-2.3-0.5-3-1.4L262.5,21.2L262.5,21.2z"/>
	<path class="st1" d="M269.3,21.2c0.5,0.6,1.2,1.1,2.1,1.1c0.8,0,1.5-0.5,1.5-1.3c0-1.3-1.8-1.5-3-2.2c-0.6-0.4-1.1-1-1.1-1.9
		c0-1.3,1.1-2.3,2.6-2.3c1.1,0,1.9,0.5,2.3,0.9l-0.7,0.9c-0.5-0.4-1-0.6-1.5-0.6c-0.7,0-1.4,0.4-1.4,1.2c0,1.1,1.8,1.3,3,2.1
		c0.6,0.4,1.1,1,1.1,2c0,1.5-1.2,2.5-2.7,2.5c-1.2,0-2.3-0.5-3-1.4L269.3,21.2L269.3,21.2z"/>
	<path class="st1" d="M280.1,18.1v1.2h-2.8v2.9h3.8v1.2h-5.1v-8.7h4.9v1.2h-3.7v2.2L280.1,18.1L280.1,18.1z"/>
	<path class="st1" d="M283.2,21.2c0.5,0.6,1.2,1.1,2.1,1.1c0.8,0,1.5-0.5,1.5-1.3c0-1.3-1.8-1.5-3-2.2c-0.6-0.4-1.1-1-1.1-1.9
		c0-1.3,1.1-2.3,2.6-2.3c1.1,0,1.9,0.5,2.3,0.9l-0.7,0.9c-0.5-0.4-1-0.6-1.5-0.6c-0.7,0-1.4,0.4-1.4,1.2c0,1.1,1.8,1.3,3,2.1
		c0.6,0.4,1.1,1,1.1,2c0,1.5-1.2,2.5-2.7,2.5c-1.2,0-2.3-0.5-3-1.4L283.2,21.2L283.2,21.2z"/>
	<path class="st1" d="M390.1,79.2v1.2h-2.8v4.1H386v-8.7h4.9V77h-3.7v2.2L390.1,79.2L390.1,79.2z"/>
	<path class="st1" d="M392.7,75.8h1.2v8.7h-1.2V75.8z"/>
	<path class="st1" d="M397.7,78.1v6.4h-1.2v-8.7h0.9l5.2,6.4v-6.4h1.2v8.7h-0.9L397.7,78.1z"/>
	<path class="st1" d="M411,82.2h-3.7l-0.9,2.2h-1.3l3.6-8.7h0.9l3.6,8.7h-1.3L411,82.2L411,82.2z M407.9,81.1h2.7l-1.3-3.2
		L407.9,81.1z"/>
	<path class="st1" d="M415.9,78.1v6.4h-1.2v-8.7h0.9l5.2,6.4v-6.4h1.2v8.7h-0.9L415.9,78.1z"/>
	<path class="st1" d="M428.2,75.7c1.2,0,2.4,0.5,3.2,1.3l-0.8,0.8c-0.5-0.6-1.4-1-2.3-1c-1.8,0-3.1,1.4-3.1,3.3
		c0,1.9,1.4,3.3,3.2,3.3c1.2,0,2-0.6,2.5-1.2l0.9,0.8c-0.7,1-2,1.6-3.4,1.6c-2.6,0-4.5-1.9-4.5-4.5
		C423.8,77.6,425.7,75.7,428.2,75.7L428.2,75.7z"/>
	<path class="st1" d="M433.4,75.8h1.2v8.7h-1.2V75.8z"/>
	<path class="st1" d="M441.9,82.2h-3.7l-0.9,2.2h-1.3l3.6-8.7h0.9l3.6,8.7h-1.3L441.9,82.2L441.9,82.2z M438.8,81.1h2.7l-1.3-3.2
		L438.8,81.1z"/>
	<path class="st1" d="M446.8,83.3h3.8v1.2h-5.1v-8.7h1.2V83.3z"/>
	<path class="st1" d="M386.2,89.3h1.2V98h-1.2V89.3z"/>
	<path class="st1" d="M391.2,91.6V98H390v-8.7h0.9l5.2,6.4v-6.4h1.2V98h-0.9L391.2,91.6z"/>
	<path class="st1" d="M399.9,95.8c0.5,0.6,1.2,1.1,2.1,1.1c0.8,0,1.5-0.5,1.5-1.3c0-1.3-1.8-1.5-3-2.2c-0.6-0.4-1.1-1-1.1-1.9
		c0-1.3,1.1-2.3,2.6-2.3c1.1,0,1.9,0.5,2.3,0.9l-0.7,0.9c-0.5-0.4-1-0.6-1.5-0.6c-0.7,0-1.4,0.4-1.4,1.2c0,1.1,1.8,1.3,3,2.1
		c0.6,0.4,1.1,1,1.1,2c0,1.5-1.2,2.5-2.7,2.5c-1.2,0-2.3-0.5-3-1.4L399.9,95.8L399.9,95.8z"/>
	<path class="st1" d="M405.5,89.3h5.9v1.2h-2.3V98h-1.2v-7.5h-2.3L405.5,89.3L405.5,89.3z"/>
	<path class="st1" d="M413,89.3h1.2V98H413V89.3z"/>
	<path class="st1" d="M415.9,89.3h5.9v1.2h-2.3V98h-1.2v-7.5h-2.3L415.9,89.3L415.9,89.3z"/>
	<path class="st1" d="M424.2,97c-0.6-0.6-0.9-1.4-0.9-2.6v-5.1h1.2v5.1c0,0.8,0.2,1.3,0.5,1.7c0.4,0.5,1.1,0.8,1.8,0.8
		c0.7,0,1.4-0.3,1.8-0.8c0.3-0.4,0.5-0.9,0.5-1.7v-5.1h1.2v5.1c0,1.2-0.3,2-0.9,2.6c-0.7,0.7-1.6,1.1-2.7,1.1S424.8,97.7,424.2,97z"
		/>
	<path class="st1" d="M431.9,89.3h5.9v1.2h-2.3V98h-1.2v-7.5h-2.3L431.9,89.3L431.9,89.3z"/>
	<path class="st1" d="M439.5,89.3h1.2V98h-1.2V89.3z"/>
	<path class="st1" d="M446.9,89.2c2.4,0,4.3,1.9,4.3,4.5s-1.9,4.5-4.3,4.5c-2.4,0-4.3-1.9-4.3-4.5S444.4,89.2,446.9,89.2z
		 M446.9,96.9c1.8,0,3.1-1.4,3.1-3.3c0-1.9-1.3-3.3-3.1-3.3c-1.8,0-3.1,1.4-3.1,3.3C443.8,95.5,445.1,96.9,446.9,96.9z"/>
	<path class="st1" d="M454.3,91.6V98h-1.2v-8.7h0.9l5.2,6.4v-6.4h1.2V98h-0.9L454.3,91.6z"/>
	<path class="st1" d="M463,95.8c0.5,0.6,1.2,1.1,2.1,1.1c0.8,0,1.5-0.5,1.5-1.3c0-1.3-1.8-1.5-3-2.2c-0.6-0.4-1.1-1-1.1-1.9
		c0-1.3,1.1-2.3,2.6-2.3c1.1,0,1.9,0.5,2.3,0.9l-0.7,0.9c-0.5-0.4-1-0.6-1.5-0.6c-0.7,0-1.4,0.4-1.4,1.2c0,1.1,1.8,1.3,3,2.1
		c0.6,0.4,1.1,1,1.1,2c0,1.5-1.2,2.5-2.7,2.5c-1.2,0-2.3-0.5-3-1.4L463,95.8L463,95.8z"/>
	<path class="st1" d="M417.2,222.9v3.8h-1.2v-8.7h3.3c0.8,0,1.4,0.2,1.8,0.6c0.5,0.4,0.9,1.1,0.9,1.8c0,0.7-0.3,1.4-0.9,1.8
		c-0.4,0.4-1,0.6-1.8,0.6H417.2z M419.1,221.7c0.6,0,0.9-0.2,1.1-0.4c0.2-0.2,0.3-0.5,0.3-0.9c0-0.3-0.1-0.6-0.3-0.9
		c-0.2-0.2-0.5-0.4-1.1-0.4h-2v2.5L419.1,221.7L419.1,221.7z"/>
	<path class="st1" d="M424.4,225.7c-0.6-0.6-0.9-1.4-0.9-2.6v-5.1h1.2v5.1c0,0.8,0.2,1.3,0.5,1.7c0.4,0.5,1.1,0.8,1.8,0.8
		c0.7,0,1.4-0.3,1.8-0.8c0.3-0.4,0.5-0.9,0.5-1.7v-5.1h1.2v5.1c0,1.2-0.3,2-0.9,2.6c-0.7,0.7-1.6,1.1-2.7,1.1
		C426,226.8,425.1,226.4,424.4,225.7z"/>
	<path class="st1" d="M433.1,226.7v-8.7h2.9c0.8,0,1.4,0.2,1.8,0.6c0.4,0.4,0.7,1,0.7,1.6c0,0.6-0.3,1.2-0.7,1.5
		c0.8,0.4,1.4,1.3,1.4,2.3c0,0.8-0.4,1.5-1,2c-0.4,0.4-1,0.6-1.9,0.6L433.1,226.7L433.1,226.7z M435.8,221.5c0.7,0,1-0.1,1.2-0.4
		c0.2-0.2,0.3-0.5,0.3-0.8c0-0.3-0.1-0.6-0.3-0.8c-0.2-0.2-0.5-0.4-1.2-0.4h-1.5v2.2L435.8,221.5L435.8,221.5z M436.2,225.5
		c0.8,0,1.2-0.2,1.4-0.4c0.2-0.3,0.4-0.6,0.4-1c0-0.4-0.2-0.7-0.4-1c-0.3-0.3-0.6-0.4-1.4-0.4h-1.9v2.9H436.2z"/>
	<path class="st1" d="M442.4,225.5h3.8v1.2h-5.1v-8.7h1.2V225.5z"/>
	<path class="st1" d="M447.9,218.1h1.2v8.7h-1.2V218.1z"/>
	<path class="st1" d="M455.3,217.9c1.2,0,2.4,0.5,3.2,1.3l-0.8,0.8c-0.5-0.6-1.4-1-2.3-1c-1.8,0-3.1,1.4-3.1,3.3
		c0,1.9,1.4,3.3,3.2,3.3c1.2,0,2-0.6,2.5-1.2l0.9,0.8c-0.7,1-2,1.6-3.4,1.6c-2.6,0-4.5-1.9-4.5-4.5S452.8,218,455.3,217.9
		L455.3,217.9z"/>
	<path class="st1" d="M465.3,222.9v3.8h-1.2v-8.7h3.3c0.8,0,1.4,0.2,1.8,0.6c0.5,0.4,0.8,1.1,0.8,1.8c0,0.7-0.3,1.4-0.8,1.8
		c-0.4,0.4-1,0.6-1.8,0.6H465.3z M467.3,221.7c0.6,0,0.9-0.2,1.1-0.4c0.2-0.2,0.3-0.5,0.3-0.9c0-0.3-0.1-0.6-0.3-0.9
		c-0.2-0.2-0.5-0.4-1.1-0.4h-2v2.5L467.3,221.7L467.3,221.7z"/>
	<path class="st1" d="M475.5,217.9c2.4,0,4.3,1.9,4.3,4.5c0,2.5-1.9,4.5-4.3,4.5s-4.3-1.9-4.3-4.5
		C471.2,219.9,473.1,217.9,475.5,217.9z M475.5,225.7c1.8,0,3.1-1.4,3.1-3.3s-1.3-3.3-3.1-3.3c-1.8,0-3.1,1.4-3.1,3.3
		S473.8,225.7,475.5,225.7z"/>
	<path class="st1" d="M482.9,225.5h3.8v1.2h-5.1v-8.7h1.2V225.5z"/>
	<path class="st1" d="M488.4,218.1h1.2v8.7h-1.2V218.1z"/>
	<path class="st1" d="M495.9,217.9c1.2,0,2.4,0.5,3.2,1.3l-0.8,0.8c-0.5-0.6-1.4-1-2.3-1c-1.8,0-3.1,1.4-3.1,3.3
		c0,1.9,1.4,3.3,3.2,3.3c1.2,0,2-0.6,2.5-1.2l0.9,0.8c-0.7,1-2,1.6-3.4,1.6c-2.6,0-4.5-1.9-4.5-4.5S493.4,218,495.9,217.9
		L495.9,217.9z"/>
	<path class="st1" d="M504.1,222.8v4h-1.2v-4l-3-4.7h1.4l2.2,3.5l2.2-3.5h1.4L504.1,222.8z"/>
	<path class="st1" d="M419.9,238.4h-0.9l-2.5-4v5.8h-1.2v-8.7h0.9l3.3,5.3l3.3-5.3h0.9v8.7h-1.2v-5.8L419.9,238.4L419.9,238.4z"/>
	<path class="st1" d="M431,238h-3.7l-0.9,2.2h-1.3l3.6-8.7h0.9l3.6,8.7h-1.3L431,238L431,238z M427.9,236.9h2.7l-1.3-3.2
		L427.9,236.9z"/>
	<path class="st1" d="M434.7,231.6h1.2v3.7l3.6-3.7h1.6l-3.9,4l4.2,4.6h-1.6l-3.9-4.3v4.3h-1.2V231.6z"/>
	<path class="st1" d="M447.1,235v1.2h-2.8v2.9h3.8v1.2H443v-8.7h4.9v1.2h-3.7v2.2L447.1,235L447.1,235z"/>
	<path class="st1" d="M451.2,236.2v4.1H450v-8.7h3c0.8,0,1.3,0.2,1.7,0.5c0.5,0.4,0.8,1.1,0.8,1.8s-0.3,1.4-0.8,1.8
		c-0.3,0.2-0.6,0.4-1,0.5l3.1,4.1h-1.5l-3.1-4.1H451.2z M453,235c0.6,0,0.8-0.1,1-0.3c0.2-0.2,0.3-0.5,0.3-0.8s-0.1-0.6-0.3-0.8
		c-0.2-0.2-0.5-0.3-1-0.3h-1.7v2.2L453,235L453,235z"/>
	<path class="st1" d="M458.3,238.1c0.5,0.6,1.2,1.1,2.1,1.1c0.8,0,1.5-0.5,1.5-1.3c0-1.3-1.8-1.5-3-2.2c-0.6-0.4-1.1-1-1.1-1.9
		c0-1.3,1.1-2.3,2.6-2.3c1.1,0,1.9,0.5,2.3,0.9l-0.7,0.9c-0.5-0.4-1-0.6-1.5-0.6c-0.7,0-1.4,0.4-1.4,1.2c0,1.1,1.8,1.3,3,2.1
		c0.6,0.4,1.1,1,1.1,2c0,1.5-1.2,2.5-2.7,2.5c-1.2,0-2.3-0.5-3-1.4L458.3,238.1L458.3,238.1z"/>
	<path class="st1" d="M333.5,321.2h2.8v1.2h-2.8v4.1h-1.2v-8.6h4.9v1.2h-3.7V321.2z M337.8,322.1c0-2.5,1.9-4.4,4.3-4.4
		c2.4,0,4.3,1.9,4.3,4.4s-1.9,4.4-4.3,4.4C339.6,326.6,337.8,324.7,337.8,322.1z M339,322.1c0,1.9,1.3,3.3,3.1,3.3
		c1.8,0,3.1-1.4,3.1-3.3c0-1.9-1.3-3.3-3.1-3.3C340.3,318.9,339,320.3,339,322.1z M351.5,326.6c-1.1,0-2-0.4-2.7-1.1
		c-0.6-0.6-0.9-1.4-0.9-2.6v-5.1h1.2v5.1c0,0.8,0.2,1.3,0.5,1.7c0.4,0.5,1.1,0.8,1.8,0.8c0.7,0,1.4-0.3,1.8-0.8
		c0.3-0.4,0.5-0.9,0.5-1.7v-5.1h1.2v5.1c0,1.2-0.3,2-0.9,2.6C353.5,326.1,352.6,326.6,351.5,326.6z M363.6,326.5l-5.2-6.3v6.3h-1.2
		v-8.6h0.9l5.2,6.3v-6.3h1.2v8.6H363.6z M372.8,322.1c0-1-0.4-1.8-1.1-2.4c-0.5-0.5-1.3-0.7-2.5-0.7h-1.3v6.3h1.3
		c1.2,0,1.9-0.3,2.5-0.7C372.4,324,372.8,323.1,372.8,322.1z M369.3,326.5h-2.6v-8.6h2.6c1.4,0,2.3,0.3,3,0.8
		c1.1,0.8,1.7,2.1,1.7,3.5c0,1.4-0.7,2.7-1.7,3.5C371.6,326.2,370.7,326.5,369.3,326.5z M381,326.5l-0.9-2.2h-3.6l-0.9,2.2h-1.3
		l3.6-8.6h0.9l3.6,8.6H381z M378.3,319.8l-1.3,3.2h2.7L378.3,319.8z M381.8,319v-1.2h5.9v1.2h-2.3v7.5h-1.2V319H381.8z M389.1,326.5
		v-8.6h1.2v8.6H389.1z M391.8,322.1c0-2.5,1.9-4.4,4.3-4.4c2.4,0,4.3,1.9,4.3,4.4s-1.9,4.4-4.3,4.4
		C393.7,326.6,391.8,324.7,391.8,322.1z M393.1,322.1c0,1.9,1.3,3.3,3.1,3.3c1.8,0,3.1-1.4,3.1-3.3c0-1.9-1.3-3.3-3.1-3.3
		C394.4,318.9,393.1,320.3,393.1,322.1z M408.5,326.5l-5.2-6.3v6.3H402v-8.6h0.9l5.2,6.3v-6.3h1.2v8.6H408.5z M410.8,325.1l0.9-0.8
		c0.5,0.6,1.2,1.1,2.1,1.1c0.8,0,1.5-0.5,1.5-1.3c0-1.3-1.8-1.5-3-2.2c-0.6-0.4-1.1-1-1.1-1.9c0-1.3,1.1-2.3,2.6-2.3
		c1.1,0,1.9,0.5,2.3,0.9l-0.7,0.9c-0.5-0.4-1-0.6-1.5-0.6c-0.7,0-1.4,0.4-1.4,1.2c0,1.1,1.8,1.3,3,2.1c0.6,0.4,1.1,1,1.1,2
		c0,1.5-1.2,2.5-2.7,2.5C412.6,326.6,411.6,326.1,410.8,325.1z"/>
	<path class="st1" d="M100.9,329.5v1.2h-2.8v4.1h-1.2v-8.7h4.9v1.2h-3.7v2.2L100.9,329.5L100.9,329.5z"/>
	<path class="st1" d="M107.5,332.6h-3.7l-0.9,2.2h-1.3l3.6-8.7h0.9l3.6,8.7h-1.3L107.5,332.6L107.5,332.6z M104.4,331.4h2.7
		l-1.3-3.2L104.4,331.4z"/>
	<path class="st1" d="M115.9,332.9H115l-2.5-4v5.8h-1.2v-8.7h0.9l3.3,5.3l3.3-5.3h0.9v8.7h-1.2V329L115.9,332.9L115.9,332.9z"/>
	<path class="st1" d="M122.2,326.1h1.2v8.7h-1.2V326.1z"/>
	<path class="st1" d="M127.2,333.6h3.8v1.2h-5.1v-8.7h1.2V333.6z"/>
	<path class="st1" d="M135.3,330.8v4H134v-4l-3-4.7h1.4l2.2,3.5l2.2-3.5h1.4L135.3,330.8z"/>
	<path class="st1" d="M146.7,326c2.4,0,4.3,1.9,4.3,4.5s-1.9,4.5-4.3,4.5s-4.3-1.9-4.3-4.5S144.2,326,146.7,326z M146.7,333.7
		c1.8,0,3.1-1.4,3.1-3.3s-1.3-3.3-3.1-3.3s-3.1,1.4-3.1,3.3C143.6,332.3,144.9,333.7,146.7,333.7z"/>
	<path class="st1" d="M156.9,329.5v1.2h-2.8v4.1h-1.2v-8.7h4.9v1.2h-3.7v2.2L156.9,329.5L156.9,329.5z"/>
	<path class="st1" d="M163.5,329.5v1.2h-2.8v4.1h-1.2v-8.7h4.9v1.2h-3.7v2.2L163.5,329.5L163.5,329.5z"/>
	<path class="st1" d="M166.1,326.1h1.2v8.7h-1.2V326.1z"/>
	<path class="st1" d="M173.5,326c1.2,0,2.4,0.5,3.2,1.3l-0.8,0.8c-0.5-0.6-1.4-1-2.3-1c-1.8,0-3.1,1.4-3.1,3.3s1.4,3.3,3.2,3.3
		c1.2,0,2-0.6,2.5-1.2l0.9,0.8c-0.7,1-2,1.6-3.4,1.6c-2.6,0-4.5-1.9-4.5-4.5C169.2,327.9,171,326,173.5,326L173.5,326z"/>
	<path class="st1" d="M182.8,329.5v1.2h-2.8v2.9h3.8v1.2h-5.1v-8.7h4.9v1.2h-3.7v2.2L182.8,329.5L182.8,329.5z"/>
	<path class="st1" d="M185.8,332.6c0.5,0.6,1.2,1.1,2.1,1.1c0.8,0,1.5-0.5,1.5-1.3c0-1.3-1.8-1.5-3-2.2c-0.6-0.4-1.1-1-1.1-1.9
		c0-1.3,1.1-2.3,2.6-2.3c1.1,0,1.9,0.5,2.3,0.9l-0.7,0.9c-0.5-0.4-1-0.6-1.5-0.6c-0.7,0-1.4,0.4-1.4,1.2c0,1.1,1.8,1.3,3,2.1
		c0.6,0.4,1.1,1,1.1,2c0,1.5-1.2,2.5-2.7,2.5c-1.2,0-2.3-0.5-3-1.4L185.8,332.6L185.8,332.6z"/>
	<path class="st1" d="M79.3,348.3l4-8.7h1.2l-4,8.7H79.3L79.3,348.3z"/>
	<path class="st1" d="M89.9,339.5c2.4,0,4.3,1.9,4.3,4.5s-1.9,4.5-4.3,4.5s-4.3-1.9-4.3-4.5S87.5,339.5,89.9,339.5z M89.9,347.3
		c1.8,0,3.1-1.4,3.1-3.3s-1.3-3.3-3.1-3.3s-3.1,1.4-3.1,3.3S88.1,347.3,89.9,347.3z"/>
	<path class="st1" d="M94.8,339.7h5.9v1.2h-2.3v7.5h-1.2v-7.5h-2.3L94.8,339.7L94.8,339.7z"/>
	<path class="st1" d="M108.4,344.2h-4.8v4.1h-1.2v-8.7h1.2v3.4h4.8v-3.4h1.2v8.7h-1.2V344.2z"/>
	<path class="st1" d="M116.2,343.1v1.2h-2.8v2.9h3.8v1.2h-5.1v-8.7h4.9v1.2h-3.7v2.2L116.2,343.1L116.2,343.1z"/>
	<path class="st1" d="M120.4,344.2v4.1h-1.2v-8.7h3c0.8,0,1.3,0.2,1.7,0.5c0.5,0.4,0.8,1.1,0.8,1.8s-0.3,1.4-0.8,1.8
		c-0.3,0.2-0.6,0.4-1,0.5l3.1,4.1h-1.5l-3.1-4.1H120.4L120.4,344.2z M122.1,343.1c0.6,0,0.8-0.1,1-0.3c0.2-0.2,0.3-0.5,0.3-0.8
		s-0.1-0.6-0.3-0.8c-0.2-0.2-0.5-0.3-1-0.3h-1.7v2.2L122.1,343.1L122.1,343.1z"/>
	<path class="st1" d="M131,339.7h1.2v8.7H131V339.7z"/>
	<path class="st1" d="M136,342v6.4h-1.2v-8.7h0.9l5.2,6.4v-6.4h1.2v8.7h-0.9L136,342z"/>
	<path class="st1" d="M147.8,348.3H147l-3.4-8.7h1.3l2.5,6.5l2.5-6.5h1.3L147.8,348.3L147.8,348.3z"/>
	<path class="st1" d="M156.9,343.1v1.2H154v2.9h3.8v1.2h-5.1v-8.7h4.9v1.2H154v2.2L156.9,343.1L156.9,343.1z"/>
	<path class="st1" d="M159.9,346.2c0.5,0.6,1.2,1.1,2.1,1.1c0.8,0,1.5-0.5,1.5-1.3c0-1.3-1.8-1.5-3-2.2c-0.6-0.4-1.1-1-1.1-1.9
		c0-1.3,1.1-2.3,2.6-2.3c1.1,0,1.9,0.5,2.3,0.9l-0.7,0.9c-0.5-0.4-1-0.6-1.5-0.6c-0.7,0-1.4,0.4-1.4,1.2c0,1.1,1.8,1.3,3,2.1
		c0.6,0.4,1.1,1,1.1,2c0,1.5-1.2,2.5-2.7,2.5c-1.2,0-2.3-0.5-3-1.4L159.9,346.2L159.9,346.2z"/>
	<path class="st1" d="M165.5,339.7h5.9v1.2H169v7.5h-1.2v-7.5h-2.3V339.7z"/>
	<path class="st1" d="M176.3,339.5c2.4,0,4.3,1.9,4.3,4.5s-1.9,4.5-4.3,4.5c-2.4,0-4.3-1.9-4.3-4.5S173.8,339.5,176.3,339.5z
		 M176.3,347.3c1.8,0,3.1-1.4,3.1-3.3s-1.3-3.3-3.1-3.3c-1.8,0-3.1,1.4-3.1,3.3S174.5,347.3,176.3,347.3z"/>
	<path class="st1" d="M183.7,344.2v4.1h-1.2v-8.7h3c0.8,0,1.3,0.2,1.7,0.5c0.5,0.4,0.8,1.1,0.8,1.8s-0.3,1.4-0.8,1.8
		c-0.3,0.2-0.6,0.4-1,0.5l3.1,4.1h-1.5l-3.1-4.1H183.7L183.7,344.2z M185.4,343.1c0.6,0,0.8-0.1,1-0.3c0.2-0.2,0.3-0.5,0.3-0.8
		s-0.1-0.6-0.3-0.8c-0.2-0.2-0.5-0.3-1-0.3h-1.7v2.2L185.4,343.1L185.4,343.1z"/>
	<path class="st1" d="M190.7,346.2c0.5,0.6,1.2,1.1,2.1,1.1c0.8,0,1.5-0.5,1.5-1.3c0-1.3-1.8-1.5-3-2.2c-0.6-0.4-1.1-1-1.1-1.9
		c0-1.3,1.1-2.3,2.6-2.3c1.1,0,1.9,0.5,2.3,0.9l-0.7,0.9c-0.5-0.4-1-0.6-1.5-0.6c-0.7,0-1.4,0.4-1.4,1.2c0,1.1,1.8,1.3,3,2.1
		c0.6,0.4,1.1,1,1.1,2c0,1.5-1.2,2.5-2.7,2.5c-1.2,0-2.3-0.5-3-1.4L190.7,346.2L190.7,346.2z"/>
	<path class="st1" d="M63.5,72.6h-3.7l-0.9,2.2h-1.3l3.6-8.7h0.9l3.6,8.7h-1.3L63.5,72.6L63.5,72.6z M60.3,71.5H63l-1.3-3.2
		L60.3,71.5z"/>
	<path class="st1" d="M70.6,66.1c1.2,0,2.4,0.5,3.2,1.3L73,68.2c-0.5-0.6-1.4-1-2.3-1c-1.8,0-3.1,1.4-3.1,3.3s1.4,3.3,3.2,3.3
		c1.2,0,2-0.6,2.5-1.2l0.9,0.8c-0.7,1-2,1.6-3.4,1.6c-2.6,0-4.5-1.9-4.5-4.5C66.3,68,68.1,66.1,70.6,66.1L70.6,66.1z"/>
	<path class="st1" d="M80.8,72.6h-3.7l-0.9,2.2h-1.3l3.6-8.7h0.9l3.6,8.7h-1.3L80.8,72.6L80.8,72.6z M77.6,71.5h2.7l-1.3-3.2
		L77.6,71.5z"/>
	<path class="st1" d="M84.4,74.9v-8.7H87c1.4,0,2.3,0.3,3,0.8c1.1,0.8,1.7,2.1,1.7,3.5c0,1.4-0.7,2.7-1.7,3.5
		c-0.7,0.5-1.6,0.8-3,0.8H84.4z M89.4,68.1c-0.5-0.5-1.3-0.7-2.5-0.7h-1.3v6.3H87c1.2,0,1.9-0.3,2.5-0.7c0.7-0.6,1-1.5,1-2.4
		S90.1,68.7,89.4,68.1L89.4,68.1z"/>
	<path class="st1" d="M97.6,69.6v1.2h-2.8v2.9h3.8v1.2h-5.1v-8.7h4.9v1.2h-3.7v2.2L97.6,69.6L97.6,69.6z"/>
	<path class="st1" d="M105.2,73h-0.9l-2.5-4v5.8h-1.2v-8.7h0.9l3.3,5.3l3.3-5.3h0.9v8.7h-1.2V69L105.2,73L105.2,73z"/>
	<path class="st1" d="M111.5,66.2h1.2v8.7h-1.2V66.2z"/>
	<path class="st1" d="M118.9,66.1c1.2,0,2.4,0.5,3.2,1.3l-0.8,0.8c-0.5-0.6-1.4-1-2.3-1c-1.8,0-3.1,1.4-3.1,3.3s1.4,3.3,3.2,3.3
		c1.2,0,2-0.6,2.5-1.2l0.9,0.8c-0.7,1-2,1.6-3.4,1.6c-2.6,0-4.5-1.9-4.5-4.5C114.6,68,116.5,66.1,118.9,66.1L118.9,66.1z"/>
	<path class="st1" d="M43.9,79.7h1.2v8.7h-1.2V79.7z"/>
	<path class="st1" d="M49,82v6.4h-1.2v-8.7h0.9l5.2,6.4v-6.4H55v8.7h-0.9L49,82z"/>
	<path class="st1" d="M57.6,86.2c0.5,0.6,1.2,1.1,2.1,1.1c0.8,0,1.5-0.5,1.5-1.3c0-1.3-1.8-1.5-3-2.2c-0.6-0.4-1.1-1-1.1-1.9
		c0-1.3,1.1-2.3,2.6-2.3c1.1,0,1.9,0.5,2.3,0.9l-0.7,0.9c-0.5-0.4-1-0.6-1.5-0.6c-0.7,0-1.4,0.4-1.4,1.2c0,1.1,1.8,1.3,3,2.1
		c0.6,0.4,1.1,1,1.1,2c0,1.5-1.2,2.5-2.7,2.5c-1.2,0-2.3-0.5-3-1.4L57.6,86.2L57.6,86.2z"/>
	<path class="st1" d="M63.2,79.7h5.9v1.2h-2.3v7.5h-1.2v-7.5h-2.3L63.2,79.7L63.2,79.7z"/>
	<path class="st1" d="M70.8,79.7H72v8.7h-1.2V79.7z"/>
	<path class="st1" d="M73.6,79.7h5.9v1.2h-2.3v7.5H76v-7.5h-2.3L73.6,79.7L73.6,79.7z"/>
	<path class="st1" d="M81.9,87.4C81.4,86.8,81,86,81,84.8v-5.1h1.2v5.1c0,0.8,0.2,1.3,0.5,1.7c0.4,0.5,1.1,0.8,1.8,0.8
		c0.7,0,1.4-0.3,1.8-0.8c0.3-0.4,0.5-0.9,0.5-1.7v-5.1h1.2v5.1c0,1.2-0.3,2-0.9,2.6c-0.7,0.7-1.6,1.1-2.7,1.1
		C83.5,88.5,82.6,88.1,81.9,87.4z"/>
	<path class="st1" d="M89.7,79.7h5.9v1.2h-2.3v7.5H92v-7.5h-2.3L89.7,79.7L89.7,79.7z"/>
	<path class="st1" d="M97.2,79.7h1.2v8.7h-1.2V79.7z"/>
	<path class="st1" d="M104.6,79.6c2.4,0,4.3,1.9,4.3,4.5c0,2.5-1.9,4.5-4.3,4.5c-2.4,0-4.3-1.9-4.3-4.5
		C100.3,81.5,102.2,79.6,104.6,79.6z M104.6,87.3c1.8,0,3.1-1.4,3.1-3.3c0-1.9-1.3-3.3-3.1-3.3c-1.8,0-3.1,1.4-3.1,3.3
		C101.5,85.9,102.9,87.3,104.6,87.3z"/>
	<path class="st1" d="M112,82v6.4h-1.2v-8.7h0.9l5.2,6.4v-6.4h1.2v8.7h-0.9L112,82z"/>
	<path class="st1" d="M120.7,86.2c0.5,0.6,1.2,1.1,2.1,1.1c0.8,0,1.5-0.5,1.5-1.3c0-1.3-1.8-1.5-3-2.2c-0.6-0.4-1.1-1-1.1-1.9
		c0-1.3,1.1-2.3,2.6-2.3c1.1,0,1.9,0.5,2.3,0.9l-0.7,0.9c-0.5-0.4-1-0.6-1.5-0.6c-0.7,0-1.4,0.4-1.4,1.2c0,1.1,1.8,1.3,3,2.1
		c0.6,0.4,1.1,1,1.1,2c0,1.5-1.2,2.5-2.7,2.5c-1.2,0-2.3-0.5-3-1.4L120.7,86.2L120.7,86.2z"/>
	<path class="st1" d="M24.2,215.2c1.2,0,2.4,0.5,3.2,1.3l-0.8,0.8c-0.5-0.6-1.4-1-2.3-1c-1.8,0-3.1,1.4-3.1,3.3
		c0,1.9,1.4,3.3,3.2,3.3c1.2,0,2-0.6,2.5-1.2l0.9,0.8c-0.7,1-2,1.6-3.4,1.6c-2.6,0-4.5-1.9-4.5-4.5S21.7,215.2,24.2,215.2
		L24.2,215.2z"/>
	<path class="st1" d="M32.8,215.2c2.4,0,4.3,1.9,4.3,4.5c0,2.5-1.9,4.5-4.3,4.5c-2.4,0-4.3-1.9-4.3-4.5
		C28.5,217.1,30.4,215.2,32.8,215.2z M32.8,222.9c1.8,0,3.1-1.4,3.1-3.3s-1.3-3.3-3.1-3.3s-3.1,1.4-3.1,3.3S31.1,222.9,32.8,222.9z"
		/>
	<path class="st1" d="M43.6,222.1h-0.9l-2.5-4v5.8H39v-8.7h0.9l3.3,5.3l3.3-5.3h0.9v8.7h-1.2v-5.8L43.6,222.1L43.6,222.1z"/>
	<path class="st1" d="M54.6,222.1h-0.9l-2.5-4v5.8h-1.2v-8.7h0.9l3.3,5.3l3.3-5.3h0.9v8.7h-1.2v-5.8L54.6,222.1L54.6,222.1z"/>
	<path class="st1" d="M61.6,222.9c-0.6-0.6-0.9-1.4-0.9-2.6v-5.1H62v5.1c0,0.8,0.2,1.3,0.5,1.7c0.4,0.5,1.1,0.8,1.8,0.8
		c0.7,0,1.4-0.3,1.8-0.8c0.3-0.4,0.5-0.9,0.5-1.7v-5.1h1.2v5.1c0,1.2-0.3,2-0.9,2.6c-0.7,0.7-1.6,1.1-2.7,1.1
		C63.3,224.1,62.3,223.7,61.6,222.9z"/>
	<path class="st1" d="M71.5,217.6v6.4h-1.2v-8.7h0.9l5.2,6.4v-6.4h1.2v8.7h-0.9L71.5,217.6z"/>
	<path class="st1" d="M80.1,215.3h1.2v8.7h-1.2V215.3z"/>
	<path class="st1" d="M83,215.3h5.9v1.2h-2.3v7.5h-1.2v-7.5H83V215.3z"/>
	<path class="st1" d="M94.1,220v4h-1.2v-4l-3-4.7h1.4l2.2,3.5l2.2-3.5H97L94.1,220z"/>
	<path class="st1" d="M6.6,228.7c2.4,0,4.3,1.9,4.3,4.5c0,2.5-1.9,4.5-4.3,4.5s-4.3-1.9-4.3-4.5C2.3,230.6,4.2,228.7,6.6,228.7z
		 M6.6,236.4c1.8,0,3.1-1.4,3.1-3.3s-1.3-3.3-3.1-3.3c-1.8,0-3.1,1.4-3.1,3.3C3.5,235,4.8,236.4,6.6,236.4z"/>
	<path class="st1" d="M14,233.4v4.1h-1.2v-8.7h3c0.8,0,1.3,0.2,1.7,0.5c0.5,0.4,0.9,1.1,0.9,1.8c0,0.7-0.3,1.4-0.9,1.8
		c-0.3,0.2-0.6,0.4-1,0.5l3.1,4.1h-1.5l-3.1-4.1H14z M15.7,232.2c0.6,0,0.8-0.1,1-0.3c0.2-0.2,0.3-0.5,0.3-0.8
		c0-0.3-0.1-0.6-0.3-0.8c-0.2-0.2-0.5-0.3-1-0.3H14v2.2L15.7,232.2L15.7,232.2z"/>
	<path class="st1" d="M27.9,236c-0.7,0.9-2,1.6-3.4,1.6c-2.6,0-4.5-1.9-4.5-4.5s1.9-4.5,4.4-4.5c1.2,0,2.4,0.5,3.2,1.3l-0.8,0.8
		c-0.5-0.6-1.4-1-2.3-1c-1.8,0-3.1,1.4-3.1,3.3c0,1.9,1.4,3.3,3.2,3.3c0.9,0,1.7-0.3,2.1-0.8v-2.2h-2.5v-1.2h3.7V236L27.9,236z"/>
	<path class="st1" d="M34.7,235.3H31l-0.9,2.2h-1.3l3.6-8.7h0.9l3.6,8.7h-1.3L34.7,235.3L34.7,235.3z M31.5,234.1h2.7l-1.3-3.2
		L31.5,234.1z"/>
	<path class="st1" d="M39.6,231.1v6.4h-1.2v-8.7h0.9l5.2,6.4v-6.4h1.2v8.7h-0.9L39.6,231.1z"/>
	<path class="st1" d="M48.2,228.8h1.2v8.7h-1.2V228.8z"/>
	<path class="st1" d="M51.7,228.8h5.8v0.8l-4.5,6.7h4.7v1.2h-6.4v-0.8l4.5-6.7h-4.2L51.7,228.8L51.7,228.8z"/>
	<path class="st1" d="M64.3,235.3h-3.7l-0.9,2.2h-1.3l3.6-8.7h0.9l3.6,8.7h-1.3L64.3,235.3L64.3,235.3z M61.2,234.1h2.7l-1.3-3.2
		L61.2,234.1z"/>
	<path class="st1" d="M66.3,228.8h5.9v1.2h-2.3v7.5h-1.2V230h-2.3L66.3,228.8L66.3,228.8z"/>
	<path class="st1" d="M73.9,228.8h1.2v8.7h-1.2V228.8z"/>
	<path class="st1" d="M81.3,228.7c2.4,0,4.3,1.9,4.3,4.5c0,2.5-1.9,4.5-4.3,4.5s-4.3-1.9-4.3-4.5C77,230.6,78.8,228.7,81.3,228.7z
		 M81.3,236.4c1.8,0,3.1-1.4,3.1-3.3s-1.3-3.3-3.1-3.3s-3.1,1.4-3.1,3.3C78.2,235,79.5,236.4,81.3,236.4z"/>
	<path class="st1" d="M88.7,231.1v6.4h-1.2v-8.7h0.9l5.2,6.4v-6.4h1.2v8.7h-0.9L88.7,231.1z"/>
	<path class="st1" d="M97.4,235.3c0.5,0.6,1.2,1.1,2.1,1.1c0.8,0,1.5-0.5,1.5-1.3c0-1.3-1.8-1.5-3-2.2c-0.6-0.4-1.1-1-1.1-1.9
		c0-1.3,1.1-2.3,2.6-2.3c1.1,0,1.9,0.5,2.3,0.9l-0.7,0.9c-0.5-0.4-1-0.6-1.5-0.6c-0.7,0-1.4,0.4-1.4,1.2c0,1.1,1.8,1.3,3,2.1
		c0.6,0.4,1.1,1,1.1,2c0,1.5-1.2,2.5-2.7,2.5c-1.2,0-2.3-0.5-3-1.4L97.4,235.3L97.4,235.3z"/>
	<path class="st2" d="M253.8,84.5c13.3,0,24.1-10.8,24.1-24.1c0-13.3-10.8-24.1-24.1-24.1s-24.1,10.8-24.1,24.1
		C229.7,73.7,240.5,84.5,253.8,84.5z"/>
	<path class="st2" d="M157.9,130.7c13.3,0,24.1-10.8,24.1-24.1c0-13.3-10.8-24.1-24.1-24.1c-13.3,0-24.1,10.8-24.1,24.1
		C133.8,119.9,144.6,130.7,157.9,130.7z"/>
	<path class="st2" d="M134.2,234.5c13.3,0,24.1-10.8,24.1-24.1c0-13.3-10.8-24.1-24.1-24.1s-24.1,10.8-24.1,24.1
		C110.1,223.7,120.9,234.5,134.2,234.5z"/>
	<path class="st2" d="M200.6,317.7c13.3,0,24.1-10.8,24.1-24.1c0-13.3-10.8-24.1-24.1-24.1c-13.3,0-24.1,10.8-24.1,24.1
		C176.5,307,187.3,317.7,200.6,317.7z"/>
	<path class="st2" d="M307.1,317.7c13.3,0,24.1-10.8,24.1-24.1c0-13.3-10.8-24.1-24.1-24.1c-13.3,0-24.1,10.8-24.1,24.1
		C283,307,293.8,317.7,307.1,317.7z"/>
	<path class="st2" d="M372.2,239.4c13.3,0,24.1-10.8,24.1-24.1c0-13.3-10.8-24.1-24.1-24.1c-13.3,0-24.1,10.8-24.1,24.1
		C348.1,228.6,358.9,239.4,372.2,239.4z"/>
	<path class="st2" d="M349.8,130.7c13.3,0,24.1-10.8,24.1-24.1c0-13.3-10.8-24.1-24.1-24.1c-13.3,0-24.1,10.8-24.1,24.1
		C325.7,119.9,336.5,130.7,349.8,130.7z"/>
	<text transform="matrix(1 0 0 1 201.7452 176.2629)"><tspan x="0" y="0" class="st1 st3 st4">Loneliness</tspan><tspan x="10" y="25" class="st1 st3 st4">Problem</tspan></text>
	<circle class="st5" cx="253.6" cy="183.5" r="147.2"/>
</g>
</svg>
