<svg width="240" height="241" viewBox="0 0 240 241" fill="none" xmlns="http://www.w3.org/2000/svg">
<path d="M0.102539 239.841C0.102539 107.72 107.177 0.629272 239.278 0.629272V239.841H0.102539Z" fill="#EC5447"/>
<path d="M239.89 50.6335C191.988 50.6335 148.22 68.1174 114.797 97.3932C75.07 132.213 49.9883 183.329 49.9883 240.305H239.89V50.6335Z" fill="#FDE9E7"/>
<path d="M48.4682 127.596C49.8585 125.26 51.2859 124.036 52.8802 123.369C55.3087 122.367 58.1449 122.553 60.5919 124.018C63.0389 125.482 64.5405 127.893 64.8186 130.507C64.9854 132.231 64.5776 134.067 63.1687 136.403L60.4065 141.019L45.7061 132.231L48.4682 127.614V127.596ZM55.0491 126.02C53.529 126.224 52.2128 127.058 51.1562 128.801L49.8956 130.896L59.5538 136.681L60.8144 134.586C61.8525 132.843 61.9637 131.286 61.4261 129.839C60.9812 128.671 60.0914 127.596 58.8679 126.854C57.6444 126.131 56.2726 125.853 55.0306 126.02H55.0491Z" fill="#FDE9E7"/>
<path d="M55.6055 116.286L57.4778 113.561L71.6036 123.257L69.7313 125.983L55.6055 116.286Z" fill="#FDE9E7"/>
<path d="M70.7132 116.583C72.1592 116.453 73.7163 115.767 74.6618 114.525C75.5516 113.357 75.4589 111.985 74.4764 111.224C72.7338 109.89 70.5834 112.244 68.1179 113.245C66.672 113.839 65.0963 113.987 63.5576 112.8C61.1292 110.946 61.4443 107.628 63.1683 105.384C64.225 103.994 65.5412 102.974 67.4691 102.418L68.3775 105.273C67.4506 105.421 66.3754 106.052 65.6895 106.942C64.9294 107.943 64.503 109.37 65.5597 110.168C67.7472 111.855 71.8811 105.05 76.4599 108.573C78.8699 110.427 78.8884 113.857 77.0161 116.305C75.6072 118.122 73.568 119.234 71.2137 119.66L70.7317 116.583H70.7132Z" fill="#FDE9E7"/>
<path d="M77.4616 101.676C79.9271 103.901 83.5235 103.716 85.7295 101.25C87.2125 99.5996 87.4906 97.6714 87.2125 96.0583L90.2341 95.7246C90.6605 98.1349 89.9561 100.935 87.8613 103.271C84.302 107.238 78.9075 107.424 75.237 104.124C71.5851 100.842 71.1587 95.4836 74.718 91.5158C76.4235 89.6247 78.5924 88.642 80.7242 88.4937L80.9652 91.59C79.5193 91.6642 77.9992 92.2575 76.8684 93.4997C74.6995 95.9285 74.9961 99.4883 77.4245 101.676H77.4616Z" fill="#FDE9E7"/>
<path d="M88.1949 77.944C92.0693 74.3471 97.4267 74.7736 100.726 78.3334C104.026 81.9117 104.026 87.27 100.152 90.8669C96.2773 94.4638 90.9199 94.0373 87.6202 90.4775C84.3204 86.8992 84.3204 81.5409 88.1949 77.944ZM98.1497 88.7162C100.523 86.5284 100.485 82.95 98.298 80.5768C96.1105 78.2036 92.5512 77.8884 90.1784 80.0947C87.8056 82.2825 87.8426 85.8609 90.0301 88.2156C92.2176 90.5888 95.7768 90.904 98.1497 88.6976V88.7162Z" fill="#FDE9E7"/>
<path d="M96.5557 70.676L99.2437 68.5994L110.107 74.9774L106.659 62.8518L109.347 60.7567L114.371 78.5558L112.535 79.9834L96.5557 70.676Z" fill="#FDE9E7"/>
<path d="M116.91 59.2921L118.857 62.2586L123.25 59.3662L124.863 61.8136L120.469 64.7059L123.102 68.6922L129.127 64.7245L130.739 67.1718L121.952 72.9565L112.535 58.6431L121.118 52.9882L122.731 55.4356L116.91 59.2735V59.2921Z" fill="#FDE9E7"/>
<path d="M132.723 57.2155L136.412 63.853L133.52 65.4661L125.196 50.5037L130.646 47.4631C132.185 46.6102 133.409 46.4804 134.539 46.7585C135.781 47.0737 136.894 47.8895 137.561 49.0761C138.228 50.2813 138.321 51.6533 137.932 52.877C137.746 53.4888 137.413 54.0636 136.931 54.5827L146.348 58.3279L142.77 60.3118L133.761 56.6407L132.704 57.2155H132.723ZM133.705 53.3219C134.539 52.8584 134.799 52.4876 134.91 52.0612C135.021 51.6347 134.947 51.1156 134.706 50.6892C134.447 50.2442 134.039 49.9104 133.631 49.7807C133.223 49.6509 132.741 49.6509 131.926 50.1144L129.534 51.4493L131.314 54.6569L133.705 53.3219Z" fill="#FDE9E7"/>
<path d="M207.912 13.5151L224.151 27.2909L210.378 43.5325" stroke="white" stroke-width="2" stroke-miterlimit="10"/>
</svg>
