<svg width="240" height="241" viewBox="0 0 240 241" fill="none" xmlns="http://www.w3.org/2000/svg">
<path d="M0.639038 0.57251C132.684 0.57251 239.721 107.626 239.721 239.692H0.639038V0.57251Z" fill="#44929F"/>
<path d="M190.077 240.767C190.077 135.994 105.155 51.0403 0.379517 51.0403V240.767H190.077Z" fill="#E2F0F2"/>
<path d="M102.727 62.0904L118.15 51.6335L120.115 52.8943L117.057 71.2866L114.146 69.4326L114.832 65.3721L109.048 61.664L105.637 63.9816L102.727 62.1275V62.0904ZM111.662 59.8285L115.333 62.1831L116.222 56.7507L111.662 59.847V59.8285Z" fill="#E2F0F2"/>
<path d="M129.31 59.0127L131.146 60.4403L131.832 75.106L138.672 66.2992L141.286 68.3201L130.775 81.8363L128.94 80.4086L128.254 65.743L121.413 74.5498L118.799 72.5288L129.31 58.9941V59.0127Z" fill="#E2F0F2"/>
<path d="M132.517 83.2639L149.554 75.7363L151.259 77.3308L144.956 94.8703L142.435 92.5157L143.844 88.6406L138.82 83.9499L135.057 85.6185L132.536 83.2639H132.517ZM141.712 82.652L144.901 85.6185L146.754 80.4271L141.712 82.652Z" fill="#E2F0F2"/>
<path d="M159.064 84.9883L161.307 87.4171L150.851 97.0397L155.745 102.361L153.576 104.345L146.439 96.5948L159.045 84.9883H159.064Z" fill="#E2F0F2"/>
<path d="M165.014 106.088L158.989 110.964L156.913 108.405L162.938 103.529L166.534 93.072L168.907 96.0014L166.59 102.713L173.616 101.842L175.989 104.771L165.014 106.106V106.088Z" fill="#E2F0F2"/>
<path d="M165.107 115.543L179.9 115.432L175.581 109.184L177.99 107.515L184.794 117.379L183.181 118.491L168.369 118.584L173.393 125.852L170.983 127.521L163.475 116.637L165.088 115.525L165.107 115.543Z" fill="#E2F0F2"/>
<path d="M186.555 125.908L183.496 127.706L186.166 132.248L183.626 133.732L180.957 129.189L176.841 131.6L180.493 137.829L177.954 139.312L172.633 130.228L187.408 121.55L192.617 130.413L190.077 131.896L186.555 125.889V125.908Z" fill="#E2F0F2"/>
<path d="M229.6 210.175L215.492 226.806L198.864 212.697" stroke="white" stroke-width="2" stroke-miterlimit="10"/>
</svg>
