<svg width="240" height="241" viewBox="0 0 240 241" fill="none" xmlns="http://www.w3.org/2000/svg">
<path d="M0.871094 0.351257C132.916 0.351257 239.953 107.405 239.953 239.471H0.871094V0.351257Z" fill="#44929F"/>
<path d="M190.309 240.546C190.309 135.772 105.388 50.819 0.611816 50.819V240.546H190.309Z" fill="#E2F0F2"/>
<path d="M102.959 61.8692L118.382 51.4122L120.347 52.673L117.289 71.0654L114.378 69.2113L115.064 65.1509L109.28 61.4427L105.869 63.7603L102.959 61.9063V61.8692ZM111.894 59.6072L115.565 61.9619L116.455 56.5295L111.894 59.6258V59.6072Z" fill="#E2F0F2"/>
<path d="M129.542 58.7914L131.377 60.2191L132.063 74.8847L138.904 66.0779L141.518 68.0989L131.007 81.615L129.171 80.1874L128.486 65.5217L121.645 74.3285L119.031 72.3076L129.542 58.7729V58.7914Z" fill="#E2F0F2"/>
<path d="M132.75 83.0427L149.786 75.5151L151.491 77.1096L145.188 94.6491L142.667 92.2945L144.076 88.4195L139.052 83.7287L135.289 85.3973L132.768 83.0427H132.75ZM141.944 82.4308L145.133 85.3973L146.987 80.2059L141.944 82.4308Z" fill="#E2F0F2"/>
<path d="M159.296 84.767L161.539 87.1958L151.083 96.8184L155.977 102.14L153.808 104.123L146.671 96.3734L159.277 84.767H159.296Z" fill="#E2F0F2"/>
<path d="M165.246 105.866L159.221 110.742L157.145 108.184L163.17 103.308L166.766 92.8507L169.139 95.7801L166.822 102.492L173.848 101.62L176.22 104.55L165.246 105.885V105.866Z" fill="#E2F0F2"/>
<path d="M165.339 115.322L180.132 115.211L175.813 108.963L178.223 107.294L185.026 117.158L183.413 118.27L168.602 118.363L173.625 125.631L171.215 127.299L163.708 116.416L165.32 115.303L165.339 115.322Z" fill="#E2F0F2"/>
<path d="M186.787 125.686L183.728 127.485L186.398 132.027L183.858 133.51L181.189 128.968L177.073 131.378L180.725 137.608L178.186 139.091L172.865 130.006L187.64 121.329L192.849 130.192L190.309 131.675L186.787 125.668V125.686Z" fill="#E2F0F2"/>
<path d="M229.832 209.954L215.725 226.585L199.096 212.475" stroke="white" stroke-width="2" stroke-miterlimit="10"/>
</svg>
