<svg width="241" height="241" viewBox="0 0 241 241" fill="none" xmlns="http://www.w3.org/2000/svg">
<path d="M0.87085 240.063C0.87085 107.942 107.945 0.850586 240.046 0.850586V240.063H0.87085Z" fill="#EC5447"/>
<path d="M240.658 50.8548C192.756 50.8548 148.988 68.3387 115.564 97.6144C75.8378 132.434 50.7561 183.551 50.7561 240.526H240.658V50.8548Z" fill="#FDE9E7"/>
<path d="M49.236 127.817C50.6263 125.481 52.0538 124.257 53.648 123.59C56.0765 122.589 58.9128 122.774 61.3598 124.239C63.8067 125.704 65.3083 128.114 65.5864 130.728C65.7532 132.452 65.3454 134.288 63.9365 136.624L61.1744 141.241L46.4739 132.452L49.236 127.836V127.817ZM55.8169 126.241C54.2968 126.445 52.9807 127.28 51.924 129.022L50.6634 131.117L60.3216 136.902L61.5822 134.807C62.6203 133.064 62.7316 131.507 62.194 130.061C61.749 128.893 60.8592 127.817 59.6357 127.076C58.4122 126.353 57.0404 126.074 55.7984 126.241H55.8169Z" fill="#FDE9E7"/>
<path d="M56.373 116.507L58.2454 113.782L72.3712 123.479L70.4989 126.204L56.373 116.507Z" fill="#FDE9E7"/>
<path d="M71.4813 116.804C72.9272 116.674 74.4844 115.988 75.4298 114.746C76.3197 113.578 76.227 112.206 75.2445 111.446C73.5019 110.111 71.3515 112.466 68.886 113.467C67.44 114.06 65.8643 114.208 64.3257 113.022C61.8972 111.168 62.2124 107.849 63.9364 105.605C64.993 104.215 66.3092 103.195 68.2372 102.639L69.1455 105.494C68.2186 105.643 67.1434 106.273 66.4575 107.163C65.6975 108.164 65.2711 109.592 66.3278 110.389C68.5152 112.076 72.6492 105.272 77.228 108.794C79.6379 110.649 79.6565 114.079 77.7841 116.526C76.3753 118.343 74.3361 119.455 71.9818 119.882L71.4998 116.804H71.4813Z" fill="#FDE9E7"/>
<path d="M78.2293 101.897C80.6948 104.122 84.2912 103.937 86.4972 101.471C87.9802 99.8209 88.2583 97.8927 87.9802 96.2796L91.0019 95.9459C91.4282 98.3562 90.7238 101.156 88.629 103.492C85.0697 107.46 79.6752 107.645 76.0047 104.345C72.3528 101.063 71.9264 95.7049 75.4857 91.7372C77.1912 89.846 79.3601 88.8634 81.4919 88.715L81.7329 91.8113C80.287 91.8855 78.7669 92.4788 77.6361 93.721C75.4672 96.1498 75.7638 99.7097 78.1922 101.897H78.2293Z" fill="#FDE9E7"/>
<path d="M88.9626 78.1653C92.837 74.5684 98.1944 74.9949 101.494 78.5547C104.794 82.133 104.794 87.4913 100.919 91.0882C97.045 94.6851 91.6876 94.2586 88.3879 90.6988C85.0881 87.1205 85.0881 81.7622 88.9626 78.1653ZM98.9174 88.9375C101.29 86.7497 101.253 83.1713 99.0657 80.7981C96.8782 78.4249 93.3189 78.1097 90.9461 80.316C88.5733 82.5038 88.6103 86.0822 90.7978 88.4369C92.9853 90.8101 96.5445 91.1253 98.9174 88.9189V88.9375Z" fill="#FDE9E7"/>
<path d="M97.323 70.8973L100.011 68.8207L110.874 75.1987L107.426 63.0731L110.114 60.978L115.138 78.7771L113.303 80.2047L97.323 70.8973Z" fill="#FDE9E7"/>
<path d="M117.678 59.5134L119.624 62.4799L124.017 59.5875L125.63 62.0349L121.237 64.9273L123.869 68.9135L129.894 64.9458L131.507 67.3932L122.72 73.1779L113.303 58.8644L121.886 53.2095L123.498 55.6569L117.678 59.4948V59.5134Z" fill="#FDE9E7"/>
<path d="M133.49 57.4368L137.179 64.0744L134.287 65.6874L125.964 50.7251L131.414 47.6844C132.953 46.8315 134.176 46.7017 135.307 46.9798C136.549 47.295 137.661 48.1108 138.329 49.2974C138.996 50.5026 139.089 51.8746 138.699 53.0983C138.514 53.7101 138.18 54.2849 137.698 54.804L147.116 58.5492L143.538 60.5331L134.528 56.862L133.472 57.4368H133.49ZM134.473 53.5432C135.307 53.0797 135.567 52.7089 135.678 52.2825C135.789 51.856 135.715 51.3369 135.474 50.9105C135.214 50.4655 134.807 50.1318 134.399 50.002C133.991 49.8722 133.509 49.8722 132.693 50.3357L130.302 51.6706L132.081 54.8782L134.473 53.5432Z" fill="#FDE9E7"/>
<path d="M208.68 13.7365L224.919 27.5122L211.145 43.7538" stroke="white" stroke-width="2" stroke-miterlimit="10"/>
</svg>
