<svg width="28" height="28" viewBox="0 0 28 28" fill="none" xmlns="http://www.w3.org/2000/svg">
<path d="M22.8832 3.68011C22.0743 3.24784 20.8888 3.24784 19.7557 3.78818C19.3857 6.05437 18.7569 8.68079 17.8203 10.8651C17.9579 11.019 18.0921 11.1828 18.21 11.3531C20.8266 8.44173 22.4051 5.64174 22.8799 3.68011H22.8832Z" fill="#7379AD"/>
<path d="M18.7834 1.30878C17.8665 1.14831 16.7334 1.57732 15.8164 2.49427C16.2913 4.76701 16.5565 7.39998 16.4681 9.78733C16.658 9.89213 16.8382 10.01 17.015 10.1377C18.4199 6.49285 18.9963 3.32608 18.7834 1.30878Z" fill="#7379AD"/>
<path d="M14.0936 0.5C13.1767 0.660467 12.2597 1.41695 11.7227 2.60245C12.9343 4.55097 14.0904 6.96453 14.7977 9.23726C15.0171 9.27001 15.2333 9.31258 15.4429 9.37481C15.528 5.4712 14.9942 2.30771 14.0936 0.5Z" fill="#7379AD"/>
<path d="M27.5734 16.5663C27.5734 15.6493 26.9806 14.6243 25.9032 13.8711C23.7418 14.7127 21.2202 15.4528 18.8426 15.7869C18.7739 15.9932 18.6887 16.1897 18.5938 16.3829C22.445 17.1034 25.6641 17.1492 27.5734 16.5663Z" fill="#7379AD"/>
<path d="M9.40423 1.30884C8.59535 1.79351 8.0026 2.81854 7.89453 4.1121C9.74481 5.53993 11.6442 7.38366 13.0917 9.28306C13.2915 9.24049 13.4978 9.21757 13.7041 9.20119C12.4728 5.52683 10.8877 2.73994 9.40423 1.30884Z" fill="#7379AD"/>
<path d="M19.0811 14.7029C22.9257 14.1036 25.9811 13.0426 27.5727 11.821C27.2485 10.9598 26.3315 10.1509 25.0937 9.82666C23.4071 11.3527 21.2097 12.9279 19.0974 14.0054C19.0974 14.0676 19.1073 14.1298 19.1073 14.192C19.1073 14.3623 19.0974 14.5326 19.0811 14.6996V14.7029Z" fill="#7379AD"/>
<path d="M25.9557 7.34755C25.3629 6.64673 24.2298 6.21445 22.9363 6.32252C21.8327 8.37585 20.3655 10.5765 18.7412 12.3351C18.8231 12.5382 18.8919 12.751 18.9475 12.9672C22.3665 11.0547 24.8422 9.04391 25.9557 7.34755Z" fill="#7379AD"/>
<path d="M14.0935 27.891C15.0104 27.7306 15.9274 26.9741 16.4644 25.7886C15.2527 23.8401 14.0967 21.4265 13.3894 19.1538C13.1699 19.121 12.9538 19.0785 12.7442 19.0162C12.6591 22.9198 13.1929 26.0833 14.0935 27.8878V27.891Z" fill="#7379AD"/>
<path d="M18.7833 27.0816C19.5921 26.5969 20.1849 25.5719 20.293 24.2783C18.5082 22.8636 16.576 20.9871 15.1318 19.0975C14.919 19.1434 14.7028 19.1729 14.4834 19.1892C15.7147 22.9127 17.2998 25.6505 18.7833 27.0816Z" fill="#7379AD"/>
<path d="M22.8831 24.7106C23.4759 23.9574 23.692 22.7686 23.3678 21.5307C21.1605 20.7939 18.7503 19.7492 16.7297 18.4491C16.543 18.5637 16.3531 18.6685 16.1533 18.7602C18.6455 21.8058 21.0263 23.8624 22.8831 24.7139V24.7106Z" fill="#7379AD"/>
<path d="M9.45636 27.0821C10.3733 27.1902 11.4507 26.8136 12.3677 25.8966C11.8928 23.6795 11.5752 20.9451 11.716 18.6035C11.5424 18.5086 11.3754 18.4005 11.2117 18.2859C9.7642 21.9177 9.1911 25.0746 9.45636 27.0854V27.0821Z" fill="#7379AD"/>
<path d="M5.30427 3.67993C4.71152 4.43642 4.49538 5.56624 4.81959 6.86307C7.02683 7.54751 9.43711 8.64131 11.4577 9.94469C11.6444 9.83007 11.8376 9.72201 12.0373 9.63358C9.59758 6.58799 7.16437 4.53139 5.30754 3.67993H5.30427Z" fill="#7379AD"/>
<path d="M0.614606 11.8245C0.614606 12.7938 1.20735 13.7665 2.28477 14.5197C4.39376 13.7304 7.01363 12.9412 9.34532 12.6039C9.41081 12.4139 9.48614 12.2306 9.57128 12.0537C5.7299 11.2383 2.57296 11.294 0.611328 11.8245H0.614606Z" fill="#7379AD"/>
<path d="M5.30469 24.7108C6.11357 25.1431 7.29907 25.1431 8.48456 24.6028C8.80222 22.3366 9.42771 19.7102 10.3643 17.5258C10.2169 17.3621 10.0761 17.1918 9.95168 17.0084C7.42023 19.982 5.78281 22.687 5.30469 24.7108Z" fill="#7379AD"/>
<path d="M2.23242 21.0428C2.82517 21.7436 3.95826 22.1759 5.25182 22.0678C6.30632 20.0636 7.82912 17.804 9.45999 16.0913C9.37157 15.8751 9.29952 15.6524 9.24057 15.4199C5.82492 17.2833 3.34587 19.3465 2.23242 21.0428Z" fill="#7379AD"/>
<path d="M17.6143 17.7516C20.9415 19.8344 23.9445 20.8824 25.9585 21.0428C26.2828 20.1259 26.0666 18.9928 25.3101 17.971C23.0407 17.971 20.3062 17.8138 18.0171 17.2997C17.8926 17.4569 17.7584 17.6108 17.6143 17.7516Z" fill="#7379AD"/>
<path d="M10.6098 10.6096C7.22038 8.61526 4.25338 7.50837 2.23281 7.3479C1.9086 8.26485 2.12474 9.45035 2.88123 10.4754C5.20636 10.423 7.83605 10.5802 10.1743 11.091C10.3086 10.9207 10.4526 10.7603 10.6098 10.6096Z" fill="#7379AD"/>
<path d="M9.10688 13.6878C5.26223 14.3395 2.2068 15.4006 0.615234 16.5664C0.939443 17.431 1.85639 18.1842 3.09428 18.5608C4.82995 17.0347 6.97824 15.4595 9.08723 14.333C9.08723 14.2871 9.08068 14.2413 9.08068 14.1922C9.08068 14.0219 9.09051 13.8516 9.10688 13.6846V13.6878Z" fill="#7379AD"/>
</svg>
