<svg width="619" height="429" viewBox="0 0 619 429" fill="none" xmlns="http://www.w3.org/2000/svg">
<path d="M399.431 222.99C399.431 280.15 353.091 326.49 295.931 326.49C238.771 326.49 192.431 280.15 192.431 222.99C192.431 165.83 238.771 119.49 295.931 119.49C353.091 119.49 399.431 165.83 399.431 222.99ZM295.941 68.6396C210.691 68.6396 141.581 137.75 141.581 223C141.581 308.25 210.691 377.36 295.941 377.36C381.191 377.36 450.301 308.25 450.301 223C450.301 137.75 381.191 68.6396 295.941 68.6396Z" stroke="white" stroke-miterlimit="10"/>
<path d="M247.191 33.4004C248.751 33.4004 250.031 34.6804 250.031 36.2404C250.031 37.8004 248.751 39.0804 247.191 39.0804C245.631 39.0804 244.351 37.8004 244.351 36.2404C244.351 34.6804 245.631 33.4004 247.191 33.4004Z" fill="#41451B"/>
<path d="M260.391 32C261.691 32 262.921 32.53 263.711 33.4L262.841 34.26C262.311 33.68 261.361 33.24 260.391 33.24C258.531 33.24 257.101 34.72 257.101 36.68C257.101 38.64 258.581 40.12 260.511 40.12C261.731 40.12 262.611 39.45 263.121 38.84L264.041 39.67C263.261 40.67 261.911 41.36 260.511 41.36C257.801 41.36 255.801 39.38 255.801 36.69C255.801 34 257.771 32.02 260.391 32.02V32Z" fill="white"/>
<path d="M269.48 32C272.05 32 274.02 34.02 274.02 36.67C274.02 39.32 272.05 41.34 269.48 41.34C266.91 41.34 264.94 39.32 264.94 36.67C264.94 34.02 266.91 32 269.48 32ZM269.48 40.1C271.34 40.1 272.72 38.63 272.72 36.66C272.72 34.69 271.33 33.22 269.48 33.22C267.63 33.22 266.24 34.7 266.24 36.66C266.24 38.62 267.63 40.1 269.48 40.1Z" fill="white"/>
<path d="M280.82 39.2599H279.91L277.25 35.0999V41.2099H275.95V32.1299H276.86L280.36 37.6699L283.86 32.1299H284.77V41.2099H283.47V35.0999L280.81 39.2599H280.82Z" fill="white"/>
<path d="M292.291 39.2599H291.381L288.721 35.0999V41.2099H287.421V32.1299H288.331L291.831 37.6699L295.331 32.1299H296.241V41.2099H294.941V35.0999L292.281 39.2599H292.291Z" fill="white"/>
<path d="M303.18 35.6999V36.9299H300.2V39.9799H304.22V41.2099H298.9V32.1299H304.09V33.3599H300.2V35.6899H303.18V35.6999Z" fill="white"/>
<path d="M307.521 36.9299V41.2099H306.221V32.1299H309.401C310.231 32.1299 310.751 32.3199 311.161 32.6599C311.701 33.0999 312.061 33.7799 312.061 34.5299C312.061 35.2799 311.711 35.9599 311.161 36.3999C310.871 36.6299 310.551 36.7999 310.101 36.8799L313.351 41.2099H311.781L308.551 36.9299H307.511H307.521ZM309.341 35.6999C309.921 35.6999 310.221 35.5699 310.431 35.3599C310.641 35.1499 310.771 34.8499 310.771 34.5299C310.771 34.2099 310.641 33.9099 310.431 33.6999C310.221 33.4899 309.921 33.3599 309.341 33.3599H307.521V35.6899H309.341V35.6999Z" fill="white"/>
<path d="M318.401 32C319.701 32 320.931 32.53 321.721 33.4L320.851 34.26C320.321 33.68 319.371 33.24 318.401 33.24C316.551 33.24 315.111 34.72 315.111 36.68C315.111 38.64 316.591 40.12 318.521 40.12C319.741 40.12 320.621 39.45 321.131 38.84L322.051 39.67C321.271 40.67 319.921 41.36 318.521 41.36C315.811 41.36 313.811 39.38 313.811 36.69C313.811 34 315.781 32.02 318.401 32.02V32Z" fill="white"/>
<path d="M323.791 32.1299H325.091V41.2099H323.791V32.1299Z" fill="white"/>
<path d="M332.761 38.8701H328.931L327.981 41.2001H326.631L330.391 32.1201H331.301L335.061 41.2001H333.711L332.751 38.8701H332.761ZM329.461 37.6401H332.261L330.861 34.2701L329.461 37.6401Z" fill="white"/>
<path d="M337.92 39.9799H341.94V41.2099H336.62V32.1299H337.92V39.9799Z" fill="white"/>
<path d="M258.081 55.4003V46.3203H261.171C262.051 46.3203 262.611 46.5703 263.041 46.9603C263.511 47.3903 263.791 48.0103 263.791 48.6903C263.791 49.3103 263.501 49.9103 263.081 50.3103C263.941 50.7403 264.571 51.6703 264.571 52.7003C264.571 53.5403 264.181 54.3103 263.571 54.8003C263.101 55.1903 262.511 55.4103 261.591 55.4103H258.091L258.081 55.4003ZM260.931 49.8903C261.661 49.8903 261.971 49.7503 262.171 49.5103C262.371 49.3003 262.481 49.0303 262.481 48.7203C262.481 48.4103 262.361 48.1403 262.171 47.9303C261.961 47.7003 261.651 47.5503 260.931 47.5503H259.371V49.8803H260.931V49.8903ZM261.351 54.1703C262.171 54.1703 262.561 53.9903 262.841 53.7003C263.101 53.4303 263.271 53.0503 263.271 52.6403C263.271 52.2303 263.101 51.8603 262.841 51.5903C262.551 51.3003 262.171 51.1203 261.351 51.1203H259.381V54.1703H261.351Z" fill="white"/>
<path d="M267.261 54.3403C266.681 53.7003 266.311 52.8603 266.311 51.6403V46.3203H267.611V51.7003C267.611 52.5603 267.821 53.0903 268.181 53.4903C268.631 54.0003 269.311 54.2903 270.071 54.2903C270.831 54.2903 271.511 53.9903 271.961 53.4903C272.321 53.0903 272.531 52.5603 272.531 51.7003V46.3203H273.831V51.6403C273.831 52.8603 273.471 53.7003 272.881 54.3403C272.191 55.0803 271.181 55.5303 270.071 55.5303C268.961 55.5303 267.941 55.0803 267.261 54.3403Z" fill="white"/>
<path d="M276.281 53.14C276.811 53.79 277.561 54.31 278.501 54.31C279.341 54.31 280.081 53.77 280.081 52.95C280.081 51.56 278.161 51.41 276.951 50.62C276.301 50.19 275.801 49.57 275.801 48.62C275.801 47.3 276.971 46.21 278.551 46.21C279.701 46.21 280.511 46.72 280.991 47.12L280.221 48.07C279.731 47.65 279.171 47.45 278.601 47.45C277.851 47.45 277.101 47.88 277.101 48.67C277.101 49.82 279.031 50.07 280.201 50.85C280.811 51.25 281.381 51.89 281.381 52.93C281.381 54.53 280.151 55.56 278.571 55.56C277.321 55.56 276.201 55.02 275.391 54.04L276.281 53.16V53.14Z" fill="white"/>
<path d="M283.381 46.3301H284.681V55.4101H283.381V46.3301Z" fill="white"/>
<path d="M288.631 48.7401V55.4101H287.331V46.3301H288.241L293.691 53.0001V46.3301H294.991V55.4101H294.081L288.631 48.7401Z" fill="white"/>
<path d="M301.921 49.8903V51.1203H298.941V54.1703H302.961V55.4003H297.641V46.3203H302.831V47.5503H298.941V49.8803H301.921V49.8903Z" fill="white"/>
<path d="M305.08 53.14C305.61 53.79 306.36 54.31 307.3 54.31C308.14 54.31 308.88 53.77 308.88 52.95C308.88 51.56 306.96 51.41 305.75 50.62C305.1 50.19 304.6 49.57 304.6 48.62C304.6 47.3 305.77 46.21 307.35 46.21C308.5 46.21 309.31 46.72 309.79 47.12L309.03 48.07C308.54 47.65 307.98 47.45 307.41 47.45C306.66 47.45 305.91 47.88 305.91 48.67C305.91 49.82 307.84 50.07 309.01 50.85C309.62 51.25 310.19 51.89 310.19 52.93C310.19 54.53 308.96 55.56 307.38 55.56C306.13 55.56 305.01 55.02 304.2 54.04L305.09 53.16L305.08 53.14Z" fill="white"/>
<path d="M312.171 53.14C312.701 53.79 313.451 54.31 314.391 54.31C315.231 54.31 315.971 53.77 315.971 52.95C315.971 51.56 314.051 51.41 312.851 50.62C312.201 50.19 311.701 49.57 311.701 48.62C311.701 47.3 312.871 46.21 314.451 46.21C315.601 46.21 316.411 46.72 316.891 47.12L316.121 48.07C315.631 47.65 315.071 47.45 314.501 47.45C313.751 47.45 313.001 47.88 313.001 48.67C313.001 49.82 314.931 50.07 316.101 50.85C316.711 51.25 317.281 51.89 317.281 52.93C317.281 54.53 316.051 55.56 314.471 55.56C313.231 55.56 312.101 55.02 311.291 54.04L312.191 53.16L312.171 53.14Z" fill="white"/>
<path d="M323.551 49.8903V51.1203H320.57V54.1703H324.591V55.4003H319.271V46.3203H324.461V47.5503H320.57V49.8803H323.551V49.8903Z" fill="white"/>
<path d="M326.721 53.14C327.251 53.79 328.001 54.31 328.941 54.31C329.781 54.31 330.521 53.77 330.521 52.95C330.521 51.56 328.601 51.41 327.391 50.62C326.741 50.19 326.241 49.57 326.241 48.62C326.241 47.3 327.411 46.21 328.991 46.21C330.141 46.21 330.951 46.72 331.431 47.12L330.671 48.07C330.181 47.65 329.621 47.45 329.051 47.45C328.301 47.45 327.551 47.88 327.551 48.67C327.551 49.82 329.481 50.07 330.651 50.85C331.261 51.25 331.831 51.89 331.831 52.93C331.831 54.53 330.601 55.56 329.021 55.56C327.771 55.56 326.651 55.02 325.841 54.04L326.731 53.16L326.721 53.14Z" fill="white"/>
<path d="M425.361 111.68C426.921 111.68 428.201 112.96 428.201 114.52C428.201 116.08 426.921 117.36 425.361 117.36C423.801 117.36 422.521 116.08 422.521 114.52C422.521 112.96 423.801 111.68 425.361 111.68Z" fill="#A2C852"/>
<path d="M438.961 113.979V115.209H435.981V119.489H434.681V110.409H439.871V111.639H435.981V113.969H438.961V113.979Z" fill="white"/>
<path d="M441.62 110.409H442.92V119.489H441.62V110.409Z" fill="white"/>
<path d="M446.87 112.819V119.489H445.57V110.409H446.48L451.93 117.079V110.409H453.23V119.489H452.32L446.87 112.819Z" fill="white"/>
<path d="M460.901 117.149H457.07L456.121 119.479H454.771L458.531 110.399H459.441L463.201 119.479H461.85L460.891 117.149H460.901ZM457.591 115.919H460.391L458.991 112.549L457.591 115.919Z" fill="white"/>
<path d="M466.051 112.819V119.489H464.751V110.409H465.661L471.111 117.079V110.409H472.411V119.489H471.501L466.051 112.819Z" fill="white"/>
<path d="M478.941 110.279C480.241 110.279 481.471 110.809 482.261 111.679L481.391 112.539C480.861 111.959 479.911 111.519 478.941 111.519C477.091 111.519 475.651 112.999 475.651 114.959C475.651 116.919 477.131 118.399 479.061 118.399C480.281 118.399 481.161 117.729 481.671 117.119L482.591 117.949C481.811 118.949 480.461 119.639 479.061 119.639C476.351 119.639 474.351 117.659 474.351 114.969C474.351 112.279 476.321 110.299 478.941 110.299V110.279Z" fill="white"/>
<path d="M484.33 110.409H485.63V119.489H484.33V110.409Z" fill="white"/>
<path d="M493.301 117.149H489.471L488.521 119.479H487.171L490.931 110.399H491.841L495.601 119.479H494.251L493.291 117.149H493.301ZM489.991 115.919H492.791L491.391 112.549L489.991 115.919Z" fill="white"/>
<path d="M498.46 118.259H502.48V119.489H497.16V110.409H498.46V118.259Z" fill="white"/>
<path d="M434.851 124.609H436.151V133.689H434.851V124.609Z" fill="white"/>
<path d="M440.101 127.019V133.689H438.801V124.609H439.711L445.161 131.279V124.609H446.461V133.689H445.551L440.101 127.019Z" fill="white"/>
<path d="M449.22 131.419C449.75 132.069 450.5 132.589 451.44 132.589C452.28 132.589 453.02 132.049 453.02 131.229C453.02 129.839 451.1 129.689 449.89 128.899C449.24 128.469 448.74 127.849 448.74 126.899C448.74 125.579 449.91 124.489 451.49 124.489C452.64 124.489 453.45 124.999 453.93 125.399L453.16 126.349C452.67 125.929 452.11 125.729 451.54 125.729C450.79 125.729 450.04 126.159 450.04 126.949C450.04 128.099 451.97 128.349 453.14 129.129C453.75 129.529 454.32 130.169 454.32 131.209C454.32 132.809 453.09 133.839 451.51 133.839C450.26 133.839 449.14 133.299 448.33 132.319L449.22 131.439V131.419Z" fill="white"/>
<path d="M455.091 124.609H461.321V125.839H458.861V133.689H457.561V125.839H455.101V124.609H455.091Z" fill="white"/>
<path d="M463.001 124.609H464.301V133.689H463.001V124.609Z" fill="white"/>
<path d="M465.98 124.609H472.21V125.839H469.75V133.689H468.45V125.839H465.99V124.609H465.98Z" fill="white"/>
<path d="M474.711 132.62C474.131 131.98 473.761 131.14 473.761 129.92V124.6H475.061V129.98C475.061 130.84 475.271 131.37 475.631 131.77C476.081 132.28 476.761 132.57 477.521 132.57C478.281 132.57 478.961 132.27 479.411 131.77C479.771 131.37 479.981 130.84 479.981 129.98V124.6H481.281V129.92C481.281 131.14 480.921 131.98 480.331 132.62C479.641 133.36 478.631 133.81 477.521 133.81C476.411 133.81 475.391 133.36 474.711 132.62Z" fill="white"/>
<path d="M482.83 124.609H489.06V125.839H486.6V133.689H485.3V125.839H482.84V124.609H482.83Z" fill="white"/>
<path d="M490.74 124.609H492.04V133.689H490.74V124.609Z" fill="white"/>
<path d="M498.52 124.479C501.09 124.479 503.06 126.499 503.06 129.149C503.06 131.799 501.09 133.819 498.52 133.819C495.95 133.819 493.98 131.799 493.98 129.149C493.98 126.499 495.95 124.479 498.52 124.479ZM498.52 132.579C500.37 132.579 501.76 131.109 501.76 129.139C501.76 127.169 500.37 125.699 498.52 125.699C496.67 125.699 495.28 127.179 495.28 129.139C495.28 131.099 496.67 132.579 498.52 132.579Z" fill="white"/>
<path d="M506.301 127.019V133.689H505.001V124.609H505.911L511.361 131.279V124.609H512.661V133.689H511.751L506.301 127.019Z" fill="white"/>
<path d="M515.42 131.419C515.95 132.069 516.7 132.589 517.64 132.589C518.48 132.589 519.22 132.049 519.22 131.229C519.22 129.839 517.3 129.689 516.09 128.899C515.44 128.469 514.94 127.849 514.94 126.899C514.94 125.579 516.11 124.489 517.69 124.489C518.84 124.489 519.65 124.999 520.13 125.399L519.36 126.349C518.87 125.929 518.31 125.729 517.74 125.729C516.99 125.729 516.24 126.159 516.24 126.949C516.24 128.099 518.17 128.349 519.34 129.129C519.95 129.529 520.52 130.169 520.52 131.209C520.52 132.809 519.29 133.839 517.71 133.839C516.46 133.839 515.34 133.299 514.53 132.319L515.42 131.439V131.419Z" fill="white"/>
<path d="M456.711 260.96C458.271 260.96 459.551 262.24 459.551 263.8C459.551 265.36 458.271 266.64 456.711 266.64C455.151 266.64 453.871 265.36 453.871 263.8C453.871 262.24 455.151 260.96 456.711 260.96Z" fill="#EC5447"/>
<path d="M467.331 264.74V268.76H466.031V259.68H469.471C470.351 259.68 470.921 259.9 471.361 260.28C471.901 260.75 472.261 261.43 472.261 262.21C472.261 262.99 471.911 263.68 471.361 264.14C470.921 264.52 470.351 264.74 469.471 264.74H467.331ZM469.411 263.51C470.031 263.51 470.371 263.35 470.601 263.11C470.821 262.88 470.961 262.57 470.961 262.21C470.961 261.85 470.821 261.55 470.601 261.31C470.371 261.06 470.031 260.91 469.411 260.91H467.331V263.5H469.411V263.51Z" fill="white"/>
<path d="M474.951 267.7C474.371 267.06 474.001 266.22 474.001 265V259.68H475.301V265.06C475.301 265.92 475.511 266.45 475.871 266.85C476.321 267.36 477.001 267.65 477.761 267.65C478.521 267.65 479.201 267.35 479.651 266.85C480.011 266.45 480.221 265.92 480.221 265.06V259.68H481.521V265C481.521 266.22 481.161 267.06 480.571 267.7C479.881 268.44 478.871 268.89 477.761 268.89C476.651 268.89 475.631 268.44 474.951 267.7Z" fill="white"/>
<path d="M484.051 268.76V259.68H487.141C488.021 259.68 488.581 259.93 489.011 260.32C489.481 260.75 489.761 261.37 489.761 262.05C489.761 262.67 489.471 263.27 489.051 263.67C489.911 264.1 490.541 265.03 490.541 266.06C490.541 266.9 490.151 267.67 489.541 268.16C489.071 268.55 488.481 268.77 487.551 268.77H484.051V268.76ZM486.901 263.25C487.631 263.25 487.941 263.11 488.151 262.87C488.341 262.66 488.461 262.39 488.461 262.08C488.461 261.77 488.341 261.5 488.151 261.29C487.941 261.06 487.631 260.91 486.901 260.91H485.341V263.24H486.901V263.25ZM487.321 267.53C488.141 267.53 488.531 267.35 488.811 267.06C489.071 266.79 489.241 266.41 489.241 266C489.241 265.59 489.071 265.22 488.811 264.95C488.521 264.66 488.141 264.48 487.321 264.48H485.351V267.53H487.321Z" fill="white"/>
<path d="M493.771 267.53H497.791V268.76H492.471V259.68H493.771V267.53Z" fill="white"/>
<path d="M499.541 259.68H500.841V268.76H499.541V259.68Z" fill="white"/>
<path d="M507.371 259.55C508.671 259.55 509.901 260.08 510.691 260.95L509.821 261.81C509.291 261.23 508.341 260.79 507.371 260.79C505.511 260.79 504.081 262.27 504.081 264.23C504.081 266.19 505.561 267.67 507.491 267.67C508.711 267.67 509.591 267 510.101 266.39L511.021 267.22C510.241 268.22 508.891 268.91 507.491 268.91C504.781 268.91 502.781 266.93 502.781 264.24C502.781 261.55 504.751 259.57 507.371 259.57V259.55Z" fill="white"/>
<path d="M517.881 264.74V268.76H516.581V259.68H520.021C520.901 259.68 521.471 259.9 521.911 260.28C522.451 260.75 522.801 261.43 522.801 262.21C522.801 262.99 522.451 263.68 521.911 264.14C521.471 264.52 520.901 264.74 520.021 264.74H517.881ZM519.961 263.51C520.581 263.51 520.921 263.35 521.151 263.11C521.371 262.88 521.511 262.57 521.511 262.21C521.511 261.85 521.371 261.55 521.151 261.31C520.921 261.06 520.581 260.91 519.961 260.91H517.881V263.5H519.961V263.51Z" fill="white"/>
<path d="M528.581 259.55C531.151 259.55 533.121 261.57 533.121 264.22C533.121 266.87 531.151 268.89 528.581 268.89C526.011 268.89 524.041 266.87 524.041 264.22C524.041 261.57 526.011 259.55 528.581 259.55ZM528.581 267.66C530.431 267.66 531.821 266.19 531.821 264.22C531.821 262.25 530.431 260.78 528.581 260.78C526.731 260.78 525.341 262.26 525.341 264.22C525.341 266.18 526.731 267.66 528.581 267.66Z" fill="white"/>
<path d="M536.362 267.53H540.382V268.76H535.062V259.68H536.362V267.53Z" fill="white"/>
<path d="M542.121 259.68H543.421V268.76H542.121V259.68Z" fill="white"/>
<path d="M549.951 259.55C551.251 259.55 552.481 260.08 553.271 260.95L552.401 261.81C551.871 261.23 550.921 260.79 549.951 260.79C548.101 260.79 546.661 262.27 546.661 264.23C546.661 266.19 548.141 267.67 550.071 267.67C551.291 267.67 552.171 267 552.681 266.39L553.601 267.22C552.821 268.22 551.471 268.91 550.071 268.91C547.361 268.91 545.361 266.93 545.361 264.24C545.361 261.55 547.331 259.57 549.951 259.57V259.55Z" fill="white"/>
<path d="M558.521 264.61V268.76H557.221V264.61L554.111 259.68H555.561L557.871 263.32L560.181 259.68H561.631L558.521 264.61Z" fill="white"/>
<path d="M470.241 281.01H469.331L466.671 276.85V282.96H465.371V273.88H466.281L469.781 279.42L473.281 273.88H474.191V282.96H472.891V276.85L470.231 281.01H470.241Z" fill="white"/>
<path d="M481.871 280.62H478.041L477.091 282.95H475.741L479.501 273.87H480.411L484.171 282.95H482.821L481.861 280.62H481.871ZM478.561 279.39H481.361L479.961 276.02L478.561 279.39Z" fill="white"/>
<path d="M485.731 273.88H487.031V277.71L490.771 273.88H492.481L488.381 278.1L492.741 282.96H491.081L487.031 278.42V282.96H485.731V273.88Z" fill="white"/>
<path d="M498.761 277.45V278.68H495.781V281.73H499.801V282.96H494.481V273.88H499.671V275.11H495.781V277.44H498.761V277.45Z" fill="white"/>
<path d="M503.101 278.68V282.96H501.801V273.88H504.981C505.811 273.88 506.331 274.07 506.741 274.41C507.281 274.85 507.631 275.53 507.631 276.28C507.631 277.03 507.281 277.71 506.741 278.15C506.451 278.38 506.131 278.55 505.681 278.63L508.941 282.96H507.371L504.141 278.68H503.101ZM504.911 277.45C505.491 277.45 505.791 277.32 506.001 277.11C506.211 276.9 506.341 276.6 506.341 276.28C506.341 275.96 506.211 275.66 506.001 275.45C505.791 275.24 505.491 275.11 504.911 275.11H503.091V277.44H504.911V277.45Z" fill="white"/>
<path d="M510.471 280.69C511.001 281.34 511.751 281.86 512.691 281.86C513.531 281.86 514.271 281.32 514.271 280.5C514.271 279.11 512.351 278.96 511.141 278.17C510.491 277.74 509.991 277.12 509.991 276.17C509.991 274.85 511.161 273.76 512.741 273.76C513.891 273.76 514.701 274.27 515.181 274.67L514.421 275.62C513.931 275.2 513.371 275 512.801 275C512.051 275 511.301 275.43 511.301 276.22C511.301 277.37 513.231 277.62 514.401 278.4C515.011 278.8 515.581 279.44 515.581 280.48C515.581 282.08 514.351 283.11 512.771 283.11C511.521 283.11 510.401 282.57 509.591 281.59L510.481 280.71L510.471 280.69Z" fill="white"/>
<path d="M370.267 370.072C370.267 368.51 371.545 367.232 373.107 367.232C374.669 367.232 375.947 368.51 375.947 370.072C375.947 371.634 374.669 372.912 373.107 372.912C371.545 372.912 370.267 371.634 370.267 370.072Z" fill="#9A1A10"/>
<path d="M379.539 367.901H382.52V369.132H379.539V373.409H378.243V364.337H383.427V365.568H379.539V367.901ZM384.01 368.873C384.01 366.229 385.98 364.208 388.546 364.208C391.112 364.208 393.082 366.229 393.082 368.873C393.082 371.517 391.112 373.539 388.546 373.539C385.98 373.539 384.01 371.517 384.01 368.873ZM385.306 368.873C385.306 370.843 386.693 372.308 388.546 372.308C390.4 372.308 391.786 370.843 391.786 368.873C391.786 366.916 390.4 365.439 388.546 365.439C386.693 365.439 385.306 366.916 385.306 368.873ZM398.452 373.539C397.337 373.539 396.326 373.085 395.639 372.346C395.056 371.711 394.693 370.869 394.693 369.651V364.337H395.989V369.716C395.989 370.571 396.197 371.102 396.559 371.504C397.013 372.009 397.687 372.308 398.452 372.308C399.216 372.308 399.89 372.009 400.344 371.504C400.707 371.102 400.914 370.571 400.914 369.716V364.337H402.21V369.651C402.21 370.869 401.847 371.711 401.264 372.346C400.577 373.085 399.566 373.539 398.452 373.539ZM411.155 373.409L405.712 366.748V373.409H404.416V364.337H405.323L410.767 370.999V364.337H412.063V373.409H411.155ZM420.74 368.873C420.74 367.862 420.325 366.942 419.638 366.333C419.068 365.841 418.316 365.568 417.046 365.568H415.685V372.178H417.046C418.316 372.178 419.068 371.906 419.638 371.413C420.325 370.804 420.74 369.884 420.74 368.873ZM417.111 373.409H414.389V364.337H417.111C418.55 364.337 419.483 364.648 420.221 365.193C421.336 366.022 422.036 367.37 422.036 368.873C422.036 370.377 421.349 371.724 420.234 372.554C419.496 373.098 418.55 373.409 417.111 373.409ZM429.438 373.409L428.479 371.076H424.656L423.71 373.409H422.362L426.121 364.337H427.028L430.786 373.409H429.438ZM426.574 366.476L425.175 369.845H427.974L426.574 366.476ZM430.276 365.568V364.337H436.496V365.568H434.034V373.409H432.738V365.568H430.276ZM437.854 373.409V364.337H439.15V373.409H437.854ZM440.774 368.873C440.774 366.229 442.744 364.208 445.31 364.208C447.876 364.208 449.846 366.229 449.846 368.873C449.846 371.517 447.876 373.539 445.31 373.539C442.744 373.539 440.774 371.517 440.774 368.873ZM442.07 368.873C442.07 370.843 443.456 372.308 445.31 372.308C447.163 372.308 448.55 370.843 448.55 368.873C448.55 366.916 447.163 365.439 445.31 365.439C443.456 365.439 442.07 366.916 442.07 368.873ZM458.199 373.409L452.756 366.748V373.409H451.46V364.337H452.367L457.81 370.999V364.337H459.106V373.409H458.199ZM460.655 372.022L461.549 371.141C462.081 371.789 462.832 372.308 463.765 372.308C464.608 372.308 465.347 371.763 465.347 370.947C465.347 369.56 463.429 369.405 462.223 368.614C461.575 368.186 461.07 367.564 461.07 366.618C461.07 365.296 462.236 364.208 463.817 364.208C464.971 364.208 465.774 364.713 466.254 365.115L465.489 366.061C464.997 365.646 464.439 365.439 463.869 365.439C463.117 365.439 462.366 365.866 462.366 366.657C462.366 367.81 464.297 368.057 465.463 368.834C466.072 369.236 466.643 369.871 466.643 370.908C466.643 372.502 465.411 373.539 463.83 373.539C462.586 373.539 461.459 372.994 460.655 372.022Z" fill="white"/>
<path d="M121.891 374.36C123.451 374.36 124.731 375.64 124.731 377.2C124.731 378.76 123.451 380.04 121.891 380.04C120.331 380.04 119.051 378.76 119.051 377.2C119.051 375.64 120.331 374.36 121.891 374.36Z" fill="#454B78"/>
<path d="M135.491 376.65V377.88H132.511V382.16H131.211V373.08H136.401V374.31H132.511V376.64H135.491V376.65Z" fill="white"/>
<path d="M142.451 379.83H138.621L137.671 382.16H136.321L140.081 373.08H140.991L144.751 382.16H143.401L142.441 379.83H142.451ZM139.151 378.6H141.951L140.551 375.23L139.151 378.6Z" fill="white"/>
<path d="M151.182 380.22H150.272L147.612 376.06V382.17H146.312V373.09H147.222L150.722 378.63L154.222 373.09H155.132V382.17H153.832V376.06L151.172 380.22H151.182Z" fill="white"/>
<path d="M157.791 373.09H159.091V382.17H157.791V373.09Z" fill="white"/>
<path d="M163.041 380.93H167.061V382.16H161.741V373.08H163.041V380.93Z" fill="white"/>
<path d="M171.531 378.01V382.16H170.231V378.01L167.121 373.08H168.571L170.881 376.72L173.191 373.08H174.641L171.531 378.01Z" fill="white"/>
<path d="M183.521 372.96C186.091 372.96 188.061 374.98 188.061 377.63C188.061 380.28 186.091 382.3 183.521 382.3C180.951 382.3 178.981 380.28 178.981 377.63C178.981 374.98 180.951 372.96 183.521 372.96ZM183.521 381.06C185.371 381.06 186.761 379.59 186.761 377.62C186.761 375.65 185.371 374.18 183.521 374.18C181.671 374.18 180.281 375.66 180.281 377.62C180.281 379.58 181.671 381.06 183.521 381.06Z" fill="white"/>
<path d="M194.281 376.65V377.88H191.301V382.16H190.001V373.08H195.191V374.31H191.301V376.64H194.281V376.65Z" fill="white"/>
<path d="M201.212 376.65V377.88H198.232V382.16H196.932V373.08H202.122V374.31H198.232V376.64H201.212V376.65Z" fill="white"/>
<path d="M203.871 373.09H205.171V382.17H203.871V373.09Z" fill="white"/>
<path d="M211.701 372.96C213.001 372.96 214.231 373.49 215.021 374.36L214.151 375.22C213.621 374.64 212.671 374.2 211.701 374.2C209.841 374.2 208.411 375.68 208.411 377.64C208.411 379.6 209.891 381.08 211.821 381.08C213.041 381.08 213.921 380.41 214.431 379.8L215.351 380.63C214.571 381.63 213.221 382.32 211.821 382.32C209.111 382.32 207.111 380.34 207.111 377.65C207.111 374.96 209.081 372.98 211.701 372.98V372.96Z" fill="white"/>
<path d="M221.371 376.65V377.88H218.391V380.93H222.411V382.16H217.091V373.08H222.281V374.31H218.391V376.64H221.371V376.65Z" fill="white"/>
<path d="M224.531 379.89C225.061 380.54 225.811 381.06 226.751 381.06C227.591 381.06 228.331 380.52 228.331 379.7C228.331 378.31 226.411 378.16 225.201 377.37C224.551 376.94 224.051 376.32 224.051 375.37C224.051 374.05 225.221 372.96 226.801 372.96C227.951 372.96 228.761 373.47 229.241 373.87L228.481 374.82C227.991 374.4 227.431 374.2 226.861 374.2C226.111 374.2 225.361 374.63 225.361 375.42C225.361 376.57 227.291 376.82 228.461 377.6C229.071 378 229.641 378.64 229.641 379.68C229.641 381.28 228.411 382.31 226.831 382.31C225.581 382.31 224.461 381.77 223.651 380.79L224.541 379.91L224.531 379.89Z" fill="white"/>
<path d="M112.791 396.36L117.021 387.28H118.301L114.071 396.36H112.781H112.791Z" fill="white"/>
<path d="M123.941 387.15C126.511 387.15 128.481 389.17 128.481 391.82C128.481 394.47 126.511 396.49 123.941 396.49C121.371 396.49 119.401 394.47 119.401 391.82C119.401 389.17 121.371 387.15 123.941 387.15ZM123.941 395.26C125.801 395.26 127.181 393.79 127.181 391.82C127.181 389.85 125.791 388.38 123.941 388.38C122.091 388.38 120.701 389.86 120.701 391.82C120.701 393.78 122.091 395.26 123.941 395.26Z" fill="white"/>
<path d="M129.051 387.28H135.281V388.51H132.821V396.36H131.521V388.51H129.061V387.28H129.051Z" fill="white"/>
<path d="M143.321 392.08H138.261V396.36H136.961V387.28H138.261V390.85H143.321V387.28H144.621V396.36H143.321V392.08Z" fill="white"/>
<path d="M151.551 390.85V392.08H148.571V395.13H152.591V396.36H147.271V387.28H152.461V388.51H148.571V390.84H151.551V390.85Z" fill="white"/>
<path d="M155.891 392.08V396.36H154.591V387.28H157.771C158.601 387.28 159.121 387.47 159.531 387.81C160.071 388.25 160.421 388.93 160.421 389.68C160.421 390.43 160.071 391.11 159.531 391.55C159.241 391.78 158.921 391.95 158.471 392.03L161.721 396.36H160.151L156.921 392.08H155.881H155.891ZM157.711 390.85C158.291 390.85 158.591 390.72 158.801 390.51C159.011 390.3 159.141 390 159.141 389.68C159.141 389.36 159.011 389.06 158.801 388.85C158.591 388.64 158.291 388.51 157.711 388.51H155.891V390.84H157.711V390.85Z" fill="white"/>
<path d="M167.041 387.28H168.341V396.36H167.041V387.28Z" fill="white"/>
<path d="M172.291 389.7V396.37H170.991V387.29H171.901L177.351 393.96V387.29H178.651V396.37H177.741L172.291 389.7Z" fill="white"/>
<path d="M184.731 396.36H183.821L180.251 387.28H181.601L184.271 394.13L186.941 387.28H188.291L184.721 396.36H184.731Z" fill="white"/>
<path d="M194.191 390.85V392.08H191.211V395.13H195.231V396.36H189.911V387.28H195.101V388.51H191.211V390.84H194.191V390.85Z" fill="white"/>
<path d="M197.361 394.09C197.891 394.74 198.641 395.26 199.581 395.26C200.421 395.26 201.161 394.72 201.161 393.9C201.161 392.51 199.241 392.36 198.041 391.57C197.391 391.14 196.891 390.52 196.891 389.57C196.891 388.25 198.061 387.16 199.641 387.16C200.791 387.16 201.601 387.67 202.081 388.07L201.321 389.02C200.831 388.6 200.271 388.4 199.701 388.4C198.951 388.4 198.201 388.83 198.201 389.62C198.201 390.77 200.131 391.02 201.301 391.8C201.911 392.2 202.481 392.84 202.481 393.88C202.481 395.48 201.251 396.51 199.671 396.51C198.421 396.51 197.301 395.97 196.491 394.99L197.391 394.11L197.361 394.09Z" fill="white"/>
<path d="M203.231 387.28H209.451V388.51H206.991V396.36H205.691V388.51H203.231V387.28Z" fill="white"/>
<path d="M214.571 387.15C217.141 387.15 219.111 389.17 219.111 391.82C219.111 394.47 217.141 396.49 214.571 396.49C212.001 396.49 210.031 394.47 210.031 391.82C210.031 389.17 212.001 387.15 214.571 387.15ZM214.571 395.26C216.421 395.26 217.811 393.79 217.811 391.82C217.811 389.85 216.421 388.38 214.571 388.38C212.721 388.38 211.331 389.86 211.331 391.82C211.331 393.78 212.721 395.26 214.571 395.26Z" fill="white"/>
<path d="M222.351 392.08V396.36H221.051V387.28H224.231C225.061 387.28 225.581 387.47 225.991 387.81C226.531 388.25 226.881 388.93 226.881 389.68C226.881 390.43 226.531 391.11 225.991 391.55C225.701 391.78 225.381 391.95 224.931 392.03L228.181 396.36H226.611L223.381 392.08H222.341H222.351ZM224.161 390.85C224.741 390.85 225.041 390.72 225.251 390.51C225.461 390.3 225.591 390 225.591 389.68C225.591 389.36 225.461 389.06 225.251 388.85C225.041 388.64 224.741 388.51 224.161 388.51H222.341V390.84H224.161V390.85Z" fill="white"/>
<path d="M229.721 394.09C230.251 394.74 231.001 395.26 231.941 395.26C232.781 395.26 233.521 394.72 233.521 393.9C233.521 392.51 231.601 392.36 230.391 391.57C229.741 391.14 229.241 390.52 229.241 389.57C229.241 388.25 230.411 387.16 231.991 387.16C233.141 387.16 233.951 387.67 234.431 388.07L233.671 389.02C233.181 388.6 232.621 388.4 232.051 388.4C231.301 388.4 230.551 388.83 230.551 389.62C230.551 390.77 232.481 391.02 233.651 391.8C234.261 392.2 234.831 392.84 234.831 393.88C234.831 395.48 233.601 396.51 232.021 396.51C230.771 396.51 229.651 395.97 228.841 394.99L229.731 394.11L229.721 394.09Z" fill="white"/>
<path d="M82.1105 101.6C83.6705 101.6 84.9505 102.88 84.9505 104.44C84.9505 106 83.6705 107.28 82.1105 107.28C80.5505 107.28 79.2705 106 79.2705 104.44C79.2705 102.88 80.5505 101.6 82.1105 101.6Z" fill="#5BACB8"/>
<path d="M96.1905 107.069H92.3605L91.4105 109.399H90.0605L93.8205 100.319H94.7305L98.4906 109.399H97.1405L96.1805 107.069H96.1905ZM92.8806 105.839H95.6805L94.2805 102.469L92.8806 105.839Z" fill="white"/>
<path d="M103.731 100.199C105.031 100.199 106.261 100.729 107.051 101.599L106.181 102.459C105.651 101.879 104.701 101.439 103.731 101.439C101.881 101.439 100.441 102.919 100.441 104.879C100.441 106.839 101.921 108.319 103.851 108.319C105.071 108.319 105.951 107.649 106.461 107.039L107.381 107.869C106.601 108.869 105.251 109.559 103.851 109.559C101.141 109.559 99.1406 107.579 99.1406 104.889C99.1406 102.199 101.111 100.219 103.731 100.219V100.199Z" fill="white"/>
<path d="M114.341 107.069H110.511L109.561 109.399H108.211L111.971 100.319H112.881L116.641 109.399H115.291L114.331 107.069H114.341ZM111.031 105.839H113.831L112.431 102.469L111.031 105.839Z" fill="white"/>
<path d="M118.201 109.409V100.329H120.921C122.361 100.329 123.291 100.639 124.031 101.189C125.151 102.019 125.851 103.369 125.851 104.869C125.851 106.369 125.161 107.719 124.051 108.549C123.311 109.089 122.361 109.409 120.921 109.409H118.201ZM123.451 102.329C122.881 101.839 122.131 101.559 120.861 101.559H119.501V108.169H120.861C122.131 108.169 122.881 107.899 123.451 107.399C124.141 106.789 124.551 105.869 124.551 104.859C124.551 103.849 124.131 102.929 123.451 102.319V102.329Z" fill="white"/>
<path d="M132.071 103.899V105.129H129.091V108.179H133.111V109.409H127.791V100.329H132.981V101.559H129.091V103.889H132.071V103.899Z" fill="white"/>
<path d="M139.98 107.459H139.07L136.41 103.299V109.409H135.11V100.329H136.02L139.52 105.869L143.02 100.329H143.93V109.409H142.63V103.299L139.97 107.459H139.98Z" fill="white"/>
<path d="M146.591 100.329H147.891V109.409H146.591V100.329Z" fill="white"/>
<path d="M154.421 100.199C155.721 100.199 156.951 100.729 157.741 101.599L156.871 102.459C156.341 101.879 155.391 101.439 154.421 101.439C152.571 101.439 151.131 102.919 151.131 104.879C151.131 106.839 152.611 108.319 154.541 108.319C155.761 108.319 156.641 107.649 157.151 107.039L158.071 107.869C157.291 108.869 155.941 109.559 154.541 109.559C151.831 109.559 149.831 107.579 149.831 104.889C149.831 102.199 151.801 100.219 154.421 100.219V100.199Z" fill="white"/>
<path d="M75.7207 114.529H77.0207V123.609H75.7207V114.529Z" fill="white"/>
<path d="M80.9709 116.939V123.609H79.6709V114.529H80.5809L86.0309 121.199V114.529H87.3309V123.609H86.4209L80.9709 116.939Z" fill="white"/>
<path d="M90.0912 121.339C90.6212 121.989 91.3712 122.509 92.3112 122.509C93.1512 122.509 93.8912 121.969 93.8912 121.149C93.8912 119.759 91.9712 119.609 90.7612 118.819C90.1112 118.389 89.6112 117.769 89.6112 116.819C89.6112 115.499 90.7812 114.409 92.3612 114.409C93.5112 114.409 94.3212 114.919 94.8012 115.319L94.0312 116.269C93.5412 115.849 92.9812 115.649 92.4112 115.649C91.6612 115.649 90.9112 116.079 90.9112 116.869C90.9112 118.019 92.8412 118.269 94.0112 119.049C94.6212 119.449 95.1912 120.089 95.1912 121.129C95.1912 122.729 93.9612 123.759 92.3812 123.759C91.1312 123.759 90.0112 123.219 89.2012 122.239L90.0912 121.359V121.339Z" fill="white"/>
<path d="M95.9609 114.529H102.191V115.759H99.7309V123.609H98.4309V115.759H95.9709V114.529H95.9609Z" fill="white"/>
<path d="M103.871 114.529H105.171V123.609H103.871V114.529Z" fill="white"/>
<path d="M106.851 114.529H113.081V115.759H110.621V123.609H109.321V115.759H106.861V114.529H106.851Z" fill="white"/>
<path d="M115.571 122.54C114.991 121.9 114.621 121.06 114.621 119.84V114.52H115.921V119.9C115.921 120.76 116.131 121.29 116.491 121.69C116.941 122.2 117.621 122.49 118.381 122.49C119.141 122.49 119.821 122.19 120.271 121.69C120.631 121.29 120.841 120.76 120.841 119.9V114.52H122.141V119.84C122.141 121.06 121.781 121.9 121.191 122.54C120.501 123.28 119.491 123.73 118.381 123.73C117.271 123.73 116.251 123.28 115.571 122.54Z" fill="white"/>
<path d="M123.701 114.529H129.931V115.759H127.471V123.609H126.171V115.759H123.711V114.529H123.701Z" fill="white"/>
<path d="M131.61 114.529H132.91V123.609H131.61V114.529Z" fill="white"/>
<path d="M139.391 114.399C141.961 114.399 143.931 116.419 143.931 119.069C143.931 121.719 141.961 123.739 139.391 123.739C136.821 123.739 134.851 121.719 134.851 119.069C134.851 116.419 136.821 114.399 139.391 114.399ZM139.391 122.499C141.241 122.499 142.631 121.029 142.631 119.059C142.631 117.089 141.241 115.619 139.391 115.619C137.541 115.619 136.151 117.099 136.151 119.059C136.151 121.019 137.541 122.499 139.391 122.499Z" fill="white"/>
<path d="M147.16 116.939V123.609H145.86V114.529H146.77L152.22 121.199V114.529H153.52V123.609H152.61L147.16 116.939Z" fill="white"/>
<path d="M156.29 121.339C156.82 121.989 157.57 122.509 158.51 122.509C159.35 122.509 160.09 121.969 160.09 121.149C160.09 119.759 158.17 119.609 156.96 118.819C156.31 118.389 155.81 117.769 155.81 116.819C155.81 115.499 156.98 114.409 158.56 114.409C159.71 114.409 160.52 114.919 161 115.319L160.23 116.269C159.74 115.849 159.18 115.649 158.61 115.649C157.86 115.649 157.11 116.079 157.11 116.869C157.11 118.019 159.04 118.269 160.21 119.049C160.82 119.449 161.39 120.089 161.39 121.129C161.39 122.729 160.16 123.759 158.58 123.759C157.33 123.759 156.21 123.219 155.4 122.239L156.29 121.359V121.339Z" fill="white"/>
<path d="M41.7502 258.06C43.3102 258.06 44.5902 259.34 44.5902 260.9C44.5902 262.46 43.3102 263.74 41.7502 263.74C40.1902 263.74 38.9102 262.46 38.9102 260.9C38.9102 259.34 40.1902 258.06 41.7502 258.06Z" fill="#898EBA"/>
<path d="M54.9601 256.659C56.2601 256.659 57.4901 257.189 58.2801 258.059L57.4101 258.919C56.8801 258.339 55.9301 257.899 54.9601 257.899C53.1001 257.899 51.6701 259.379 51.6701 261.339C51.6701 263.299 53.1501 264.779 55.0801 264.779C56.3001 264.779 57.1801 264.109 57.6901 263.499L58.6101 264.329C57.8301 265.329 56.4801 266.019 55.0801 266.019C52.3701 266.019 50.3701 264.039 50.3701 261.349C50.3701 258.659 52.3401 256.679 54.9601 256.679V256.659Z" fill="white"/>
<path d="M64.04 256.659C66.61 256.659 68.58 258.679 68.58 261.329C68.58 263.979 66.61 265.999 64.04 265.999C61.47 265.999 59.5 263.979 59.5 261.329C59.5 258.679 61.47 256.659 64.04 256.659ZM64.04 264.759C65.9 264.759 67.28 263.289 67.28 261.319C67.28 259.349 65.89 257.879 64.04 257.879C62.19 257.879 60.8 259.359 60.8 261.319C60.8 263.279 62.19 264.759 64.04 264.759Z" fill="white"/>
<path d="M75.3798 263.919H74.4698L71.8098 259.759V265.869H70.5098V256.789H71.4198L74.9198 262.329L78.4198 256.789H79.3298V265.869H78.0298V259.759L75.3698 263.919H75.3798Z" fill="white"/>
<path d="M86.8602 263.919H85.9502L83.2902 259.759V265.869H81.9902V256.789H82.9002L86.4002 262.329L89.9002 256.789H90.8102V265.869H89.5102V259.759L86.8502 263.919H86.8602Z" fill="white"/>
<path d="M94.2801 264.799C93.7001 264.159 93.3301 263.319 93.3301 262.099V256.779H94.6301V262.159C94.6301 263.019 94.8401 263.549 95.2001 263.949C95.6601 264.459 96.3301 264.749 97.0901 264.749C97.8501 264.749 98.5301 264.449 98.9801 263.949C99.3401 263.549 99.5501 263.019 99.5501 262.159V256.779H100.85V262.099C100.85 263.319 100.49 264.159 99.9001 264.799C99.2101 265.539 98.2001 265.989 97.0901 265.989C95.9801 265.989 94.9601 265.539 94.2801 264.799Z" fill="white"/>
<path d="M104.68 259.199V265.869H103.38V256.789H104.29L109.74 263.459V256.789H111.04V265.869H110.13L104.68 259.199Z" fill="white"/>
<path d="M113.69 256.789H114.99V265.869H113.69V256.789Z" fill="white"/>
<path d="M116.67 256.789H122.89V258.019H120.43V265.869H119.13V258.019H116.67V256.789Z" fill="white"/>
<path d="M128.33 261.719V265.869H127.03V261.719L123.92 256.789H125.37L127.68 260.429L129.99 256.789H131.44L128.33 261.719Z" fill="white"/>
<path d="M36.54 270.85C39.11 270.85 41.08 272.87 41.08 275.52C41.08 278.17 39.11 280.19 36.54 280.19C33.97 280.19 32 278.17 32 275.52C32 272.87 33.97 270.85 36.54 270.85ZM36.54 278.96C38.4 278.96 39.78 277.49 39.78 275.52C39.78 273.55 38.39 272.08 36.54 272.08C34.69 272.08 33.3 273.56 33.3 275.52C33.3 277.48 34.69 278.96 36.54 278.96Z" fill="white"/>
<path d="M44.3195 275.779V280.059H43.0195V270.979H46.1995C47.0295 270.979 47.5495 271.169 47.9595 271.509C48.4995 271.949 48.8595 272.63 48.8595 273.38C48.8595 274.13 48.5095 274.809 47.9595 275.249C47.6695 275.479 47.3495 275.649 46.8995 275.729L50.1595 280.059H48.5895L45.3595 275.779H44.3195ZM46.1295 274.549C46.7095 274.549 47.0095 274.42 47.2195 274.21C47.4295 274 47.5595 273.7 47.5595 273.38C47.5595 273.06 47.4295 272.759 47.2195 272.549C47.0095 272.339 46.7095 272.21 46.1295 272.21H44.3095V274.539H46.1295V274.549Z" fill="white"/>
<path d="M58.8396 278.509C58.0596 279.499 56.7096 280.199 55.3096 280.199C52.5996 280.199 50.5996 278.219 50.5996 275.529C50.5996 272.839 52.5696 270.859 55.1896 270.859C56.4896 270.859 57.7196 271.389 58.5096 272.259L57.6396 273.119C57.1096 272.539 56.1596 272.099 55.1896 272.099C53.3396 272.099 51.8996 273.579 51.8996 275.539C51.8996 277.499 53.3796 278.979 55.3096 278.979C56.2696 278.979 57.0596 278.619 57.5396 278.139V275.809H54.9496V274.579H58.8396V278.539V278.509Z" fill="white"/>
<path d="M65.9904 277.729H62.1604L61.2104 280.059H59.8604L63.6204 270.979H64.5304L68.2904 280.059H66.9404L65.9804 277.729H65.9904ZM62.6904 276.499H65.4904L64.0904 273.13L62.6904 276.499Z" fill="white"/>
<path d="M71.1496 273.399V280.069H69.8496V270.989H70.7596L76.2096 277.659V270.989H77.5096V280.069H76.5996L71.1496 273.399Z" fill="white"/>
<path d="M80.1602 270.979H81.4602V280.059H80.1602V270.979Z" fill="white"/>
<path d="M83.8497 270.979H89.9497V271.819L85.2297 278.819H90.2097V280.049H83.4697V279.21L88.2197 272.21H83.8597V270.979H83.8497Z" fill="white"/>
<path d="M97.0997 277.729H93.2697L92.3197 280.059H90.9697L94.7297 270.979H95.6397L99.3997 280.059H98.0497L97.0897 277.729H97.0997ZM93.7997 276.499H96.5997L95.1997 273.13L93.7997 276.499Z" fill="white"/>
<path d="M99.21 270.979H105.44V272.21H102.98V280.059H101.68V272.21H99.22V270.979H99.21Z" fill="white"/>
<path d="M107.12 270.979H108.42V280.059H107.12V270.979Z" fill="white"/>
<path d="M114.9 270.85C117.47 270.85 119.44 272.87 119.44 275.52C119.44 278.17 117.47 280.19 114.9 280.19C112.33 280.19 110.36 278.17 110.36 275.52C110.36 272.87 112.33 270.85 114.9 270.85ZM114.9 278.96C116.75 278.96 118.14 277.49 118.14 275.52C118.14 273.55 116.75 272.08 114.9 272.08C113.05 272.08 111.66 273.56 111.66 275.52C111.66 277.48 113.05 278.96 114.9 278.96Z" fill="white"/>
<path d="M122.68 273.399V280.069H121.38V270.989H122.29L127.74 277.659V270.989H129.04V280.069H128.13L122.68 273.399Z" fill="white"/>
<path d="M131.8 277.789C132.33 278.439 133.08 278.959 134.02 278.959C134.86 278.959 135.6 278.419 135.6 277.599C135.6 276.209 133.68 276.059 132.48 275.269C131.83 274.839 131.33 274.219 131.33 273.269C131.33 271.949 132.5 270.859 134.08 270.859C135.23 270.859 136.04 271.369 136.52 271.769L135.76 272.719C135.27 272.299 134.71 272.099 134.14 272.099C133.39 272.099 132.64 272.529 132.64 273.319C132.64 274.469 134.57 274.719 135.74 275.499C136.35 275.899 136.92 276.539 136.92 277.579C136.92 279.179 135.69 280.209 134.11 280.209C132.86 280.209 131.74 279.669 130.93 278.689L131.83 277.809L131.8 277.789Z" fill="white"/>
<path d="M295.931 119.489C309.887 119.489 321.201 108.175 321.201 94.2192C321.201 80.263 309.887 68.9492 295.931 68.9492C281.975 68.9492 270.661 80.263 270.661 94.2192C270.661 108.175 281.975 119.489 295.931 119.489Z" fill="#41451B" stroke="white" stroke-miterlimit="10"/>
<path d="M195.25 167.97C209.207 167.97 220.52 156.656 220.52 142.7C220.52 128.743 209.207 117.43 195.25 117.43C181.294 117.43 169.98 128.743 169.98 142.7C169.98 156.656 181.294 167.97 195.25 167.97Z" fill="#5BACB8" stroke="white" stroke-miterlimit="10"/>
<path d="M170.391 276.91C184.347 276.91 195.661 265.596 195.661 251.64C195.661 237.684 184.347 226.37 170.391 226.37C156.435 226.37 145.121 237.684 145.121 251.64C145.121 265.596 156.435 276.91 170.391 276.91Z" fill="#898EBA" stroke="white" stroke-miterlimit="10"/>
<path d="M240.061 364.27C254.017 364.27 265.331 352.956 265.331 338.999C265.331 325.043 254.017 313.729 240.061 313.729C226.105 313.729 214.791 325.043 214.791 338.999C214.791 352.956 226.105 364.27 240.061 364.27Z" fill="#454B78" stroke="white" stroke-miterlimit="10"/>
<path d="M351.801 364.27C365.757 364.27 377.071 352.956 377.071 338.999C377.071 325.043 365.757 313.729 351.801 313.729C337.845 313.729 326.531 325.043 326.531 338.999C326.531 352.956 337.845 364.27 351.801 364.27Z" fill="#9A1A10" stroke="white" stroke-miterlimit="10"/>
<path d="M420.17 282.09C434.127 282.09 445.44 270.776 445.44 256.82C445.44 242.864 434.127 231.55 420.17 231.55C406.214 231.55 394.9 242.864 394.9 256.82C394.9 270.776 406.214 282.09 420.17 282.09Z" fill="#EC5447" stroke="white" stroke-miterlimit="10"/>
<path d="M396.601 167.97C410.557 167.97 421.871 156.656 421.871 142.7C421.871 128.743 410.557 117.43 396.601 117.43C382.645 117.43 371.331 128.743 371.331 142.7C371.331 156.656 382.645 167.97 396.601 167.97Z" fill="#A2C852" stroke="white" stroke-miterlimit="10"/>
<path d="M221.072 182.717C221.072 178.728 224.074 175.607 228.064 175.607C230.039 175.607 231.915 176.417 233.12 177.74L231.796 179.044C230.987 178.155 229.545 177.484 228.064 177.484C225.239 177.484 223.047 179.735 223.047 182.717C223.047 185.838 225.299 187.951 228.241 187.951C230.098 187.951 231.441 186.924 232.211 185.996L233.613 187.26C232.428 188.781 230.374 189.827 228.241 189.827C224.114 189.827 221.072 186.806 221.072 182.717ZM241.028 180.209L240.811 182.006C240.594 181.947 240.376 181.927 240.08 181.927C239.112 181.927 238.085 182.599 237.572 183.488V189.63H235.696V180.347H237.513V181.414C237.967 180.782 238.935 180.15 240.297 180.15C240.495 180.15 240.811 180.17 241.028 180.209ZM251.085 185.384H243.936C244.035 186.944 245.318 188.188 246.938 188.188C248.32 188.188 249.071 187.517 249.604 186.924L250.829 188.089C250.137 188.978 248.814 189.827 246.918 189.827C244.212 189.827 242.119 187.773 242.119 184.989C242.119 182.204 244.015 180.15 246.642 180.15C249.229 180.15 251.105 182.243 251.105 184.989C251.105 185.068 251.105 185.206 251.085 185.384ZM246.701 181.789C245.496 181.789 244.41 182.599 244.094 183.804H249.15C248.873 182.619 247.807 181.789 246.701 181.789ZM260.445 189.63V188.781C259.695 189.452 258.688 189.827 257.582 189.827C256.752 189.827 255.883 189.59 255.251 189.215C253.849 188.386 252.881 186.845 252.881 184.989C252.881 183.132 253.869 181.572 255.271 180.742C255.903 180.367 256.673 180.15 257.542 180.15C258.589 180.15 259.596 180.466 260.445 181.197V180.347H262.262V189.63H260.445ZM260.386 186.727V183.251C259.813 182.5 258.865 181.927 257.74 181.927C255.942 181.927 254.757 183.369 254.757 184.989C254.757 186.648 256.041 188.05 257.838 188.05C258.786 188.05 259.754 187.576 260.386 186.727ZM270.981 187.931L271.357 189.63C271.001 189.748 270.428 189.827 269.895 189.827C268.73 189.827 267.861 189.413 267.268 188.741C266.715 188.129 266.518 187.28 266.518 186.272V182.026H264.148V180.347H266.518V177.78H268.394V180.347H271.357V182.026H268.394V186.371C268.394 186.865 268.434 187.28 268.671 187.556C268.927 187.872 269.461 188.05 269.954 188.05C270.231 188.05 270.705 188.01 270.981 187.931ZM281.81 185.384H274.66C274.759 186.944 276.043 188.188 277.662 188.188C279.045 188.188 279.795 187.517 280.329 186.924L281.553 188.089C280.862 188.978 279.539 189.827 277.643 189.827C274.937 189.827 272.843 187.773 272.843 184.989C272.843 182.204 274.739 180.15 277.366 180.15C279.953 180.15 281.83 182.243 281.83 184.989C281.83 185.068 281.83 185.206 281.81 185.384ZM277.425 181.789C276.221 181.789 275.134 182.599 274.818 183.804H279.874C279.598 182.619 278.531 181.789 277.425 181.789ZM297.895 185.384H290.746C290.845 186.944 292.128 188.188 293.748 188.188C295.13 188.188 295.881 187.517 296.414 186.924L297.639 188.089C296.947 188.978 295.624 189.827 293.728 189.827C291.022 189.827 288.929 187.773 288.929 184.989C288.929 182.204 290.825 180.15 293.452 180.15C296.039 180.15 297.915 182.243 297.915 184.989C297.915 185.068 297.915 185.206 297.895 185.384ZM293.511 181.789C292.306 181.789 291.22 182.599 290.904 183.804H295.96C295.683 182.619 294.617 181.789 293.511 181.789ZM302.298 180.347V181.236C302.792 180.762 303.74 180.15 305.083 180.15C306.445 180.15 307.67 180.782 308.46 181.789C309.052 182.54 309.368 183.488 309.368 185.087V189.63H307.492V184.989C307.492 183.804 307.275 183.251 306.939 182.836C306.505 182.283 305.794 181.927 305.023 181.927C303.799 181.927 302.91 182.579 302.357 183.251V189.63H300.481V180.347H302.298ZM319.31 189.63V188.781C318.559 189.452 317.552 189.827 316.446 189.827C315.616 189.827 314.747 189.59 314.115 189.215C312.713 188.386 311.745 186.845 311.745 184.989C311.745 183.132 312.733 181.572 314.135 180.742C314.767 180.367 315.537 180.15 316.406 180.15C317.414 180.15 318.421 180.466 319.25 181.157V175.607H321.127V189.63H319.31ZM319.25 186.727V183.251C318.678 182.5 317.73 181.927 316.604 181.927C314.807 181.927 313.622 183.369 313.622 184.989C313.622 186.648 314.905 188.05 316.703 188.05C317.651 188.05 318.618 187.576 319.25 186.727ZM328.443 189.827C327.12 189.827 325.915 189.235 325.145 188.267C324.572 187.556 324.296 186.648 324.296 185.087V180.347H326.172V185.384C326.172 186.332 326.37 186.845 326.705 187.24C327.12 187.734 327.792 188.05 328.503 188.05C329.648 188.05 330.576 187.359 331.11 186.727V180.347H332.986V189.63H331.169V188.781C330.754 189.176 329.727 189.827 328.443 189.827ZM341.668 180.209L341.451 182.006C341.234 181.947 341.016 181.927 340.72 181.927C339.752 181.927 338.725 182.599 338.212 183.488V189.63H336.336V180.347H338.153V181.414C338.607 180.782 339.575 180.15 340.937 180.15C341.135 180.15 341.451 180.17 341.668 180.209ZM343.935 189.63V180.347H345.811V189.63H343.935ZM343.639 177.049C343.639 176.358 344.172 175.805 344.863 175.805C345.554 175.805 346.107 176.358 346.107 177.049C346.107 177.74 345.554 178.274 344.863 178.274C344.172 178.274 343.639 177.74 343.639 177.049ZM350.979 180.347V181.236C351.472 180.762 352.42 180.15 353.763 180.15C355.126 180.15 356.351 180.782 357.141 181.789C357.733 182.54 358.049 183.488 358.049 185.087V189.63H356.173V184.989C356.173 183.804 355.956 183.251 355.62 182.836C355.185 182.283 354.474 181.927 353.704 181.927C352.48 181.927 351.591 182.579 351.038 183.251V189.63H349.162V180.347H350.979ZM367.931 188.82C367.181 189.472 366.233 189.827 365.127 189.827C364.297 189.827 363.428 189.59 362.796 189.215C361.394 188.386 360.426 186.845 360.426 184.989C360.426 183.132 361.414 181.572 362.816 180.742C363.448 180.367 364.218 180.15 365.087 180.15C366.134 180.15 367.141 180.466 367.99 181.197V180.347H369.807V189.235C369.807 190.617 369.63 191.546 369.254 192.276C368.504 193.718 367.082 194.567 365.245 194.567C362.836 194.567 361.315 193.343 360.722 192.415L362.105 191.131C362.776 192.02 363.645 192.79 365.166 192.79C366.173 192.79 366.963 192.415 367.418 191.723C367.753 191.21 367.931 190.499 367.931 189.334V188.82ZM367.931 186.727V183.251C367.358 182.5 366.41 181.927 365.285 181.927C363.487 181.927 362.302 183.369 362.302 184.989C362.302 186.648 363.586 188.05 365.383 188.05C366.331 188.05 367.299 187.576 367.931 186.727Z" fill="white"/>
<path d="M222.919 201.338H224.736V202.226C225.111 201.812 226.197 201.14 227.461 201.14C228.824 201.14 229.97 201.752 230.74 202.681C231.589 201.831 232.596 201.14 234.275 201.14C235.598 201.14 236.803 201.733 237.573 202.7C238.146 203.411 238.423 204.32 238.423 205.88V210.62H236.546V205.584C236.546 204.636 236.349 204.122 236.013 203.727C235.598 203.234 234.966 202.918 234.275 202.918C232.932 202.918 232.063 203.609 231.451 204.241C231.55 204.695 231.609 205.228 231.609 205.88V210.62H229.733V205.584C229.733 204.636 229.535 204.122 229.199 203.727C228.785 203.234 228.113 202.918 227.402 202.918C226.257 202.918 225.328 203.609 224.795 204.241V210.62H222.919V201.338ZM245.539 210.818C244.216 210.818 243.011 210.225 242.241 209.257C241.668 208.546 241.391 207.638 241.391 206.078V201.338H243.268V206.374C243.268 207.322 243.465 207.835 243.801 208.23C244.216 208.724 244.887 209.04 245.598 209.04C246.744 209.04 247.672 208.349 248.205 207.717V201.338H250.081V210.62H248.264V209.771C247.85 210.166 246.823 210.818 245.539 210.818ZM258.783 208.922L259.159 210.62C258.803 210.739 258.23 210.818 257.697 210.818C256.532 210.818 255.663 210.403 255.07 209.731C254.517 209.119 254.32 208.27 254.32 207.263V203.016H251.95V201.338H254.32V198.77H256.196V201.338H259.159V203.016H256.196V207.361C256.196 207.855 256.236 208.27 256.473 208.546C256.729 208.862 257.263 209.04 257.756 209.04C258.033 209.04 258.507 209.001 258.783 208.922ZM265.675 210.818C264.351 210.818 263.147 210.225 262.376 209.257C261.804 208.546 261.527 207.638 261.527 206.078V201.338H263.403V206.374C263.403 207.322 263.601 207.835 263.937 208.23C264.351 208.724 265.023 209.04 265.734 209.04C266.879 209.04 267.808 208.349 268.341 207.717V201.338H270.217V210.62H268.4V209.771C267.985 210.166 266.958 210.818 265.675 210.818ZM280.341 210.62V209.771C279.591 210.442 278.583 210.818 277.477 210.818C276.648 210.818 275.779 210.581 275.147 210.205C273.745 209.376 272.777 207.835 272.777 205.979C272.777 204.122 273.764 202.562 275.167 201.733C275.799 201.357 276.569 201.14 277.438 201.14C278.485 201.14 279.492 201.456 280.341 202.187V201.338H282.158V210.62H280.341ZM280.282 207.717V204.241C279.709 203.49 278.761 202.918 277.635 202.918C275.838 202.918 274.653 204.359 274.653 205.979C274.653 207.638 275.937 209.04 277.734 209.04C278.682 209.04 279.65 208.566 280.282 207.717ZM285.525 210.62V196.598H287.401V210.62H285.525ZM293.299 210.62L289.27 201.338H291.206L293.951 207.658L296.696 201.338H298.632L294.603 210.62H293.299ZM307.189 210.62V209.771C306.438 210.442 305.431 210.818 304.325 210.818C303.496 210.818 302.627 210.581 301.995 210.205C300.592 209.376 299.625 207.835 299.625 205.979C299.625 204.122 300.612 202.562 302.014 201.733C302.646 201.357 303.417 201.14 304.286 201.14C305.332 201.14 306.34 201.456 307.189 202.187V201.338H309.006V210.62H307.189ZM307.13 207.717V204.241C306.557 203.49 305.609 202.918 304.483 202.918C302.686 202.918 301.501 204.359 301.501 205.979C301.501 207.638 302.785 209.04 304.582 209.04C305.53 209.04 306.498 208.566 307.13 207.717ZM312.373 210.62V196.598H314.249V210.62H312.373ZM321.549 210.818C320.226 210.818 319.021 210.225 318.251 209.257C317.678 208.546 317.402 207.638 317.402 206.078V201.338H319.278V206.374C319.278 207.322 319.476 207.835 319.811 208.23C320.226 208.724 320.898 209.04 321.609 209.04C322.754 209.04 323.682 208.349 324.216 207.717V201.338H326.092V210.62H324.275V209.771C323.86 210.166 322.833 210.818 321.549 210.818ZM337.618 206.374H330.469C330.567 207.934 331.851 209.178 333.471 209.178C334.853 209.178 335.604 208.507 336.137 207.914L337.361 209.08C336.67 209.968 335.347 210.818 333.451 210.818C330.745 210.818 328.652 208.764 328.652 205.979C328.652 203.194 330.548 201.14 333.174 201.14C335.762 201.14 337.638 203.234 337.638 205.979C337.638 206.058 337.638 206.196 337.618 206.374ZM333.234 202.779C332.029 202.779 330.943 203.589 330.627 204.794H335.683C335.406 203.609 334.34 202.779 333.234 202.779ZM347.344 209.771V210.62H345.527V196.598H347.403V202.147C348.233 201.456 349.24 201.14 350.247 201.14C351.116 201.14 351.887 201.357 352.519 201.733C353.921 202.562 354.908 204.122 354.908 205.979C354.908 207.835 353.941 209.376 352.538 210.205C351.906 210.581 351.037 210.818 350.208 210.818C349.102 210.818 348.095 210.442 347.344 209.771ZM347.403 204.241V207.717C348.035 208.566 349.003 209.04 349.951 209.04C351.748 209.04 353.032 207.638 353.032 205.979C353.032 204.359 351.847 202.918 350.05 202.918C348.924 202.918 347.976 203.49 347.403 204.241ZM359.267 215.36H357.273L359.781 209.652L355.811 201.338H357.826L360.729 207.46L363.395 201.338H365.37L359.267 215.36Z" fill="white"/>
<path d="M253.874 231.6V230.75C253.123 231.422 252.116 231.797 251.01 231.797C250.181 231.797 249.312 231.56 248.68 231.185C247.277 230.355 246.31 228.815 246.31 226.958C246.31 225.102 247.297 223.542 248.699 222.712C249.331 222.337 250.102 222.12 250.971 222.12C252.017 222.12 253.025 222.436 253.874 223.166V222.317H255.691V231.6H253.874ZM253.815 228.696V225.22C253.242 224.47 252.294 223.897 251.168 223.897C249.371 223.897 248.186 225.339 248.186 226.958C248.186 228.617 249.47 230.02 251.267 230.02C252.215 230.02 253.183 229.546 253.815 228.696ZM265.832 231.6V230.75C265.081 231.422 264.074 231.797 262.968 231.797C262.139 231.797 261.27 231.56 260.638 231.185C259.235 230.355 258.268 228.815 258.268 226.958C258.268 225.102 259.255 223.542 260.657 222.712C261.289 222.337 262.06 222.12 262.929 222.12C263.936 222.12 264.943 222.436 265.773 223.127V217.577H267.649V231.6H265.832ZM265.773 228.696V225.22C265.2 224.47 264.252 223.897 263.126 223.897C261.329 223.897 260.144 225.339 260.144 226.958C260.144 228.617 261.428 230.02 263.225 230.02C264.173 230.02 265.141 229.546 265.773 228.696ZM277.79 231.6V230.75C277.039 231.422 276.032 231.797 274.926 231.797C274.097 231.797 273.228 231.56 272.596 231.185C271.193 230.355 270.226 228.815 270.226 226.958C270.226 225.102 271.213 223.542 272.615 222.712C273.247 222.337 274.018 222.12 274.887 222.12C275.894 222.12 276.901 222.436 277.731 223.127V217.577H279.607V231.6H277.79ZM277.731 228.696V225.22C277.158 224.47 276.21 223.897 275.084 223.897C273.287 223.897 272.102 225.339 272.102 226.958C272.102 228.617 273.386 230.02 275.183 230.02C276.131 230.02 277.099 229.546 277.731 228.696ZM288.306 222.179L288.089 223.976C287.872 223.917 287.654 223.897 287.358 223.897C286.39 223.897 285.363 224.569 284.85 225.457V231.6H282.974V222.317H284.791V223.384C285.245 222.752 286.213 222.12 287.575 222.12C287.773 222.12 288.089 222.139 288.306 222.179ZM298.364 227.353H291.214C291.313 228.914 292.597 230.158 294.216 230.158C295.599 230.158 296.349 229.486 296.882 228.894L298.107 230.059C297.416 230.948 296.092 231.797 294.196 231.797C291.491 231.797 289.397 229.743 289.397 226.958C289.397 224.174 291.293 222.12 293.92 222.12C296.507 222.12 298.383 224.213 298.383 226.958C298.383 227.037 298.383 227.176 298.364 227.353ZM293.979 223.759C292.774 223.759 291.688 224.569 291.372 225.773H296.428C296.152 224.588 295.085 223.759 293.979 223.759ZM300.061 230.513L301.028 229.131C301.897 229.802 302.845 230.158 303.774 230.158C304.583 230.158 305.393 229.723 305.393 228.993C305.393 227.926 303.853 227.867 302.49 227.413C301.364 227.037 300.357 226.326 300.357 225.023C300.357 223.028 302.134 222.12 303.793 222.12C305.156 222.12 306.144 222.554 306.874 223.147L305.907 224.49C305.334 224.055 304.662 223.759 303.912 223.759C303.003 223.759 302.233 224.193 302.233 224.924C302.233 225.556 302.964 225.773 303.892 226.01C305.354 226.386 307.269 227.037 307.269 228.953C307.269 230.711 305.63 231.797 303.813 231.797C302.332 231.797 301.088 231.343 300.061 230.513ZM309.048 230.513L310.016 229.131C310.885 229.802 311.833 230.158 312.761 230.158C313.571 230.158 314.381 229.723 314.381 228.993C314.381 227.926 312.84 227.867 311.478 227.413C310.352 227.037 309.345 226.326 309.345 225.023C309.345 223.028 311.122 222.12 312.781 222.12C314.144 222.12 315.131 222.554 315.862 223.147L314.894 224.49C314.322 224.055 313.65 223.759 312.9 223.759C311.991 223.759 311.221 224.193 311.221 224.924C311.221 225.556 311.952 225.773 312.88 226.01C314.341 226.386 316.257 227.037 316.257 228.953C316.257 230.711 314.618 231.797 312.801 231.797C311.32 231.797 310.075 231.343 309.048 230.513ZM318.925 231.6V222.317H320.801V231.6H318.925ZM318.629 219.019C318.629 218.328 319.162 217.775 319.853 217.775C320.544 217.775 321.097 218.328 321.097 219.019C321.097 219.71 320.544 220.243 319.853 220.243C319.162 220.243 318.629 219.71 318.629 219.019ZM325.969 222.317V223.206C326.462 222.732 327.41 222.12 328.753 222.12C330.116 222.12 331.341 222.752 332.131 223.759C332.723 224.509 333.039 225.457 333.039 227.057V231.6H331.163V226.958C331.163 225.773 330.946 225.22 330.61 224.806C330.175 224.253 329.464 223.897 328.694 223.897C327.47 223.897 326.581 224.549 326.028 225.22V231.6H324.152V222.317H325.969ZM342.921 230.79C342.171 231.442 341.223 231.797 340.117 231.797C339.287 231.797 338.418 231.56 337.786 231.185C336.384 230.355 335.416 228.815 335.416 226.958C335.416 225.102 336.404 223.542 337.806 222.712C338.438 222.337 339.208 222.12 340.077 222.12C341.124 222.12 342.131 222.436 342.98 223.166V222.317H344.797V231.205C344.797 232.587 344.62 233.515 344.244 234.246C343.494 235.688 342.072 236.537 340.235 236.537C337.826 236.537 336.305 235.313 335.712 234.384L337.095 233.101C337.766 233.989 338.635 234.76 340.156 234.76C341.163 234.76 341.953 234.384 342.408 233.693C342.743 233.18 342.921 232.469 342.921 231.303V230.79ZM342.921 228.696V225.22C342.348 224.47 341.4 223.897 340.275 223.897C338.477 223.897 337.292 225.339 337.292 226.958C337.292 228.617 338.576 230.02 340.373 230.02C341.321 230.02 342.289 229.546 342.921 228.696Z" fill="white"/>
<path d="M214.98 251.504L215.948 250.121C216.817 250.793 217.765 251.148 218.693 251.148C219.503 251.148 220.313 250.714 220.313 249.983C220.313 248.916 218.772 248.857 217.41 248.403C216.284 248.028 215.277 247.317 215.277 246.013C215.277 244.018 217.054 243.11 218.713 243.11C220.076 243.11 221.063 243.544 221.794 244.137L220.826 245.48C220.254 245.045 219.582 244.749 218.832 244.749C217.923 244.749 217.153 245.184 217.153 245.914C217.153 246.546 217.884 246.764 218.812 247.001C220.273 247.376 222.189 248.028 222.189 249.943C222.189 251.701 220.55 252.787 218.733 252.787C217.252 252.787 216.007 252.333 214.98 251.504ZM224.067 247.949C224.067 245.184 226.121 243.11 228.866 243.11C231.611 243.11 233.665 245.184 233.665 247.949C233.665 250.714 231.611 252.787 228.866 252.787C226.121 252.787 224.067 250.714 224.067 247.949ZM225.943 247.949C225.943 249.647 227.148 251.01 228.866 251.01C230.584 251.01 231.789 249.647 231.789 247.949C231.789 246.25 230.584 244.887 228.866 244.887C227.148 244.887 225.943 246.25 225.943 247.949ZM243.09 249.568L244.531 250.615C243.761 251.899 242.102 252.787 240.404 252.787C237.54 252.787 235.446 250.694 235.446 247.949C235.446 245.203 237.5 243.11 240.285 243.11C241.905 243.11 243.366 243.92 244.235 245.124L242.853 246.29C242.339 245.579 241.47 244.887 240.285 244.887C238.606 244.887 237.323 246.191 237.323 247.949C237.323 249.766 238.626 251.01 240.404 251.01C241.628 251.01 242.497 250.358 243.09 249.568ZM246.709 252.59V243.307H248.586V252.59H246.709ZM246.413 240.009C246.413 239.318 246.946 238.765 247.638 238.765C248.329 238.765 248.882 239.318 248.882 240.009C248.882 240.7 248.329 241.234 247.638 241.234C246.946 241.234 246.413 240.7 246.413 240.009ZM260.113 248.344H252.963C253.062 249.904 254.346 251.148 255.965 251.148C257.348 251.148 258.098 250.477 258.631 249.884L259.856 251.049C259.165 251.938 257.841 252.787 255.945 252.787C253.24 252.787 251.146 250.733 251.146 247.949C251.146 245.164 253.042 243.11 255.669 243.11C258.256 243.11 260.132 245.203 260.132 247.949C260.132 248.028 260.132 248.166 260.113 248.344ZM255.728 244.749C254.523 244.749 253.437 245.559 253.121 246.764H258.177C257.901 245.579 256.834 244.749 255.728 244.749ZM268.051 250.891L268.426 252.59C268.07 252.708 267.498 252.787 266.964 252.787C265.799 252.787 264.93 252.373 264.338 251.701C263.785 251.089 263.587 250.24 263.587 249.232V244.986H261.217V243.307H263.587V240.74H265.463V243.307H268.426V244.986H265.463V249.331C265.463 249.825 265.503 250.24 265.74 250.516C265.997 250.832 266.53 251.01 267.024 251.01C267.3 251.01 267.774 250.97 268.051 250.891ZM277.477 252.59V251.741C276.726 252.412 275.719 252.787 274.613 252.787C273.783 252.787 272.914 252.55 272.282 252.175C270.88 251.346 269.912 249.805 269.912 247.949C269.912 246.092 270.9 244.532 272.302 243.702C272.934 243.327 273.704 243.11 274.573 243.11C275.62 243.11 276.627 243.426 277.477 244.157V243.307H279.294V252.59H277.477ZM277.417 249.687V246.211C276.845 245.46 275.897 244.887 274.771 244.887C272.974 244.887 271.789 246.329 271.789 247.949C271.789 249.608 273.072 251.01 274.87 251.01C275.818 251.01 276.785 250.536 277.417 249.687ZM282.66 252.59V238.567H284.537V252.59H282.66ZM295.087 251.78V257.33H293.21V243.307H295.027V244.157C295.877 243.426 296.884 243.11 297.931 243.11C298.8 243.11 299.57 243.327 300.202 243.702C301.604 244.532 302.592 246.092 302.592 247.949C302.592 249.805 301.624 251.346 300.222 252.175C299.59 252.55 298.721 252.787 297.891 252.787C296.785 252.787 295.837 252.432 295.087 251.78ZM295.087 246.211V249.687C295.719 250.536 296.686 251.01 297.634 251.01C299.432 251.01 300.715 249.608 300.715 247.949C300.715 246.329 299.53 244.887 297.733 244.887C296.607 244.887 295.659 245.46 295.087 246.211ZM310.501 243.169L310.284 244.966C310.066 244.907 309.849 244.887 309.553 244.887C308.585 244.887 307.558 245.559 307.045 246.448V252.59H305.168V243.307H306.985V244.374C307.44 243.742 308.407 243.11 309.77 243.11C309.968 243.11 310.284 243.13 310.501 243.169ZM311.592 247.949C311.592 245.184 313.646 243.11 316.391 243.11C319.136 243.11 321.19 245.184 321.19 247.949C321.19 250.714 319.136 252.787 316.391 252.787C313.646 252.787 311.592 250.714 311.592 247.949ZM313.468 247.949C313.468 249.647 314.673 251.01 316.391 251.01C318.109 251.01 319.314 249.647 319.314 247.949C319.314 246.25 318.109 244.887 316.391 244.887C314.673 244.887 313.468 246.25 313.468 247.949ZM325.578 251.741V252.59H323.761V238.567H325.638V244.117C326.467 243.426 327.474 243.11 328.482 243.11C329.351 243.11 330.121 243.327 330.753 243.702C332.155 244.532 333.143 246.092 333.143 247.949C333.143 249.805 332.175 251.346 330.773 252.175C330.141 252.55 329.272 252.787 328.442 252.787C327.336 252.787 326.329 252.412 325.578 251.741ZM325.638 246.211V249.687C326.27 250.536 327.237 251.01 328.185 251.01C329.983 251.01 331.266 249.608 331.266 247.949C331.266 246.329 330.081 244.887 328.284 244.887C327.158 244.887 326.21 245.46 325.638 246.211ZM335.719 252.59V238.567H337.596V252.59H335.719ZM349.123 248.344H341.973C342.072 249.904 343.356 251.148 344.975 251.148C346.358 251.148 347.108 250.477 347.641 249.884L348.866 251.049C348.175 251.938 346.851 252.787 344.955 252.787C342.25 252.787 340.156 250.733 340.156 247.949C340.156 245.164 342.052 243.11 344.679 243.11C347.266 243.11 349.142 245.203 349.142 247.949C349.142 248.028 349.142 248.166 349.123 248.344ZM344.738 244.749C343.533 244.749 342.447 245.559 342.131 246.764H347.187C346.911 245.579 345.844 244.749 344.738 244.749ZM351.708 243.307H353.525V244.196C353.901 243.781 354.987 243.11 356.251 243.11C357.614 243.11 358.759 243.722 359.529 244.65C360.379 243.801 361.386 243.11 363.065 243.11C364.388 243.11 365.593 243.702 366.363 244.67C366.936 245.381 367.212 246.29 367.212 247.85V252.59H365.336V247.554C365.336 246.606 365.138 246.092 364.803 245.697C364.388 245.203 363.756 244.887 363.065 244.887C361.722 244.887 360.853 245.579 360.24 246.211C360.339 246.665 360.398 247.198 360.398 247.85V252.59H358.522V247.554C358.522 246.606 358.325 246.092 357.989 245.697C357.574 245.203 356.903 244.887 356.192 244.887C355.046 244.887 354.118 245.579 353.585 246.211V252.59H351.708V243.307ZM369.489 251.504L370.457 250.121C371.326 250.793 372.274 251.148 373.202 251.148C374.012 251.148 374.822 250.714 374.822 249.983C374.822 248.916 373.281 248.857 371.919 248.403C370.793 248.028 369.786 247.317 369.786 246.013C369.786 244.018 371.563 243.11 373.222 243.11C374.585 243.11 375.572 243.544 376.303 244.137L375.335 245.48C374.763 245.045 374.091 244.749 373.341 244.749C372.432 244.749 371.662 245.184 371.662 245.914C371.662 246.546 372.393 246.764 373.321 247.001C374.782 247.376 376.698 248.028 376.698 249.943C376.698 251.701 375.059 252.787 373.242 252.787C371.761 252.787 370.516 252.333 369.489 251.504Z" fill="white"/>
</svg>
